<svg xmlns="http://www.w3.org/2000/svg" xmlns:xlink="http://www.w3.org/1999/xlink" width="485.218" height="547.175" viewBox="0 0 485.218 547.175">
  <defs>
    <clipPath id="clip-path">
      <rect id="Rectangle_1" data-name="Rectangle 1" width="37.931" height="21.44" transform="translate(210.35 480.374)" fill="#fff"/>
    </clipPath>
    <clipPath id="clip-path-2">
      <rect id="Rectangle_2" data-name="Rectangle 2" width="37.931" height="21.44" transform="translate(83.382 458.799) rotate(40.528)" fill="#fff"/>
    </clipPath>
    <clipPath id="clip-path-3">
      <rect id="Rectangle_6" data-name="Rectangle 6" width="33" height="33" transform="translate(273.666 71.993)" fill="#fff"/>
    </clipPath>
    <clipPath id="clip-path-4">
      <rect id="Rectangle_7" data-name="Rectangle 7" width="48.376" height="48.376" transform="translate(396.144 441.186)" fill="#fff"/>
    </clipPath>
    <clipPath id="clip-path-5">
      <rect id="Rectangle_8" data-name="Rectangle 8" width="53.874" height="53.874" transform="translate(246.729 368.229)" fill="#fff"/>
    </clipPath>
    <clipPath id="clip-path-6">
      <rect id="Rectangle_9" data-name="Rectangle 9" width="31.991" height="32.672" transform="translate(79.021 128.064)" fill="#fff"/>
    </clipPath>
  </defs>
  <g id="topspeaker" transform="translate(-52.958 -25.377)">
    <path id="Path_1" data-name="Path 1" d="M365.1,497.341l-112.964,65.6-113.7-65.6,112.963-65.6Z" fill="#d6d8e5" opacity="0.4"/>
    <path id="Path_2" data-name="Path 2" d="M364.833,497.68l-.026,10.986L253.886,572.553l.026-11Z" fill="#d3d3dd"/>
    <path id="Path_3" data-name="Path 3" d="M253.942,561.224l-.026,11.3-113.7-65.6.026-11.281Z" fill="#e0dee9"/>
    <path id="Path_4" data-name="Path 4" d="M181.4,186.232l1.7-9.188-13.954-8.462-1.7,5.4-3.4,10.89,10.55,5.1L186.16,194.4Z" fill="#ffab87" stroke="#ffab87" stroke-width="1"/>
    <path id="Path_5" data-name="Path 5" d="M203.858,132.46l1.021,10.21-1.021,4.765v5.785c1.474,1.362,4.356,4.493,4.084,6.126.113.568-.341,1.838-3.063,2.383h-2.723v2.042a68.617,68.617,0,0,1-6.807,1.021c-1.361,0-1.7,5.785,5.446,6.806-.794,1.929-2.315,6.058-2.042,7.147.34,1.362-.681,1.7-5.105,1.362-6.807-1.362-21.033-5.31-23.483-10.21-.172-.343-.326-.65-.466-.922l-.215.581c-.738-1.793-1.634-4.2.215-.581l3.189-8.608c-4.084-5.331-9.257-15.927,2.722-15.655.856,1.284,2.164,3.73,2.17,5.438l8.38-24.5,12.933.68C201.7,126.561,206.308,128.1,203.858,132.46Z" fill="#ffab87"/>
    <path id="Path_6" data-name="Path 6" d="M211,119.188l-6.466,12.251-8.508-1.7c-8.713-3-10.437,6.012-10.21,10.89-1.634,7.351-6.353,10.324-8.508,10.891v-2.382l-1.362-4.765c-12.251-1.089-7.373,10.21-3.4,16l-4.764,13.954h-4.425l-2.382-4.084-10.21-14.294c-2.723-4.9-3.63-12.252-3.744-15.315.545-18.241,13.387-27.113,19.74-29.268,14.974-4.356,33.012.908,40.158,4.084l-6.806,3.744Z" stroke="#000" stroke-width="1"/>
    <path id="Path_7" data-name="Path 7" d="M193.342,145.137a4.574,4.574,0,0,1,6.322-1.375" fill="none" stroke="#000" stroke-width="1"/>
    <ellipse id="Ellipse_1" data-name="Ellipse 1" cx="1.924" cy="2.474" rx="1.924" ry="2.474" transform="translate(194.991 144.587)"/>
    <path id="Path_8" data-name="Path 8" d="M88.372,286.85l44.466-47.808c-4.988-3.325-11.213-7.035-12.6-9.691L88.372,274.727l-5.542,6.927a23.574,23.574,0,0,0-10.738,3.118c-10.253,13.578-1.27,19.051,4.5,20.09v-6.581H88.372Z" fill="#ffb8b8"/>
    <path id="Path_9" data-name="Path 9" d="M221.729,232.469h-3.117l-4.85,12.123a9.74,9.74,0,0,0,15.907-2.833l.472-1.068,9.345-25.837,8.048-18.063h6.408v-7.274c-.277-8.867-6.581-8.313-9.7-6.927l-15.753,32.264Z" fill="#f6a89e"/>
    <path id="Path_10" data-name="Path 10" d="M200.253,311.443h-67.89L126.128,392.5,79.021,465.582l14.2,9.006,62-71.354,13.855-63.041,21.129,52.3,22.862,97.333h13.162V459.347l-5.2-75.164Z" fill="#293a56"/>
    <path id="Path_11" data-name="Path 11" d="M188.636,193.613l31.707,35.045-2.412,6.753-4.515,12.645-19.744-8.314Z" fill="#c8e18e"/>
    <path id="Path_12" data-name="Path 12" d="M186.986,190.666l-20.678-6h-4.849l-14.548,9.7-27.018,32.906c1.663,11.915,11.777,13.278,16.626,12.469l-4.5,73.087c21.06,10.252,53.8,4.272,67.544,0L196.1,242.513l-2.771-6.581V198.871Z" fill="#c8e18e"/>
    <path id="Path_13" data-name="Path 13" d="M191.385,196.063l-30.46-11.4,2.383-2.042,23.823,7.828Z" fill="#9ec04f"/>
    <g id="Group_1" data-name="Group 1" clip-path="url(#clip-path)">
      <path id="Path_14" data-name="Path 14" d="M212.261,485.5a17.2,17.2,0,0,0,13.024-1.583c3.152.1,20.172-7.243,22.517-1.076,2.03,5.394-5.346,10.383-9.292,11.4-8.623,2.09-14.99,6.408-18.457,7.142-2.522.545-5.913.9-7.968-1.14C209.639,497.734,209.853,488.718,212.261,485.5Z" fill="#2f2e41"/>
      <path id="Path_15" data-name="Path 15" d="M220.066,499.836c3.467-.735,9.833-5.065,18.457-7.142,3.3-.81,9-4.445,9.569-8.775.769,4.964-5.888,9.37-9.569,10.269-8.624,2.09-14.99,6.408-18.457,7.142-2.522.545-5.913.9-7.968-1.14a4.987,4.987,0,0,1-1.122-2.064,10.25,10.25,0,0,0,9.09,1.71Z" fill="#656668"/>
    </g>
    <g id="Group_2" data-name="Group 2" clip-path="url(#clip-path-2)">
      <path id="Path_16" data-name="Path 16" d="M81.5,463.938a17.192,17.192,0,0,0,10.928,7.26c2.33,2.125,20.039,7.6,17.814,13.814-1.962,5.419-10.81,4.419-14.468,2.624-7.912-4.015-15.558-4.87-18.67-6.565-2.27-1.225-5.078-3.159-5.316-6.044C71.561,471.532,77.583,464.818,81.5,463.938Z" fill="#2f2e41"/>
      <path id="Path_17" data-name="Path 17" d="M78.121,479.9c3.113,1.694,10.766,2.54,18.67,6.565,3.037,1.531,9.73,2.471,12.976-.452-2.641,4.273-10.565,3.3-13.947,1.588-7.912-4.016-15.558-4.871-18.67-6.565-2.27-1.225-5.079-3.159-5.316-6.044a4.994,4.994,0,0,1,.488-2.3,10.254,10.254,0,0,0,5.8,7.206Z" fill="#656668"/>
    </g>
    <path id="Path_18" data-name="Path 18" d="M301.723,122.5l-51.966,22.539v23.914l52.925,20.854Z" fill="#8ec3eb"/>
    <path id="Path_19" data-name="Path 19" d="M239.987,144.551h9.77v25.12h-9.77a12.56,12.56,0,1,1,0-25.12Z" fill="#373334"/>
    <path id="Path_20" data-name="Path 20" d="M241.824,191.461l-3.956-21.982,11.505-1.15,7.479,2.3,1.305,18.8a8.242,8.242,0,0,1-16.333,2.03Z" fill="#373334"/>
    <rect id="Rectangle_3" data-name="Rectangle 3" width="15.454" height="3.835" rx="1.918" transform="translate(308.052 143.264) rotate(-36.815)" fill="#373334"/>
    <rect id="Rectangle_4" data-name="Rectangle 4" width="15.454" height="3.835" rx="1.918" transform="translate(309.135 156.903) rotate(-1.786)" fill="#373334"/>
    <rect id="Rectangle_5" data-name="Rectangle 5" width="15.454" height="3.835" rx="1.918" transform="matrix(0.813, 0.582, -0.582, 0.813, 310.282, 169.671)" fill="#373334"/>
    <g id="Group_3" data-name="Group 3" clip-path="url(#clip-path-3)">
      <path id="Path_21" data-name="Path 21" d="M273.744,104.993l2.32-8.474a16.352,16.352,0,1,1,6.35,6.2l-8.67,2.274Zm9.071-5.235a13.556,13.556,0,1,0-3.772-3.667l-1.373,5.016,5.145-1.349Zm15.657-7.513c-.1-.171-.374-.272-.784-.477s-2.417-1.194-2.792-1.33-.646-.2-.92.2-1.056,1.33-1.294,1.6-.477.307-.885.1a11.15,11.15,0,0,1-3.287-2.028,12.307,12.307,0,0,1-2.273-2.831c-.237-.408-.024-.63.179-.833.184-.183.409-.477.613-.716a2.686,2.686,0,0,0,.413-.681.752.752,0,0,0-.034-.716c-.1-.2-.92-2.215-1.26-3.033-.333-.8-.67-.689-.92-.7l-.784-.014a1.5,1.5,0,0,0-1.089.512,4.585,4.585,0,0,0-1.43,3.409,7.955,7.955,0,0,0,1.668,4.227c.205.272,2.881,4.4,6.98,6.17a23.635,23.635,0,0,0,2.329.861,5.616,5.616,0,0,0,2.574.162,4.209,4.209,0,0,0,2.758-1.943,3.406,3.406,0,0,0,.238-1.944Z" fill="#8dc63f"/>
    </g>
    <path id="Path_22" data-name="Path 22" d="M519.485,182.62a18.691,18.691,0,1,0,18.691,18.691A18.692,18.692,0,0,0,519.485,182.62Zm4.673,12.461h-2.1c-.838,0-1.012.344-1.012,1.212v1.9h3.115l-.326,3.115h-2.789v10.9H516.37v-10.9h-3.115V198.2h3.115v-3.6c0-2.755,1.45-4.193,4.718-4.193h3.07Z" fill="#3b589c"/>
    <g id="Group_4" data-name="Group 4" clip-path="url(#clip-path-4)">
      <path id="Path_23" data-name="Path 23" d="M420.332,441.186a24.188,24.188,0,1,0,24.188,24.188A24.189,24.189,0,0,0,420.332,441.186Zm12.227,19.441a16.464,16.464,0,0,1-25.329,14.62,11.648,11.648,0,0,0,8.57-2.4,5.8,5.8,0,0,1-5.41-4.021,5.811,5.811,0,0,0,2.617-.1,5.8,5.8,0,0,1-4.644-5.751,5.765,5.765,0,0,0,2.622.724,5.8,5.8,0,0,1-1.792-7.73,16.434,16.434,0,0,0,11.933,6.049,5.794,5.794,0,0,1,9.867-5.281,11.545,11.545,0,0,0,3.676-1.4,5.813,5.813,0,0,1-2.546,3.2,11.557,11.557,0,0,0,3.324-.913,11.61,11.61,0,0,1-2.888,3Z" fill="#00a2f5"/>
    </g>
    <path id="Path_24" data-name="Path 24" d="M457.648,448.579,330.922,375.664a4.662,4.662,0,0,1,.183-8.2l15.944-8.221a4.721,4.721,0,0,1,4.482.1l130.981,75.371a4.673,4.673,0,0,1-.183,8.208l-11.566,5.948a13.67,13.67,0,0,1-13.115-.3Z" fill="#d6d8e5" opacity="0.4"/>
    <path id="Path_25" data-name="Path 25" d="M465.415,434.853l-108.01-62.3c-9.2-5.251-16.572-19.435-16.572-31.623V39.88c0-12.187,7.425-17.8,16.572-12.516l108.01,62.421c9.2,5.253,16.573,19.437,16.573,31.624V422.415C481.988,434.537,474.56,440.132,465.415,434.853Z" fill="#b1b4c4"/>
    <path id="Path_26" data-name="Path 26" d="M467.269,440.277l8.555-4.321-8.2-14.052Z" fill="#b1b4c4"/>
    <path id="Path_27" data-name="Path 27" d="M339.189,30.424l7.873-4.124-1.591,11.6Z" fill="#b1b4c4"/>
    <path id="Path_28" data-name="Path 28" d="M458.607,438.3l-108-62.3c-9.2-5.253-16.56-19.437-16.56-31.625V43.373c0-12.187,7.412-17.8,16.56-12.516l108,62.3c9.2,5.253,16.56,19.437,16.56,31.624V425.792C475.1,437.98,467.689,443.575,458.607,438.3Z" fill="#616e84"/>
    <path id="Path_29" data-name="Path 29" d="M473.945,125.559V426.54c0,12.2-7.414,17.795-16.562,12.529l-42.345-24.44-13.144-7.59-52.506-30.273c-9.2-5.254-16.559-19.436-16.559-31.636V44.148c0-12.148,7.412-17.8,16.559-12.529l107.995,62.3C466.493,99.2,473.945,113.424,473.945,125.559Z" fill="#20232d"/>
    <path id="Path_30" data-name="Path 30" d="M466.164,122.5V415.654c0,7.379-5.193,10.388-11.594,6.685l-33.763-19.476-2.944-1.721-1-.578-7.295-4.216-21.12-12.162-8.766-5.056-3.523-2.034-24.012-13.8c-6.4-3.692-11.581-12.686-11.581-20.068V50.071c0-7.394,5.18-10.388,11.581-6.7l42.162,24.335v.118A19.976,19.976,0,0,0,403.4,83.442c4.994,2.85,9.044.539,9.044-5.253v-.131l42.162,24.336C460.971,106.123,466.164,115.105,466.164,122.5Z" fill="#fff"/>
    <path id="Path_31" data-name="Path 31" d="M407.422,80.63c1.347-.772,1.354-3.281.018-5.6s-3.507-3.578-4.854-2.806-1.351,3.281-.018,5.6S406.078,81.4,407.422,80.63Z" fill="#2b303f"/>
    <path id="Path_32" data-name="Path 32" d="M403.406,77.873a3.182,3.182,0,0,1-1.446-2.535c0-.92.644-1.313,1.433-.827a3.153,3.153,0,0,1,1.433,2.482C404.826,77.965,404.182,78.333,403.406,77.873Z" fill="#fff" opacity="0.1"/>
    <path id="Path_33" data-name="Path 33" d="M478.32,165.155c-.88.512-1.6,0-1.6-1.208V151.116a3.857,3.857,0,0,1,1.6-3.047c.881-.5,1.591,0,1.591,1.208v12.831a3.815,3.815,0,0,1-1.591,3.047Z" fill="#757b89"/>
    <path id="Path_34" data-name="Path 34" d="M478.32,186.181c-.88.512-1.6,0-1.6-1.2V172.141a3.857,3.857,0,0,1,1.6-3.046c.881-.5,1.591,0,1.591,1.208v12.831a3.793,3.793,0,0,1-1.591,3.047Z" fill="#757b89"/>
    <g id="Group_5" data-name="Group 5">
      <path id="Path_35" data-name="Path 35" d="M281.88,239.689l114.271,63.4a10,10,0,0,1,5.139,9.2L398.9,364.528a10,10,0,0,1-14.572,8.431L282.221,320.3a9.979,9.979,0,0,1-5.416-8.874V242.65C276.8,239.267,280.188,239.267,281.88,239.689Z" fill="#f09e2a"/>
    </g>
    <path id="Path_36" data-name="Path 36" d="M324.377,309.993l-43.212-70.538,117.642,64.593L334.53,314.636A10,10,0,0,1,324.377,309.993Z" fill="#fbbc5f"/>
    <g id="Group_6" data-name="Group 6" clip-path="url(#clip-path-5)">
      <path id="Path_37" data-name="Path 37" d="M273.665,368.229A26.937,26.937,0,1,0,300.6,395.166,26.937,26.937,0,0,0,273.665,368.229Zm9.671,26.475a1.446,1.446,0,0,1,1.414,1.369c0,.725-.622,1.481-1.895,1.582-.781.061-.974.7-.036.912a1.423,1.423,0,0,1,1.233,1.326c0,.7-.627,1.469-2.05,1.731-.859.157-.945,1-.036,1.071.773.058,1.076.328,1.076.7,0,1.046-1.855,2.993-5.446,2.993-5.614,0-7.648-3.365-15.154-3.365V391.88c3.964-.609,7.82-1.834,9.751-8.535.536-1.865.875-3.892,2.664-3.892,2.667,0,2.912,5.751,1.9,9.857a13.54,13.54,0,0,0,5.587.992c1.989-.081,2.55.918,2.55,1.672a1.8,1.8,0,0,1-1.52,1.7c-.682.211-1,.907-.033,1.035Z" fill="#9ec04f"/>
    </g>
    <g id="Group_7" data-name="Group 7" clip-path="url(#clip-path-6)">
      <path id="Path_38" data-name="Path 38" d="M105.289,160.177a94.6,94.6,0,0,1-20.547,0,5.889,5.889,0,0,1-5.174-5.285,100.764,100.764,0,0,1,0-20.984,5.888,5.888,0,0,1,5.174-5.284,94.6,94.6,0,0,1,20.547,0,5.887,5.887,0,0,1,5.175,5.284,100.8,100.8,0,0,1,0,20.984A5.888,5.888,0,0,1,105.289,160.177Z" fill="#fff"/>
      <path id="Path_39" data-name="Path 39" d="M108.724,135.09a5.224,5.224,0,0,0-4.592-4.689,83.937,83.937,0,0,0-18.232,0,5.226,5.226,0,0,0-4.592,4.689,89.444,89.444,0,0,0,0,18.62A5.226,5.226,0,0,0,85.9,158.4a83.937,83.937,0,0,0,18.232,0,5.225,5.225,0,0,0,4.592-4.69,89.416,89.416,0,0,0,0-18.62Z" fill="#fff"/>
      <path id="Path_40" data-name="Path 40" d="M79.5,154.215c.022.226.045.451.068.677a5.889,5.889,0,0,0,5.175,5.285,94.6,94.6,0,0,0,20.547,0,5.888,5.888,0,0,0,5.174-5.285c.024-.226.046-.451.068-.677Z" fill="#fff"/>
      <path id="Path_41" data-name="Path 41" d="M110.119,156.369,89.474,135.285a2.5,2.5,0,0,0-2-1.011,2.549,2.549,0,0,0-2.522,2.576,2.59,2.59,0,0,0,.99,2.045l20.573,21.011a5.885,5.885,0,0,0,3.606-3.537Z" fill="#fff"/>
      <path id="Path_42" data-name="Path 42" d="M89.589,141.114H85.353v13.412l6.011,6.139a94.626,94.626,0,0,0,13.925-.488,5.727,5.727,0,0,0,2.245-.736Z" fill="#fff"/>
      <path id="Path_43" data-name="Path 43" d="M103.977,142.238a4.186,4.186,0,0,0-3.131-1.412,5.883,5.883,0,0,0-3.981,1.357l-.83-1.069h-3.9v13.412l6.029,6.157q3.566-.118,7.129-.506a5.888,5.888,0,0,0,5.175-5.285q.292-2.794.428-5.592Z" fill="#fff"/>
      <path id="Path_44" data-name="Path 44" d="M85.354,141.114H89.59v13.412H85.354Z" fill="#fff"/>
      <path id="Path_45" data-name="Path 45" d="M100.846,140.826a5.469,5.469,0,0,0-4.811,2.3v-2.01h-3.9v13.412h4.236v-6.737c0-1.946.877-3.461,2.542-3.461s1.937,1.885,1.937,4.2v5.995h4.236v-9.374a4.281,4.281,0,0,0-4.236-4.326Z" fill="#fff"/>
      <path id="Path_46" data-name="Path 46" d="M89.993,136.85a2.522,2.522,0,1,1-2.521-2.576A2.549,2.549,0,0,1,89.993,136.85Z" fill="#fff"/>
    </g>
    <path id="Path_47" data-name="Path 47" d="M73.894,371.157c-1.159-.052-1.508-.063-4.443-.063s-3.283.011-4.442.063c-2.982.136-4.372,1.549-4.506,4.506-.054,1.16-.066,1.508-.066,4.443s.012,3.284.065,4.444c.136,2.952,1.52,4.37,4.506,4.506,1.159.052,1.508.065,4.443.065s3.285-.011,4.443-.064c2.982-.136,4.37-1.551,4.506-4.506.052-1.16.063-1.508.063-4.443s-.011-3.283-.063-4.442c-.136-2.959-1.527-4.373-4.506-4.509Zm-4.443,14.6a5.646,5.646,0,1,1,5.646-5.646A5.645,5.645,0,0,1,69.45,385.752Zm5.87-10.2a1.319,1.319,0,1,1,1.319-1.319A1.32,1.32,0,0,1,75.32,375.557Zm-2.2,4.549a3.665,3.665,0,1,1-3.665-3.665A3.665,3.665,0,0,1,73.116,380.106Zm5.955-16.491H59.83a6.872,6.872,0,0,0-6.872,6.871v19.241A6.872,6.872,0,0,0,59.83,396.6H79.071a6.871,6.871,0,0,0,6.872-6.871V370.486a6.871,6.871,0,0,0-6.872-6.871Zm1.308,21.024c-.181,4-2.406,6.213-6.395,6.4-1.174.054-1.548.066-4.534.066s-3.359-.012-4.533-.066c-4-.183-6.212-2.4-6.4-6.4-.054-1.172-.066-1.546-.066-4.533s.012-3.36.066-4.532c.184-4,2.4-6.213,6.4-6.4,1.174-.055,1.546-.067,4.533-.067s3.36.012,4.534.066c4,.183,6.216,2.406,6.395,6.395.054,1.173.066,1.548.066,4.533s-.012,3.361-.066,4.533Z" fill="#f05462"/>
    <path id="Path_48" data-name="Path 48" d="M452.994,128.46l-62.771-29.2a4.343,4.343,0,0,0-3.713,7.851l62.4,29.989a4.781,4.781,0,1,0,4.087-8.644Z" fill="#e3dbdd"/>
    <path id="Path_49" data-name="Path 49" d="M440.9,143.3l-62.771-29.2a4.343,4.343,0,0,0-3.713,7.852l62.4,29.989A4.781,4.781,0,1,0,440.9,143.3Z" fill="#e3dbdd"/>
    <path id="Path_50" data-name="Path 50" d="M416.162,154.3l-62.771-29.2a4.342,4.342,0,0,0-3.713,7.851l62.4,29.989a4.781,4.781,0,1,0,4.087-8.644Z" fill="#e3dbdd"/>
    <ellipse id="Ellipse_2" data-name="Ellipse 2" cx="10.72" cy="15.667" rx="10.72" ry="15.667" transform="translate(352.471 78.391) rotate(0.701)" fill="#373334"/>
    <path id="Path_51" data-name="Path 51" d="M446.831,221.451l-93.455-43.979v72.565l93.455,49.476Z" fill="#e2e2e2"/>
  </g>
</svg>
