<svg xmlns="http://www.w3.org/2000/svg" xmlns:xlink="http://www.w3.org/1999/xlink" width="656.216" height="468.993" viewBox="0 0 656.216 468.993">
  <defs>
    <filter id="Path_853" x="556.592" y="116.097" width="99.624" height="90.965" filterUnits="userSpaceOnUse">
      <feOffset dy="3" input="SourceAlpha"/>
      <feGaussianBlur stdDeviation="3" result="blur"/>
      <feFlood flood-opacity="0.102"/>
      <feComposite operator="in" in2="blur"/>
      <feComposite in="SourceGraphic"/>
    </filter>
    <filter id="Rectangle_218" x="155.083" y="122.383" width="386.838" height="302.324" filterUnits="userSpaceOnUse">
      <feOffset dy="10" input="SourceAlpha"/>
      <feGaussianBlur stdDeviation="5" result="blur-2"/>
      <feFlood flood-opacity="0.102"/>
      <feComposite operator="in" in2="blur-2"/>
      <feComposite in="SourceGraphic"/>
    </filter>
    <filter id="Path_905" x="511.624" y="0" width="116.187" height="113.303" filterUnits="userSpaceOnUse">
      <feOffset dy="3" input="SourceAlpha"/>
      <feGaussianBlur stdDeviation="3" result="blur-3"/>
      <feFlood flood-opacity="0.102"/>
      <feComposite operator="in" in2="blur-3"/>
      <feComposite in="SourceGraphic"/>
    </filter>
    <filter id="Path_905-2" x="67.571" y="108" width="84.063" height="85.034" filterUnits="userSpaceOnUse">
      <feOffset dy="3" input="SourceAlpha"/>
      <feGaussianBlur stdDeviation="3" result="blur-4"/>
      <feFlood flood-opacity="0.102"/>
      <feComposite operator="in" in2="blur-4"/>
      <feComposite in="SourceGraphic"/>
    </filter>
    <filter id="Path_905-3" x="414.624" y="30.907" width="82.265" height="83.29" filterUnits="userSpaceOnUse">
      <feOffset dy="3" input="SourceAlpha"/>
      <feGaussianBlur stdDeviation="3" result="blur-5"/>
      <feFlood flood-opacity="0.102"/>
      <feComposite operator="in" in2="blur-5"/>
      <feComposite in="SourceGraphic"/>
    </filter>
    <filter id="Path_906" x="136.634" y="0" width="119.016" height="118.962" filterUnits="userSpaceOnUse">
      <feOffset dy="3" input="SourceAlpha"/>
      <feGaussianBlur stdDeviation="3" result="blur-6"/>
      <feFlood flood-opacity="0.102"/>
      <feComposite operator="in" in2="blur-6"/>
      <feComposite in="SourceGraphic"/>
    </filter>
    <filter id="Ellipse_6" x="0" y="256.432" width="95.291" height="95.291" filterUnits="userSpaceOnUse">
      <feOffset dy="3" input="SourceAlpha"/>
      <feGaussianBlur stdDeviation="3" result="blur-7"/>
      <feFlood flood-opacity="0.102"/>
      <feComposite operator="in" in2="blur-7"/>
      <feComposite in="SourceGraphic"/>
    </filter>
  </defs>
  <g id="banner" transform="translate(95.732 -50.391)">
    <g id="Group_234" data-name="Group 234" transform="translate(-22.107 172.488)">
      <g transform="matrix(1, 0, 0, 1, -73.62, -122.1)" filter="url(#Path_853)">
        <path id="Path_853-2" data-name="Path 853" d="M74.822,809.039,3.083,825.77a3.936,3.936,0,0,0-.9,7.365l20.374,10.253,2.083,20.57a3.95,3.95,0,0,0,2.98,3.429,4,4,0,0,0,4.274-1.6l.618-.625-4.121-15.7a5.342,5.342,0,0,1,2.633-5.056l17.7-10.389L34.58,847.558a3.933,3.933,0,0,0-1.111,3.725L39.921,878.9a3.992,3.992,0,0,0,7.431.9l33.7-65.233a3.876,3.876,0,0,0,.4-.769,4.932,4.932,0,0,0-.269-3.27q-.745-1.777-6.357-1.491Z" transform="translate(565.59 -686.9)" fill="#0096ff" fill-rule="evenodd" opacity="0.3"/>
      </g>
      <path id="Path_854" data-name="Path 854" d="M291.575,896.782c-1.15,6.209-13.243,20.114-17.264,23.736-24.314,21.9-28.018,30.574-57.462,33.183-7.729.685-33.346,6.259-45.05-2.965-1.4-1.105-2.991-2.34-3.506-4.05-7-23.226,44.569-38.947,35.881-5.392-.869,3.36-3.727,5.923-6.2,8.363A34.78,34.78,0,0,1,188.8,956.4a61.325,61.325,0,0,1-14.566,4.585,234.036,234.036,0,0,1-23.741,2.965c-6.635.614-13.3.956-19.963,1.079-12.856.237-25.72.321-38.573,0a23.1,23.1,0,0,1-4.59-1.079" transform="translate(218.91 -833.373)" fill="none" stroke="#0096ff" stroke-linecap="round" stroke-linejoin="round" stroke-width="4" stroke-dasharray="8 8" fill-rule="evenodd" opacity="0.3"/>
      <path id="Path_904" data-name="Path 904" d="M291.575,896.782c-1.15,6.209-13.243,20.114-17.264,23.736-24.314,21.9-28.018,30.574-57.462,33.183-7.729.685-33.346,6.259-45.05-2.965-1.4-1.105-2.991-2.34-3.506-4.05-7-23.226,44.569-38.947,35.881-5.392-.869,3.36-3.727,5.923-6.2,8.363A34.78,34.78,0,0,1,188.8,956.4a61.325,61.325,0,0,1-14.566,4.585,234.036,234.036,0,0,1-23.741,2.965c-6.635.614-13.3.956-19.963,1.079-12.856.237-25.72.321-38.573,0a23.1,23.1,0,0,1-4.59-1.079" transform="translate(-87.364 -776.307)" fill="none" stroke="#0096ff" stroke-linecap="round" stroke-linejoin="round" stroke-width="4" stroke-dasharray="8 8" fill-rule="evenodd" opacity="0.3"/>
    </g>
    <g transform="matrix(1, 0, 0, 1, -95.73, 50.39)" filter="url(#Rectangle_218)">
      <rect id="Rectangle_218-2" data-name="Rectangle 218" width="356.838" height="272.324" rx="20" transform="translate(170.08 127.38)" fill="#fff"/>
    </g>
    <g id="OBJECTS" transform="translate(20.342 93.26)">
      <g id="Group_176" data-name="Group 176" transform="translate(58.212 89.144)">
        <rect id="Rectangle_203" data-name="Rectangle 203" width="348.571" height="240.56" transform="translate(0 21.1)" fill="#fff"/>
        <g id="Group_172" data-name="Group 172" transform="translate(21.959 61.903)">
          <path id="Path_543" data-name="Path 543" d="M153.865,229.8H129.487a3.034,3.034,0,0,0-3.036,3.037v.469a3.034,3.034,0,0,0,3.036,3.037h24.379a3.034,3.034,0,0,0,3.037-3.037v-.469A3.034,3.034,0,0,0,153.865,229.8Z" transform="translate(-126.45 -229.8)" fill="#e5e5e5"/>
          <path id="Path_544" data-name="Path 544" d="M190.885,229.8H166.507a3.034,3.034,0,0,0-3.037,3.037v.469a3.034,3.034,0,0,0,3.037,3.037h24.379a3.034,3.034,0,0,0,3.037-3.037v-.469A3.026,3.026,0,0,0,190.885,229.8Z" transform="translate(-117.774 -229.8)" fill="#e5e5e5"/>
          <path id="Path_545" data-name="Path 545" d="M227.915,229.8H203.537a3.034,3.034,0,0,0-3.037,3.037v.469a3.034,3.034,0,0,0,3.037,3.037h24.379a3.034,3.034,0,0,0,3.037-3.037v-.469A3.034,3.034,0,0,0,227.915,229.8Z" transform="translate(-109.096 -229.8)" fill="#e5e5e5"/>
          <path id="Path_546" data-name="Path 546" d="M264.935,229.8H240.557a3.034,3.034,0,0,0-3.037,3.037v.469a3.034,3.034,0,0,0,3.037,3.037h24.379a3.034,3.034,0,0,0,3.037-3.037v-.469A3.034,3.034,0,0,0,264.935,229.8Z" transform="translate(-100.42 -229.8)" fill="#e5e5e5"/>
          <path id="Path_547" data-name="Path 547" d="M301.955,229.8H277.577a3.034,3.034,0,0,0-3.037,3.037v.469a3.034,3.034,0,0,0,3.037,3.037h24.379a3.034,3.034,0,0,0,3.037-3.037v-.469A3.034,3.034,0,0,0,301.955,229.8Z" transform="translate(-91.744 -229.8)" fill="#e5e5e5"/>
          <path id="Path_548" data-name="Path 548" d="M338.975,229.8H314.6a3.034,3.034,0,0,0-3.037,3.037v.469a3.034,3.034,0,0,0,3.037,3.037h24.379a3.034,3.034,0,0,0,3.037-3.037v-.469A3.019,3.019,0,0,0,338.975,229.8Z" transform="translate(-83.068 -229.8)" fill="#e5e5e5"/>
          <path id="Path_549" data-name="Path 549" d="M376.005,229.8H351.626a3.034,3.034,0,0,0-3.037,3.037v.469a3.034,3.034,0,0,0,3.037,3.037h24.379a3.034,3.034,0,0,0,3.036-3.037v-.469A3.034,3.034,0,0,0,376.005,229.8Z" transform="translate(-74.389 -229.8)" fill="#e5e5e5" stroke="#98abef" stroke-miterlimit="10" stroke-width="0.25"/>
        </g>
        <path id="Rectangle_204" data-name="Rectangle 204" d="M20,0H328.571a20,20,0,0,1,20,20V37.762a0,0,0,0,1,0,0H0a0,0,0,0,1,0,0V20A20,20,0,0,1,20,0Z" transform="translate(0)" fill="#f5f5f5"/>
        <g id="Group_173" data-name="Group 173" transform="translate(61.434 76.543)">
          <line id="Line_32" data-name="Line 32" y2="174.798" fill="none" stroke="#e4e4e4" stroke-miterlimit="10" stroke-width="0.5"/>
          <line id="Line_33" data-name="Line 33" y2="174.798" transform="translate(45.141)" fill="none" stroke="#e4e4e4" stroke-miterlimit="10" stroke-width="0.5"/>
          <line id="Line_34" data-name="Line 34" y2="174.798" transform="translate(90.281)" fill="none" stroke="#e4e4e4" stroke-miterlimit="10" stroke-width="0.5"/>
          <line id="Line_35" data-name="Line 35" y2="174.798" transform="translate(135.422)" fill="none" stroke="#e4e4e4" stroke-miterlimit="10" stroke-width="0.5"/>
          <line id="Line_36" data-name="Line 36" y2="174.798" transform="translate(180.562 2.271)" fill="none" stroke="#e4e4e4" stroke-miterlimit="10" stroke-width="0.5"/>
          <line id="Line_37" data-name="Line 37" y2="174.798" transform="translate(225.69 2.271)" fill="none" stroke="#e4e4e4" stroke-miterlimit="10" stroke-width="0.5"/>
        </g>
        <g id="Group_174" data-name="Group 174" transform="translate(16.269 110.784)">
          <line id="Line_38" data-name="Line 38" x1="316.033" fill="none" stroke="#e4e4e4" stroke-miterlimit="10" stroke-width="0.5"/>
          <line id="Line_39" data-name="Line 39" x1="316.033" transform="translate(0 36.191)" fill="none" stroke="#e4e4e4" stroke-miterlimit="10" stroke-width="0.5"/>
          <line id="Line_40" data-name="Line 40" x1="316.033" transform="translate(0 72.383)" fill="none" stroke="#e4e4e4" stroke-miterlimit="10" stroke-width="0.5"/>
          <line id="Line_41" data-name="Line 41" x1="316.033" transform="translate(0 108.574)" fill="none" stroke="#e4e4e4" stroke-miterlimit="10" stroke-width="0.5"/>
        </g>
        <g id="Group_175" data-name="Group 175" transform="translate(193.578 99.461)">
          <path id="Path_557" data-name="Path 557" d="M268.9,304.156c8.69,12.208,24.613,17.392,36.636,6.974,11.9-10.295,9.393-29.118.123-40.388-23.366-28.452-61.681,25.169-31.254,42.116a1.341,1.341,0,0,0,1.555-2.135,25.722,25.722,0,0,1-2.839-32.118c7.1-10.714,21.157-15.479,29.921-4.061,7.147,9.307,9.554,24.564-.037,33.118-10.06,8.974-24.268,4.777-32.081-5.172-.913-1.185-2.913.42-2.024,1.666Z" transform="translate(-263.144 -262.568)" fill="#ffc800"/>
        </g>
      </g>
      <g id="Group_185" data-name="Group 185" transform="translate(66.454 226.398)">
        <path id="Path_568" data-name="Path 568" d="M161.97,432.313l-4.863.432L134.74,447.433l17.182-23.4,10.566,3.3Z" transform="translate(-110.79 -259.632)" fill="#100c82"/>
        <path id="Path_569" data-name="Path 569" d="M218.246,411.274s.642-9.616-14.2-11.282-31.871,2.024-31.871,2.024l7.53,14.751Z" transform="translate(-102.015 -265.366)" fill="#4e69d1"/>
        <path id="Path_570" data-name="Path 570" d="M169.482,440.806l-5.394.469-24.8,16.306,19.046-25.971,11.726,3.666Z" transform="translate(-109.724 -257.855)" fill="#100c82"/>
        <path id="Path_571" data-name="Path 571" d="M176.9,390.652l12.368,21.379s39.142-7.752,48.77,3.222S236.12,444.1,207.508,449.1s-41.117,6.246-41.117,6.246l-2.061-10.48s-28.452,2.6-17.775-54.645C146.555,390.232,155.875,395.466,176.9,390.652Z" transform="translate(-108.583 -267.555)" fill="#6c88ef"/>
        <path id="Path_572" data-name="Path 572" d="M221.391,425.53s-29,11.837-60.73,11.8" transform="translate(-104.715 -259.28)" fill="none" stroke="#4e69d1" stroke-miterlimit="10" stroke-width="0.5"/>
        <path id="Path_573" data-name="Path 573" d="M179.128,328.223a50.229,50.229,0,0,1-2.506,5.209l.025,5.271-4.7.086-1.062-6.554s.185-7.863-.012-12.726c-.111-2.7,5.6-6.579,9.048-8,2.049-.839-.667,3.493-3.851,5.888A59.724,59.724,0,0,0,179.128,328.223Z" transform="translate(-102.323 -286.027)" fill="#ff979c"/>
        <path id="Path_574" data-name="Path 574" d="M212.514,330.014a51.637,51.637,0,0,0,3.185,4.826l.679,5.234,4.666-.543.173-6.641s-1.234-7.777-1.691-12.615c-.259-2.691-6.431-5.777-10.035-6.715-2.148-.555,1.136,3.37,4.616,5.32A59.482,59.482,0,0,1,212.514,330.014Z" transform="translate(-93.432 -285.534)" fill="#ff979c"/>
        <g id="Group_178" data-name="Group 178" transform="translate(72.671 0)">
          <rect id="Rectangle_207" data-name="Rectangle 207" width="48.399" height="40.487" rx="6" transform="translate(2.672 4.991) rotate(3.784)" fill="#fff"/>
          <g id="_1659585834448" transform="matrix(0.998, 0.07, -0.07, 0.998, 3.749, 0)">
            <rect id="Rectangle_221" data-name="Rectangle 221" width="44.72" height="27.329" transform="translate(1.898 19.122)" fill="#fff"/>
            <path id="Path_840" data-name="Path 840" d="M43.866,5.636h-1.41V4.227a4.227,4.227,0,1,0-8.453,0V5.636H14.089V4.227a4.227,4.227,0,1,0-8.453,0V5.636H4.227A4.231,4.231,0,0,0,0,9.863v34a4.231,4.231,0,0,0,4.227,4.226H43.866a4.231,4.231,0,0,0,4.226-4.226v-34A4.231,4.231,0,0,0,43.866,5.636ZM36.821,4.227a1.409,1.409,0,1,1,2.818,0V9.863a1.409,1.409,0,1,1-2.818,0Zm-28.367,0a1.409,1.409,0,0,1,2.818,0V9.863a1.409,1.409,0,0,1-2.818,0Zm36.82,39.639a1.41,1.41,0,0,1-1.408,1.409H4.227a1.411,1.411,0,0,1-1.409-1.409V19.913H45.274Zm0-26.77H2.818V9.863A1.41,1.41,0,0,1,4.227,8.454H5.636V9.863a4.227,4.227,0,1,0,8.453,0V8.454H34V9.863a4.227,4.227,0,1,0,8.453,0V8.454h1.41a1.41,1.41,0,0,1,1.408,1.409Z" transform="translate(0 0)" fill-rule="evenodd"/>
            <path id="Path_841" data-name="Path 841" d="M7.044,0H1.408A1.409,1.409,0,0,0,0,1.409V7.045A1.409,1.409,0,0,0,1.408,8.454H7.044A1.409,1.409,0,0,0,8.453,7.045V1.409A1.409,1.409,0,0,0,7.044,0ZM5.635,5.636H2.817V2.818H5.635Z" transform="translate(8.548 22.731)" fill-rule="evenodd"/>
            <path id="Path_842" data-name="Path 842" d="M7.044,0H1.408A1.409,1.409,0,0,0,0,1.409V7.045A1.409,1.409,0,0,0,1.408,8.454H7.044A1.409,1.409,0,0,0,8.453,7.045V1.409A1.409,1.409,0,0,0,7.044,0ZM5.635,5.636H2.817V2.818H5.635Z" transform="translate(8.548 34.003)" fill-rule="evenodd"/>
            <path id="Path_843" data-name="Path 843" d="M7.045,0H1.409A1.409,1.409,0,0,0,0,1.409V7.045A1.409,1.409,0,0,0,1.409,8.454H7.045A1.409,1.409,0,0,0,8.454,7.045V1.409A1.409,1.409,0,0,0,7.045,0ZM5.636,5.636H2.818V2.818H5.636Z" transform="translate(19.819 34.003)" fill-rule="evenodd"/>
            <path id="Path_844" data-name="Path 844" d="M7.045,0H1.409A1.41,1.41,0,0,0,0,1.409V7.045A1.409,1.409,0,0,0,1.409,8.454H7.045A1.409,1.409,0,0,0,8.454,7.045V1.409A1.409,1.409,0,0,0,7.045,0ZM5.636,5.636H2.818V2.818H5.636Z" transform="translate(19.819 22.731)" fill-rule="evenodd"/>
            <path id="Path_845" data-name="Path 845" d="M7.045,0H1.409A1.409,1.409,0,0,0,0,1.409V7.045A1.409,1.409,0,0,0,1.409,8.454H7.045A1.409,1.409,0,0,0,8.454,7.045V1.409A1.41,1.41,0,0,0,7.045,0ZM5.636,5.636H2.818V2.818H5.636Z" transform="translate(31.091 22.731)" fill-rule="evenodd"/>
            <path id="Path_846" data-name="Path 846" d="M7.045,0H1.409A1.409,1.409,0,0,0,0,1.409V7.045A1.409,1.409,0,0,0,1.409,8.454H7.045A1.41,1.41,0,0,0,8.454,7.045V1.409A1.409,1.409,0,0,0,7.045,0ZM5.636,5.636H2.818V2.818H5.636Z" transform="translate(31.091 34.003)" fill-rule="evenodd"/>
            <rect id="Rectangle_222" data-name="Rectangle 222" width="3.837" height="3.837" transform="translate(10.881 25.079)" fill="#fff"/>
            <rect id="Rectangle_223" data-name="Rectangle 223" width="3.837" height="3.837" transform="translate(10.881 36.304)" fill="#fff"/>
            <rect id="Rectangle_224" data-name="Rectangle 224" width="3.837" height="3.837" transform="translate(22.15 25.079)" fill="#fff"/>
            <rect id="Rectangle_225" data-name="Rectangle 225" width="3.837" height="3.837" transform="translate(22.15 36.304)" fill="#1f98f9"/>
            <rect id="Rectangle_226" data-name="Rectangle 226" width="3.837" height="3.837" transform="translate(33.419 25.079)" fill="#1f98f9"/>
            <rect id="Rectangle_227" data-name="Rectangle 227" width="3.837" height="3.837" transform="translate(33.419 36.304)" fill="#fff"/>
          </g>
        </g>
        <path id="Path_584" data-name="Path 584" d="M216.083,333.683s-4.555-9.418-7.11-12.887.432-3.95,3.543-1.234c3.851,3.357,5.987,2.382,5.987,2.382l.1,5.814Z" transform="translate(-93.619 -284.524)" fill="#ff979c"/>
        <path id="Path_585" data-name="Path 585" d="M176.395,333.18s3.246-9.937,5.308-13.726-.963-3.851-3.666-.753c-3.37,3.851-5.616,3.16-5.616,3.16l.691,5.777Z" transform="translate(-101.959 -284.836)" fill="#ff979c"/>
        <path id="Path_586" data-name="Path 586" d="M180.616,329.61s3.666,20.836-12.615,27.02l-8.431-9c8.344-4.505,10.714-10.64,11.652-17.244Z" transform="translate(-104.971 -281.76)" fill="#451fad"/>
        <g id="Group_179" data-name="Group 179" transform="translate(0 4.733)">
          <path id="Path_587" data-name="Path 587" d="M136.152,306.95c-4.505-1.024-9.27.988-10.615,6.036-1.2,4.518,1.1,9.443.469,14.121-.568,4.16-3.308,7.357-5.789,10.418s-4.987,6.666-4.876,10.887c.111,3.863,2.74,7.468,6.011,8.245.975.235,2,.235,2.962.518,3.95,1.185,5.777,6.554,6.036,11.257s-.383,9.628,1.234,13.973a15.2,15.2,0,0,0,16.713,9.418c7.332-1.444,13.047-8.517,20.342-10.171,2.469-.556,5.024-.469,7.517-.864a9.847,9.847,0,0,0,6.678-3.592c1.629-2.222,2.049-5.32,3.394-7.789,1.777-3.259,4.987-5.123,6.974-8.221a13.843,13.843,0,0,0,1.037-12.158c-1.95-4.863-6.641-8.221-7.233-13.529-.395-3.431,1.086-6.7,2.049-9.961a28.772,28.772,0,0,0,.3-15.9c-1.481-5.135-5.407-12.973-15.318-14.627-6.221-1.037-13.492,1.926-24.835-.123-7.394-1.333-10.949,3.765-13.047,12.06" transform="translate(-115.337 -294.679)" fill="#334052"/>
        </g>
        <path id="Path_588" data-name="Path 588" d="M163.249,357.7s-3.839-4.407-3.271-16.639c0,0,9.023-2.024,9.381-9.1.259-5.11-.654-12.936-2.123-19.725,0,0-.235-3.95-5.9-5.518s-18.873.025-19.824,4.974.8,13.1.8,13.1a5.949,5.949,0,0,0-7.11-1.74c-4.382,1.9.852,16.244,8.085,9.27,0,0,6.863,19.737.691,21.132,0,0,2.234,11.813,15.183,9.245S163.249,357.7,163.249,357.7Z" transform="translate(-111.057 -287.261)" fill="#ff979c"/>
        <path id="Path_589" data-name="Path 589" d="M155.49,317.16a10.643,10.643,0,0,0,2.21,4.061c1.185,1.321.963,2.382-1.173,3.567" transform="translate(-105.927 -284.678)" fill="none" stroke="#eb5772" stroke-linecap="round" stroke-miterlimit="10" stroke-width="0.4"/>
        <g id="Group_180" data-name="Group 180" transform="translate(43.073 32.244)">
          <path id="Path_590" data-name="Path 590" d="M151.069,317.008c.469.148.617.815.679,1.271a5.92,5.92,0,0,1,.074,1.679.669.669,0,0,1-1.3.173c-.235-.6-.728-3.543.543-3.123Z" transform="translate(-150.232 -316.967)" fill="#334052"/>
        </g>
        <g id="Group_181" data-name="Group 181" transform="translate(51.427 31.097)">
          <path id="Path_591" data-name="Path 591" d="M157.691,316.053c.543.136.691.667.815,1.2a5.814,5.814,0,0,1,.185,1.777.668.668,0,0,1-1.3.173,5.632,5.632,0,0,1-.4-1.913c0-.42.074-1.383.691-1.234Z" transform="translate(-157 -316.037)" fill="#334052"/>
        </g>
        <path id="Path_592" data-name="Path 592" d="M135.71,321.874s3.592-1.049,5.555,4.678" transform="translate(-110.563 -283.59)" fill="none" stroke="#eb5772" stroke-linecap="round" stroke-miterlimit="10" stroke-width="0.4"/>
        <path id="Path_593" data-name="Path 593" d="M136.07,324.571a4.183,4.183,0,0,1,3.715-1.234" transform="translate(-110.478 -283.238)" fill="none" stroke="#eb5772" stroke-linecap="round" stroke-miterlimit="10" stroke-width="0.4"/>
        <path id="Path_594" data-name="Path 594" d="M156.768,326.6a11.321,11.321,0,0,1-6.258-2.6" transform="translate(-107.094 -283.075)" fill="none" stroke="#eb5772" stroke-linecap="round" stroke-miterlimit="10" stroke-width="0.4"/>
        <g id="Group_182" data-name="Group 182" transform="translate(38.83 26.323)">
          <path id="Path_595" data-name="Path 595" d="M147.517,315.466a5.274,5.274,0,0,1,4.715-1.1.869.869,0,0,0,.667-1.58,4.084,4.084,0,0,0-6.085,2.259.423.423,0,0,0,.7.42Z" transform="translate(-146.795 -312.17)" fill="#334052"/>
        </g>
        <g id="Group_183" data-name="Group 183" transform="translate(49.295 25.519)">
          <path id="Path_596" data-name="Path 596" d="M159.738,313.261c-.4-1.9-2.975-2.284-4.234-.963a.87.87,0,0,0,.839,1.444,4.634,4.634,0,0,1,2.864.037.43.43,0,0,0,.531-.518Z" transform="translate(-155.273 -311.519)" fill="#334052"/>
        </g>
        <g id="Group_184" data-name="Group 184" transform="translate(29.097 13.387)">
          <path id="Path_597" data-name="Path 597" d="M168.387,301.69c.346,2.419-2.148,6.493-4.444,7.32-4.8,1.74-10.221-1.259-14.763,1.061a11.871,11.871,0,0,0-6.32,10.751c.086,2.493.975,5.1.062,7.431a18.91,18.91,0,0,1-4.012-7l1.333-17.54Z" transform="translate(-138.91 -301.69)" fill="#334052"/>
        </g>
        <path id="Path_598" data-name="Path 598" d="M182.006,369.389a135.24,135.24,0,0,1-2.839,32.945s-19.6,7.579-30.341-.42c0,0-11.368-20.083-13.8-36.438C131.928,344.578,140.9,319.62,182.006,369.389Z" transform="translate(-110.854 -279.237)" fill="#0096ff"/>
        <path id="Path_599" data-name="Path 599" d="M145.893,340.391a40.948,40.948,0,0,0,13.455,1.136c7.554-.6,15.886.543,24.193,8.6s12.084,10.517,24.206,9.529c9.369-.765,19.342-10.788,23.613-28.44l8.924.593s-3.123,68.087-66.532,41.129c0,0-31.587,5.7-35.327,2.148S128.094,339,145.893,340.391Z" transform="translate(-110.945 -281.382)" fill="#0096ff"/>
      </g>
      <g id="Group_193" data-name="Group 193" transform="translate(165.183)">
        <g id="Group_186" data-name="Group 186" transform="translate(43.354)">
          <path id="Path_600" data-name="Path 600" d="M249.5,145.929a16,16,0,0,1-15.553-2.814,9.924,9.924,0,0,1-3.308-4.9,5.718,5.718,0,0,1,1.419-5.542c1.494-1.37,3.814-1.691,5.036-3.308,1.531-2.024.58-4.863.2-7.369-.444-2.987.506-6.666,3.37-7.628,1.913-.642,4.086.148,5.987-.531s2.987-2.567,4.271-4.11,3.382-2.9,5.184-2.012a11.82,11.82,0,0,1,1.975,1.642c2.481,1.987,6.085,1.037,9.2.333s7.122-.679,8.566,2.16c1.74,3.432-1.963,8.11.3,11.22a10.444,10.444,0,0,0,2.358,1.975c3.185,2.382,4.888,7.184,2.679,10.492-2.753,4.123-9.2,3.493-13.047,6.629" transform="translate(-230.443 -107.431)" fill="#100c82"/>
        </g>
        <path id="Path_601" data-name="Path 601" d="M264.031,167.8s-2.284-1.913-2.024-9.826c0,0,6.888,0,8.283-4.974s1.407-16.442,1.271-23.453c0,0,.543-3.95-4.765-6.628s-18.688-3.691-20.6,1.024-1.79,13.134-1.79,13.134a6,6,0,0,0-6.69-3.123c-4.715,1.025-2.358,16.257,6.184,10.776,0,0,2.3,20.293-4.073,20.453,0,0,.494,12.739,13.825,12.739S264.031,167.8,264.031,167.8Z" transform="translate(-185.946 -104.331)" fill="#ff979c"/>
        <path id="Path_602" data-name="Path 602" d="M258.051,134.92a10.668,10.668,0,0,0,1.382,4.456c.913,1.543.481,2.555-1.864,3.308" transform="translate(-180.732 -100.989)" fill="none" stroke="#eb5772" stroke-linecap="round" stroke-miterlimit="10" stroke-width="0.4"/>
        <g id="Group_187" data-name="Group 187" transform="translate(70.569 32.53)">
          <path id="Path_603" data-name="Path 603" d="M253.675,133.878c.432.247.444.926.42,1.395a5.82,5.82,0,0,1-.259,1.679.669.669,0,0,1-1.308-.074c-.111-.654-.025-3.654,1.148-3Z" transform="translate(-252.491 -133.785)" fill="#4a31b2"/>
        </g>
        <g id="Group_188" data-name="Group 188" transform="translate(79.131 33.031)">
          <path id="Path_604" data-name="Path 604" d="M260.406,134.239c.506.235.555.8.58,1.345a5.769,5.769,0,0,1-.16,1.79.67.67,0,0,1-1.308-.074,5.891,5.891,0,0,1-.012-1.975c.062-.407.321-1.358.9-1.086Z" transform="translate(-259.427 -134.191)" fill="#4a31b2"/>
        </g>
        <path id="Path_605" data-name="Path 605" d="M237.67,133.591s3.765-.321,4.579,5.727" transform="translate(-185.395 -101.301)" fill="none" stroke="#eb5772" stroke-linecap="round" stroke-miterlimit="10" stroke-width="0.4"/>
        <path id="Path_606" data-name="Path 606" d="M237.54,136.241a4.251,4.251,0,0,1,3.925-.494" transform="translate(-185.426 -100.853)" fill="none" stroke="#eb5772" stroke-linecap="round" stroke-miterlimit="10" stroke-width="0.4"/>
        <g id="Group_189" data-name="Group 189" transform="translate(66.01 24.123)">
          <path id="Path_607" data-name="Path 607" d="M255.627,129.783c.432-1.518-1.234-2.6-2.53-2.777a4.447,4.447,0,0,0-4.209,2.3.711.711,0,0,0,.6,1.062c1.037-.1,2.049-.42,3.086-.457a13.922,13.922,0,0,1,2.345.407.715.715,0,0,0,.7-.531Z" transform="translate(-248.797 -126.974)" fill="#100c82"/>
        </g>
        <g id="Group_190" data-name="Group 190" transform="translate(78.447 25.486)">
          <path id="Path_608" data-name="Path 608" d="M259.252,130.327a8.634,8.634,0,0,0,1.271.284,6.24,6.24,0,0,0,1.666.531c-.173-.049-.358-.1-.531-.148.469.21,1.345.938,1.74.235a1.332,1.332,0,0,0-.062-1.062,3.006,3.006,0,0,0-.667-1.308,2.426,2.426,0,0,0-2.888-.506c-.506.284-1.432,1.543-.531,1.975Z" transform="translate(-258.873 -128.079)" fill="#100c82"/>
        </g>
        <g id="Group_191" data-name="Group 191" transform="translate(56.475 11.639)">
          <path id="Path_609" data-name="Path 609" d="M242.02,134.326a10.33,10.33,0,0,0,1.494,4.024c3.049-2.962.432-9,3.518-11.912a6.424,6.424,0,0,1,4.283-1.432c3-.086,5.937.778,8.937,1s6.32-.358,8.233-2.679a2.282,2.282,0,0,0,.593-2.21,2.668,2.668,0,0,0-1.222-1.136,24.147,24.147,0,0,0-14.825-2.938,16.194,16.194,0,0,0-5.777,1.753,12.621,12.621,0,0,0-4.95,16.219" transform="translate(-241.073 -116.861)" fill="#100c82"/>
        </g>
        <g id="Group_192" data-name="Group 192" transform="translate(67.955 40.932)">
          <path id="Path_610" data-name="Path 610" d="M255.192,141.565c-1.432-1.16-2.444-1.1-3.271-.753a3.2,3.2,0,0,0-1.247,4.135,6.2,6.2,0,0,0,5.2,3.691,4.826,4.826,0,0,0,4.542-2.247c.7-1.222.309-2.888-1.247-3.086C256.279,142.947,256.637,142.725,255.192,141.565Z" transform="translate(-250.37 -140.592)" fill="#5b0c24"/>
          <path id="Path_611" data-name="Path 611" d="M255.714,148.35a5.843,5.843,0,0,1-5.036-3.567,3.391,3.391,0,0,1,.062-2.962c5.6.716,6.542,6.209,6.579,6.406A8.623,8.623,0,0,1,255.714,148.35Z" transform="translate(-250.373 -140.304)" fill="#d3196a"/>
        </g>
        <path id="Path_612" data-name="Path 612" d="M276.046,160.222l3.765-3.432s-4.74.16-10.628,0c-2.8-.074-6.505.309-5.789-5.9l-7.789.667-10.739,4.468a5.345,5.345,0,0,1-3.654,2.074c-2.234.111-9.319,0-11.615,2.185s15.812,12.973,26.6,12.973S276.046,160.222,276.046,160.222Z" transform="translate(-187.334 -97.246)" fill="#ff979c"/>
        <path id="Path_613" data-name="Path 613" d="M237.4,158.119l-2.58.765s-23.218,8.06-35.488,29.983,5.369,55.275,29.081,63.779l5.172-6.246s-20.021-16.812-16.911-38.895,22.243-26.662,22.243-26.662h56.916l6.209-21.429L287.81,155.65,263.037,169.7Z" transform="translate(-195.32 -96.131)" fill="#ffc800"/>
        <path id="Path_614" data-name="Path 614" d="M249.428,172.1s-5.653.543-9.616,1.259c-2.432.432-5.653,3.1-6.517,4.407s5.666-.654,8.5-2.395S247.675,175.149,249.428,172.1Z" transform="translate(-186.439 -92.276)" fill="#f0767b"/>
        <path id="Path_615" data-name="Path 615" d="M261.883,172.821s-8.171-.765-12.208-.988-8,1.407-16.466,5.777c0,0-2.259,1.814,2.21,1.259a35.34,35.34,0,0,0,7.715-1.8,6.5,6.5,0,0,0,5.851.592s8.221,2.123,11.492-.815l3.7-.222-.321-3.814h-1.975Z" transform="translate(-186.575 -92.343)" fill="#ff979c"/>
        <path id="Path_616" data-name="Path 616" d="M270.24,155.67s41.808,5.345,57.077,21.046c0,0,4.579,4.8-12.652,5.234s-36.414-1.086-36.414-1.086l1.963-8.727Z" transform="translate(-177.762 -96.126)" fill="#ffc800"/>
        <path id="Path_617" data-name="Path 617" d="M255.36,178.525v-6.234s33.143-5.826,54.954-4.777,32.711,13.1,5.012,12.677S255.36,178.525,255.36,178.525Z" transform="translate(-181.25 -93.38)" fill="#f2ac3a"/>
        <path id="Path_618" data-name="Path 618" d="M222.12,235.414s.889,6.061,3.3,9.628,4.012,3.394,5.086,1.876c0,0,2.407.358,2.938-1.777a2.16,2.16,0,0,0,2.234-2.135s3.74,4.814,6.246,7.493,4.012.975,1.876-2.592-6.505-10.7-6.505-10.7,2.135-4.283-.173-6.246-9.813-1.777-9.813-1.777Z" transform="translate(-189.04 -78.899)" fill="#ff979c"/>
        <path id="Path_619" data-name="Path 619" d="M232.16,232.71c1.432,1.6,2.642,3.246,2.642,3.246" transform="translate(-186.687 -78.071)" fill="none" stroke="#eb5772" stroke-linecap="round" stroke-miterlimit="10" stroke-width="0.4"/>
        <path id="Path_620" data-name="Path 620" d="M235.886,156.69s20.058,15.726,35.068-1.123c0,0,3.061-1.839,9.344.148,0,0-4.752,15.158-23.428,15.775-22.194.728-29.551-12.405-29.551-12.405S230.073,156.283,235.886,156.69Z" transform="translate(-187.821 -96.332)" fill="#f2ac3a"/>
      </g>
      <g id="Group_203" data-name="Group 203" transform="translate(0 295.504)">
        <g id="Group_200" data-name="Group 200" transform="translate(35.713 34.167)">
          <path id="Path_657" data-name="Path 657" d="M90.9,429.822s-6.591-30.316,29.822-55.312Z" transform="translate(-90.433 -374.51)" fill="#c4dbff"/>
          <path id="Path_658" data-name="Path 658" d="M90.66,430.042s29.526-12.232,29.822-55.312Z" transform="translate(-90.379 -374.458)" fill="#e0eafa"/>
        </g>
        <g id="Group_201" data-name="Group 201" transform="translate(0 34.167)">
          <path id="Path_659" data-name="Path 659" d="M91.322,429.822S97.914,399.506,61.5,374.51Z" transform="translate(-61.5 -374.51)" fill="#e0eafa"/>
          <path id="Path_660" data-name="Path 660" d="M91.472,430.042S61.946,417.809,61.65,374.73Z" transform="translate(-61.465 -374.458)" fill="#c4dbff"/>
        </g>
        <g id="Group_202" data-name="Group 202" transform="translate(19.988)">
          <path id="Path_661" data-name="Path 661" d="M90.564,434.1s-28.958-33.562,0-87.269Z" transform="translate(-77.693 -346.83)" fill="#c4dbff"/>
          <path id="Path_662" data-name="Path 662" d="M88.08,434.469s28.958-33.562,0-87.269Z" transform="translate(-75.259 -346.743)" fill="#e0eafa"/>
        </g>
        <path id="Path_663" data-name="Path 663" d="M67.27,414.06h52.769s0,41.178-26.378,41.178S67.27,414.06,67.27,414.06Z" transform="translate(-60.148 -331.074)"/>
      </g>
      <path id="display" d="M0,32v8.467H13.546V32Zm12.7,7.62H.847V32.847H12.7ZM8.89,41.313H4.657l-.423,1.693-.847.847H10.16l-.847-.847Z" transform="translate(236.217 280.745)" fill="#111"/>
      <path id="feed" d="M8.288,49.457a2.763,2.763,0,1,1,2.763,2.763A2.763,2.763,0,0,1,8.288,49.457Zm6.051-6.075a6.909,6.909,0,0,1,0,12.15,11.639,11.639,0,0,0,1.546-6.075A11.639,11.639,0,0,0,14.339,43.382ZM6.216,49.457a11.638,11.638,0,0,0,1.546,6.075,6.909,6.909,0,0,1,0-12.15A11.638,11.638,0,0,0,6.216,49.457Zm-4.144,0a14.828,14.828,0,0,0,3.036,9.318,11.053,11.053,0,0,1,0-18.636A14.828,14.828,0,0,0,2.072,49.457Zm14.922-9.318a11.053,11.053,0,0,1,0,18.636,14.828,14.828,0,0,0,3.036-9.318A14.828,14.828,0,0,0,16.994,40.139Z" transform="translate(267.388 167.273)" fill="red"/>
    </g>
    <rect id="Rectangle_228" data-name="Rectangle 228" width="37.562" height="8.668" rx="4.334" transform="translate(233.989 371.332)" fill="rgba(255,0,29,0.15)"/>
    <rect id="Rectangle_229" data-name="Rectangle 229" width="37.562" height="8.668" rx="4.334" transform="translate(370.512 335.215)" fill="rgba(255,187,0,0.2)"/>
    <rect id="Rectangle_230" data-name="Rectangle 230" width="37.562" height="8.668" rx="4.334" transform="translate(142.973 263.703)" fill="rgba(0,150,255,0.2)"/>
    <rect id="Rectangle_233" data-name="Rectangle 233" width="37.562" height="8.668" rx="4.334" transform="translate(325.004 408.172)" fill="rgba(0,150,255,0.2)"/>
    <rect id="Rectangle_231" data-name="Rectangle 231" width="37.562" height="8.668" rx="4.334" transform="translate(370.512 263.703)" fill="rgba(0,150,255,0.2)"/>
    <rect id="Rectangle_232" data-name="Rectangle 232" width="37.562" height="8.668" rx="4.334" transform="translate(189.203 298.376)" fill="rgba(255,187,0,0.2)"/>
    <g id="alert" transform="translate(424.892 56.391)">
      <g transform="matrix(1, 0, 0, 1, -520.62, -6)" filter="url(#Path_905)">
        <path id="Path_905-4" data-name="Path 905" d="M0,42.36a36.462,36.462,0,0,0,5.213,18.7c5.535,9.333,12.145,19.5,8.106,24.885a29.3,29.3,0,0,1-9.081,7.983c-7.163,4.048,2.422,1.644,15.752-3.039a169.623,169.623,0,0,1,34.243-8.669c21.938-2.941,43.953-14.569,43.953-39.859C98.187,19.339,76.207.68,49.092.68S0,19.343,0,42.36Z" transform="translate(520.62 5.32)" fill="#fff"/>
      </g>
      <g id="Group_235" data-name="Group 235" transform="translate(19.729 29.441) rotate(-12)">
        <path id="Path_850" data-name="Path 850" d="M32.512,23.842V13A13,13,0,1,0,6.5,13V23.842a6.5,6.5,0,0,1-6.5,6.5v2.167H39.014V30.344a6.5,6.5,0,0,1-6.5-6.5" transform="translate(6.655 0)" fill="#0096ff" fill-rule="evenodd"/>
        <path id="Path_851" data-name="Path 851" d="M7.485,0C6.055,11.918,9,8.1,1.94,13.359m0-9.484C1.546,6.7,2.108,5.368,0,7.755M44.077.585c-.234,5.269-.954,9.674,2.077,11.078l4.24.9M49,2.85l2.752,3.687" transform="translate(0 13.866)" fill="none" stroke="#0096ff" stroke-linecap="square" stroke-linejoin="round" stroke-width="3" fill-rule="evenodd"/>
        <path id="Path_852" data-name="Path 852" d="M0,0A8.5,8.5,0,0,0,7.368,4.335,8.51,8.51,0,0,0,14.739,0Z" transform="translate(18.793 34.679)" fill="#0096ff" fill-rule="evenodd"/>
      </g>
    </g>
    <g id="alert-2" data-name="alert" transform="translate(-22.161 164.163)">
      <g transform="matrix(1, 0, 0, 1, -73.57, -113.77)" filter="url(#Path_905-2)">
        <path id="Path_905-5" data-name="Path 905" d="M69.062,30A25.647,25.647,0,0,1,65.4,43.148c-3.893,6.564-8.542,13.719-5.7,17.5a20.606,20.606,0,0,0,6.387,5.615c5.038,2.847-1.7,1.157-11.079-2.137-8-2.808-12.691.027-21.086-1.1C18.486,60.962,3,52.783,3,35,3,18.8,15.46.68,34.532.68S69.062,13.807,69.062,30Z" transform="translate(73.57 113.32)" fill="#ffc800"/>
      </g>
      <g id="Group_239" data-name="Group 239" transform="translate(23.588 12.227)">
        <ellipse id="Ellipse_7" data-name="Ellipse 7" cx="10.841" cy="4.781" rx="10.841" ry="4.781" transform="translate(1.439 28.658)" fill="#111"/>
        <path id="Path_924" data-name="Path 924" d="M124.729,79.77A12.293,12.293,0,0,0,112.45,92.049c0,8.4,10.99,20.739,11.456,21.261a1.109,1.109,0,0,0,1.647,0c.466-.522,11.456-12.857,11.456-21.261A12.293,12.293,0,0,0,124.729,79.77Zm0,31.107c-3.7-4.394-10.07-13.058-10.07-18.827a10.068,10.068,0,0,1,20.135,0C134.8,97.818,128.426,106.483,124.729,110.877Z" transform="translate(-112.45 -79.77)" fill="#111" fill-rule="evenodd"/>
        <path id="Path_925" data-name="Path 925" d="M135,96.14a6.179,6.179,0,1,0,6.179,6.179A6.187,6.187,0,0,0,135,96.14Zm0,10.148a3.967,3.967,0,1,1,3.965-3.969A3.975,3.975,0,0,1,135,106.288Z" transform="translate(-122.719 -90.039)" fill="#111" fill-rule="evenodd"/>
      </g>
    </g>
    <g id="alert-3" data-name="alert" transform="translate(327.892 87.298)">
      <g transform="matrix(1, 0, 0, 1, -423.62, -36.91)" filter="url(#Path_905-3)">
        <path id="Path_905-6" data-name="Path 905" d="M0,29.234A24.979,24.979,0,0,0,3.571,42.043c3.792,6.394,8.32,13.362,5.553,17.048A20.069,20.069,0,0,1,2.9,64.56C-2,67.333,4.563,65.686,13.695,62.478a116.2,116.2,0,0,1,23.459-5.939c15.029-2.015,27.111-9.981,27.111-27.307C64.265,13.463,52.207.68,33.632.68S0,13.466,0,29.234Z" transform="translate(423.62 36.23)" fill="#ffc800"/>
      </g>
      <path id="_1" data-name="1" d="M33.614,32H4.2A4.206,4.206,0,0,0,0,36.2V57.21a4.206,4.206,0,0,0,4.2,4.2H33.614a4.206,4.206,0,0,0,4.2-4.2V36.2A4.206,4.206,0,0,0,33.614,32Zm2.1,25.21a2.107,2.107,0,0,1-2.1,2.1H4.2a2.107,2.107,0,0,1-2.1-2.1V36.2a2.107,2.107,0,0,1,2.1-2.1H33.614a2.107,2.107,0,0,1,2.1,2.1Zm-4.727-8.4H23.635a.527.527,0,0,0-.525.525v1.05a.527.527,0,0,0,.525.525h7.353a.527.527,0,0,0,.525-.525v-1.05A.527.527,0,0,0,30.988,48.807Zm0-4.2H23.635a.527.527,0,0,0-.525.525v1.05a.527.527,0,0,0,.525.525h7.353a.527.527,0,0,0,.525-.525V45.13A.527.527,0,0,0,30.988,44.605Zm0-4.2H23.635a.527.527,0,0,0-.525.525v1.05a.527.527,0,0,0,.525.525h7.353a.527.527,0,0,0,.525-.525v-1.05A.527.527,0,0,0,30.988,40.4Zm-17.332,8.4A5.252,5.252,0,1,0,8.4,43.555,5.251,5.251,0,0,0,13.656,48.807Zm0-8.4A3.151,3.151,0,1,1,10.5,43.555,3.152,3.152,0,0,1,13.656,40.4Zm3.072,9.454c-1.28,0-1.6.46-3.072.46s-1.792-.46-3.072-.46a4.2,4.2,0,0,0-3.532,1.8A4.394,4.394,0,0,0,6.3,54.118v1.517a.527.527,0,0,0,.525.525h1.05a.527.527,0,0,0,.525-.525V54.118A2.3,2.3,0,0,1,8.8,52.831a2.125,2.125,0,0,1,1.792-.867,23.278,23.278,0,0,0,3.072.46,23.658,23.658,0,0,0,3.072-.46,2.141,2.141,0,0,1,1.792.867,2.3,2.3,0,0,1,.394,1.287v1.517a.527.527,0,0,0,.525.525H20.5a.527.527,0,0,0,.525-.525V54.118a4.394,4.394,0,0,0-.748-2.462A4.252,4.252,0,0,0,16.728,49.857Z" transform="translate(15.447 -17.6)" fill="#111"/>
    </g>
    <g id="alert-4" data-name="alert" transform="translate(46.902 56.391)">
      <g transform="matrix(1, 0, 0, 1, -142.63, -6)" filter="url(#Path_906)">
        <path id="Path_906-2" data-name="Path 906" d="M104.016,44.834a38.627,38.627,0,0,1-5.523,19.807C92.63,74.529,85.628,85.3,89.907,91a31.035,31.035,0,0,0,9.62,8.457c7.588,4.288-2.566,1.742-16.687-3.219-12.042-4.23-20.633-3.489-33.277-5.184C26.323,87.942,3,76.624,3,49.832,3,25.447,23.285.68,52.009.68S104.016,20.452,104.016,44.834Z" transform="translate(142.63 5.32)" fill="#fff"/>
      </g>
      <g id="_1-2" data-name="1" transform="translate(26.878 18.059)">
        <path id="Path_907" data-name="Path 907" d="M8.069,28.856a5.216,5.216,0,0,1,3.382,2.12c.042.058.08.122.122.186a5.114,5.114,0,0,1,.461,4.771A4.617,4.617,0,0,1,10.258,38.2l-.138.09a1.5,1.5,0,0,0-.36,2.12L10.894,42a5.158,5.158,0,0,1-2.184,1.219H8.583a1.505,1.505,0,0,0-1.1,1.855l.53,1.9a4.437,4.437,0,0,0,4.283,3.286,4.5,4.5,0,0,0,1.124-.1l33.549-9.011A4.431,4.431,0,0,0,50.1,35.726h0l-.53-1.908a1.505,1.505,0,0,0-1.876-1.06l-.106.037a5.205,5.205,0,0,1-6.08-7.151l3.859-2.751a4.442,4.442,0,0,0,1.06-6.186l-1.145-1.59a1.484,1.484,0,0,0-.991-.61,1.511,1.511,0,0,0-1.134.276l-.09.074A5.216,5.216,0,1,1,36.99,6.375L37.1,6.3a1.5,1.5,0,0,0,.615-.981,1.521,1.521,0,0,0-.254-1.145l-1.145-1.59a4.442,4.442,0,0,0-6.186-1.05L1.857,21.7A4.431,4.431,0,0,0,.823,27.9l1.145,1.59a1.49,1.49,0,0,0,1,.615,1.59,1.59,0,0,0,.53,0s.567-.307,1.272-.615a5.391,5.391,0,0,1,3.3-.636ZM3.028,25.076a1.415,1.415,0,0,1,.578-.922L22.2,10.9l.853,1.193L25.5,10.345,24.65,9.153,31.88,3.99a1.421,1.421,0,0,1,1.982.329l.334.466a8.221,8.221,0,0,0,9.419,13.2l.334.466a1.431,1.431,0,0,1-.334,1.982L36.386,25.6l-.451-.625L33.481,26.72l.44.652L15.368,40.623a1.421,1.421,0,0,1-1.982-.329l-.334-.466A8.221,8.221,0,0,0,8.567,25.887a8.1,8.1,0,0,0-4.962.716l-.334-.466a1.421,1.421,0,0,1-.244-1.06ZM46.187,38.249l-8.555,2.29-.212-.763-2.9.8.207.742L12.638,47.239A1.421,1.421,0,0,1,10.9,46.232l-.148-.53a8.126,8.126,0,0,0,2.65-1.945,4.4,4.4,0,0,0,1.113.148,4.447,4.447,0,0,0,2.571-.822l15.15-10.829.329,1.187,2.9-.8-.62-2.248,3.18-2.285a8.317,8.317,0,0,0,.265,1.792,8.227,8.227,0,0,0,8.752,6.059l.148.53a1.421,1.421,0,0,1-1.007,1.739Z" transform="translate(0.008 -0.718)" fill="#0096ff"/>
        <path id="Path_908" data-name="Path 908" d="M62.5,65.59l.838,3.053,2.9-.8L65.4,64.79l-2.9.8Z" transform="translate(-29.366 -30.827)" fill="#0096ff"/>
        <path id="Path_909" data-name="Path 909" d="M59.225,42.681l2.449-1.749L59.834,38.35,57.38,40.1l1.845,2.581Z" transform="translate(-26.96 -18.402)" fill="#0096ff"/>
        <path id="Path_910" data-name="Path 910" d="M53.435,34.571l2.454-1.749L54.044,30.24,51.59,31.989l1.845,2.581Z" transform="translate(-24.239 -14.591)" fill="#0096ff"/>
        <path id="Path_911" data-name="Path 911" d="M50.1,24.7,48.259,22.12,45.81,23.869l1.839,2.581L50.1,24.7Z" transform="translate(-21.523 -10.776)" fill="#0096ff"/>
      </g>
    </g>
    <g transform="matrix(1, 0, 0, 1, -95.73, 50.39)" filter="url(#Ellipse_6)">
      <circle id="Ellipse_6-2" data-name="Ellipse 6" cx="38.645" cy="38.645" r="38.645" transform="translate(9 262.43)" fill="#fff"/>
    </g>
    <path id="logo" d="M3.237,38.429h32.3v.993H3.237Zm-1.779-2H37.316v.993H1.458ZM28.054,0h0A2.544,2.544,0,0,1,30.59,2.536V8.3a2.544,2.544,0,0,1-2.536,2.536h0A2.544,2.544,0,0,1,25.517,8.3V2.536A2.544,2.544,0,0,1,28.054,0ZM10.833,0h0A2.544,2.544,0,0,1,13.37,2.536V8.3a2.544,2.544,0,0,1-2.536,2.536h0A2.544,2.544,0,0,1,8.3,8.3V2.536A2.544,2.544,0,0,1,10.833,0ZM-.01,7.074H6.844V8.536a3.961,3.961,0,0,0,3.949,3.949h0a3.961,3.961,0,0,0,3.949-3.949V7.074h9.29V8.536a3.961,3.961,0,0,0,3.949,3.949h0A3.961,3.961,0,0,0,31.93,8.536V7.074h6.853V35.429H-.01V7.074ZM20.424,30.145H15.851L14.48,23.9c-.063-.261-.167-.779-.308-1.558s-.244-1.424-.308-1.949c-.054.425-.137.953-.254,1.585s-.234,1.207-.348,1.739-.592,2.671-1.424,6.426H7.262L3.718,15.822H7.449L9.007,23q.527,2.382.726,3.791.125-1,.455-2.715t.612-2.842l1.264-5.416h3.584l1.224,5.416q.316,1.3.635,3.009t.431,2.548q.131-1.088.7-3.771l1.588-7.2h3.731Zm14.631-9.769a4.8,4.8,0,0,1-1.414,3.708,5.716,5.716,0,0,1-4.022,1.307H28.53v4.754H24.662V15.822H29.62A6.069,6.069,0,0,1,33.7,17.006a4.239,4.239,0,0,1,1.361,3.37ZM28.53,22.241h.706a1.935,1.935,0,0,0,1.387-.488,1.779,1.779,0,0,0,.515-1.354q0-1.449-1.608-1.448h-1v3.29Z" transform="translate(-67.219 331.604)" fill="#0096ff" fill-rule="evenodd"/>
  </g>
</svg>
