<svg xmlns="http://www.w3.org/2000/svg" width="449.531" height="304.668" viewBox="0 0 449.531 304.668">
  <g id="Event_Setup_wizard" data-name="Event Setup wizard" transform="translate(-42.61 -18.797)">
    <g id="freepik--background-complete--inject-168" transform="translate(48.709 18.797)">
      <path id="Path_8805" data-name="Path 8805" d="M178.534,293.873a2.768,2.768,0,0,0,1.209-.813,2.559,2.559,0,0,0,.591-1.632,3.9,3.9,0,0,0-.195-1.115c-.1-.4-.208-.826-.316-1.276-.907-3.634-2.2-8.86-3.795-15.294l-1.243-5.071q-.322-1.343-.672-2.687a7.69,7.69,0,0,0-.383-1.343,2.358,2.358,0,0,0-.887-.981,2.223,2.223,0,0,0-1.29-.316,11.616,11.616,0,0,0-1.431.322l-2.976.779-6.227,1.612-27.707,7.16a2.337,2.337,0,0,0-1.666,2.64c.3,1.216.584,2.418.866,3.62.584,2.4,1.155,4.769,1.719,7.093q1.683,6.982,3.238,13.434c.128.537.262,1.068.383,1.592a2.452,2.452,0,0,0,.672,1.3,2.244,2.244,0,0,0,1.29.618,3.848,3.848,0,0,0,1.464-.228l5.877-1.5L157.6,299.1l15.314-3.882,4.158-1.021,1.088-.255.369-.074a2.45,2.45,0,0,1-.363.121l-1.068.3-4.138,1.115-15.241,4.03-10.532,2.747-5.871,1.525a4.353,4.353,0,0,1-1.625.242,2.687,2.687,0,0,1-1.545-.725,3,3,0,0,1-.819-1.511c-.128-.531-.255-1.061-.39-1.592-1.041-4.279-2.129-8.732-3.264-13.434l-1.726-7.093q-.437-1.814-.873-3.654a2.814,2.814,0,0,1,2.015-3.191l27.72-7.126,6.227-1.592,2.982-.766a12.089,12.089,0,0,1,1.5-.336,2.687,2.687,0,0,1,1.531.39,2.794,2.794,0,0,1,1.034,1.149,8.839,8.839,0,0,1,.4,1.411q.336,1.384.672,2.687c.423,1.767.833,3.466,1.216,5.085,1.531,6.455,2.774,11.687,3.641,15.328l.3,1.283a4.245,4.245,0,0,1,.175,1.162,2.687,2.687,0,0,1-.672,1.693,2.533,2.533,0,0,1-.92.672,1.291,1.291,0,0,1-.376.087Z" transform="translate(-77.741 -98.948)" fill="#e0e0e0"/>
      <path id="Path_8806" data-name="Path 8806" d="M166.464,288.093l5.938,1.793-4.453,4.433-4.453,4.433-1.484-6.226L160.52,286.3Z" transform="translate(-87.421 -106.623)" fill="#e0e0e0"/>
      <rect id="Rectangle_3727" data-name="Rectangle 3727" width="60.324" height="48.227" transform="translate(365.709 199.949) rotate(-9.93)" fill="#ebebeb"/>
      <rect id="Rectangle_3728" data-name="Rectangle 3728" width="56.086" height="42.155" transform="translate(368.285 202.581) rotate(-9.93)" fill="#f5f5f5"/>
      <path id="Path_8807" data-name="Path 8807" d="M610.81,367.971l14.777-29.191,14.777,14.058,6.6-10.055,19.1,15.516Z" transform="translate(-235.258 -123.853)" fill="#e0e0e0"/>
      <path id="Path_8808" data-name="Path 8808" d="M653.047,327.851a4.413,4.413,0,1,1-1.81-2.857A4.413,4.413,0,0,1,653.047,327.851Z" transform="translate(-246.249 -119.063)" fill="#e0e0e0"/>
      <rect id="Rectangle_3729" data-name="Rectangle 3729" width="32.436" height="40.57" transform="matrix(0.321, -0.947, 0.947, 0.321, 205.375, 241.747)" fill="#ebebeb"/>
      <rect id="Rectangle_3730" data-name="Rectangle 3730" width="28.352" height="37.715" transform="matrix(0.321, -0.947, 0.947, 0.321, 207.35, 240.267)" fill="#f5f5f5"/>
      <path id="Path_8809" data-name="Path 8809" d="M360.41,370.44l18.129-12.46,4.191,13.058,7.133-3.8,6.267,15.314Z" transform="translate(-153.048 -130.156)" fill="#e0e0e0"/>
      <path id="Path_8810" data-name="Path 8810" d="M402,358.571a2.969,2.969,0,1,1-1.861-3.768A2.969,2.969,0,0,1,402,358.571Z" transform="translate(-164.806 -129.062)" fill="#e0e0e0"/>
      <circle id="Ellipse_950" data-name="Ellipse 950" cx="27.029" cy="27.029" r="27.029" transform="translate(319.666 38.224) rotate(-45)" fill="#e0e0e0"/>
      <path id="Path_8811" data-name="Path 8811" d="M596.621,69.2a4.7,4.7,0,0,1-.954.067l-2.626.054c-2.23,0-5.333.047-8.839.054H584V67.413c0-3.916,0-7.456.047-10.022,0-1.236.04-2.264.054-3.043a6.714,6.714,0,0,1,.074-1.108,7.388,7.388,0,0,1,.067,1.108c0,.779.034,1.807.054,3.043,0,2.566.054,6.106.054,10.022v1.753l-.168-.175c3.506,0,6.609,0,8.839.06l2.626.054A5.979,5.979,0,0,1,596.621,69.2Z" transform="translate(-226.456 -30.105)" fill="#fafafa"/>
      <path id="Path_8812" data-name="Path 8812" d="M584.325,42.08a7.652,7.652,0,0,1,.175,2.27,7.61,7.61,0,0,1-.175,2.27,7.612,7.612,0,0,1-.175-2.27,7.65,7.65,0,0,1,.175-2.27Z" transform="translate(-226.499 -26.441)" fill="#fafafa"/>
      <path id="Path_8813" data-name="Path 8813" d="M601.2,47.51a7.486,7.486,0,0,1-1.464,1.706A7.154,7.154,0,0,1,598,50.674a7.29,7.29,0,0,1,1.464-1.706A7.2,7.2,0,0,1,601.2,47.51Z" transform="translate(-231.052 -28.224)" fill="#fafafa"/>
      <path id="Path_8814" data-name="Path 8814" d="M611.609,59.22a9.491,9.491,0,0,1-1.867,1.243,9.191,9.191,0,0,1-1.961,1.081,6.147,6.147,0,0,1,1.78-1.343A6.044,6.044,0,0,1,611.609,59.22Z" transform="translate(-234.263 -32.069)" fill="#fafafa"/>
      <path id="Path_8815" data-name="Path 8815" d="M616.733,76.515a27.54,27.54,0,0,1-6.193,0,27.538,27.538,0,0,1,6.193,0Z" transform="translate(-235.169 -37.689)" fill="#fafafa"/>
      <path id="Path_8816" data-name="Path 8816" d="M552.98,75.915a24.584,24.584,0,0,1-5.85,0A24.584,24.584,0,0,1,552.98,75.915Z" transform="translate(-214.351 -37.492)" fill="#fafafa"/>
      <path id="Path_8817" data-name="Path 8817" d="M558.091,88.93a13,13,0,0,1-2.21,2.015,12.472,12.472,0,0,1-2.431,1.733,13.317,13.317,0,0,1,2.21-2.015,12.837,12.837,0,0,1,2.432-1.733Z" transform="translate(-216.426 -41.823)" fill="#fafafa"/>
      <path id="Path_8818" data-name="Path 8818" d="M570,98.94a20.319,20.319,0,0,1-1.5,2.606A20.674,20.674,0,0,1,566.9,104.1,15.463,15.463,0,0,1,570,98.94Z" transform="translate(-220.842 -45.109)" fill="#fafafa"/>
      <path id="Path_8819" data-name="Path 8819" d="M584.324,108.813a14.033,14.033,0,0,1-.175-3.1,14.1,14.1,0,0,1,.175-3.1,14.1,14.1,0,0,1,.175,3.1A14.033,14.033,0,0,1,584.324,108.813Z" transform="translate(-226.498 -46.318)" fill="#fafafa"/>
      <path id="Path_8820" data-name="Path 8820" d="M602.025,103.727a8.994,8.994,0,0,1-2.552-1.746,9.323,9.323,0,0,1-2.082-2.29,28.148,28.148,0,0,1,2.31,2.015,29.093,29.093,0,0,1,2.324,2.022Z" transform="translate(-230.852 -45.356)" fill="#fafafa"/>
      <path id="Path_8821" data-name="Path 8821" d="M611.729,93.8a10.956,10.956,0,0,1-2.049-1.787A10.81,10.81,0,0,1,607.88,90a10.818,10.818,0,0,1,2.015,1.8A10.676,10.676,0,0,1,611.729,93.8Z" transform="translate(-234.296 -42.174)" fill="#fafafa"/>
      <path id="Path_8822" data-name="Path 8822" d="M558.292,61.942a8.058,8.058,0,0,1-1.814-1.558,8.255,8.255,0,0,1-1.558-1.814,8.418,8.418,0,0,1,1.807,1.565A8.414,8.414,0,0,1,558.292,61.942Z" transform="translate(-216.909 -31.855)" fill="#fafafa"/>
      <path id="Path_8823" data-name="Path 8823" d="M569.825,49.858a7.956,7.956,0,0,1-1.773-1.525,7.772,7.772,0,0,1-1.531-1.773,8.174,8.174,0,0,1,1.773,1.525,7.67,7.67,0,0,1,1.531,1.773Z" transform="translate(-220.717 -27.912)" fill="#fafafa"/>
      <rect id="Rectangle_3731" data-name="Rectangle 3731" width="47.226" height="68.451" transform="translate(396.206 70.858)" fill="#e0e0e0"/>
      <rect id="Rectangle_3732" data-name="Rectangle 3732" width="47.226" height="68.451" transform="translate(393.842 70.858)" fill="#f5f5f5"/>
      <rect id="Rectangle_3733" data-name="Rectangle 3733" width="35.492" height="53.627" transform="translate(399.706 78.267)" fill="#fff"/>
      <path id="Path_8824" data-name="Path 8824" d="M682.239,188.836v-3.963c0-2.573,0-6.314-.034-11.049,0-9.457,0-22.837-.054-38.615l.114.121H646.747l.128-.128v53.627l-.1-.1,25.833.054h.094l-25.9.054h-.1V134.98h35.74v.114c0,15.8-.047,29.218-.06,38.7,0,4.7,0,8.456-.034,11.016v3.667A.867.867,0,0,1,682.239,188.836Z" transform="translate(-247.041 -56.942)" fill="#e0e0e0"/>
      <path id="Path_8825" data-name="Path 8825" d="M705.4,124.29a7.684,7.684,0,0,1-.84,1.222c-.551.732-1.343,1.726-2.217,2.808s-1.719,2.015-2.331,2.687a8.65,8.65,0,0,1-1.041,1.061,8.819,8.819,0,0,1,.9-1.182c.631-.766,1.41-1.713,2.277-2.754l2.27-2.761a8.481,8.481,0,0,1,.981-1.081Z" transform="translate(-264.203 -53.432)" fill="#e0e0e0"/>
      <path id="Path_8826" data-name="Path 8826" d="M699.88,214.9a43.537,43.537,0,0,0,6.193,7.745" transform="translate(-264.501 -83.181)" fill="#fff"/>
      <path id="Path_8827" data-name="Path 8827" d="M706.073,222.645a6.917,6.917,0,0,1-1.081-.981,32.982,32.982,0,0,1-2.337-2.633,33.764,33.764,0,0,1-2.055-2.861,6.993,6.993,0,0,1-.719-1.27,9.75,9.75,0,0,1,.873,1.169c.517.732,1.249,1.733,2.1,2.8s1.672,2.015,2.27,2.687a9.982,9.982,0,0,1,.947,1.088Z" transform="translate(-264.501 -83.181)" fill="#e0e0e0"/>
      <path id="Path_8828" data-name="Path 8828" d="M638,222.39l6.186-7.63" transform="translate(-244.185 -83.135)" fill="#fff"/>
      <path id="Path_8829" data-name="Path 8829" d="M644.206,214.76a91.692,91.692,0,0,1-6.186,7.63,47.038,47.038,0,0,1,3-3.9,46.243,46.243,0,0,1,3.19-3.735Z" transform="translate(-244.192 -83.135)" fill="#e0e0e0"/>
      <path id="Path_8830" data-name="Path 8830" d="M638,124.29a40.3,40.3,0,0,1,3.009,3.587,44.07,44.07,0,0,1,2.8,3.748,40.8,40.8,0,0,1-3-3.587A44.645,44.645,0,0,1,638,124.29Z" transform="translate(-244.185 -53.432)" fill="#e0e0e0"/>
      <rect id="Rectangle_3734" data-name="Rectangle 3734" width="11.882" height="33.745" transform="translate(412.259 89.155)" fill="#e0e0e0"/>
      <path id="Path_8831" data-name="Path 8831" d="M125.017,166.2v48.952H54.712l-2.532-48.61Z" transform="translate(-51.851 -67.192)" fill="#e0e0e0"/>
      <rect id="Rectangle_3735" data-name="Rectangle 3735" width="48.502" height="70.305" transform="translate(0.329 147.86) rotate(-90)" fill="#fff"/>
      <path id="Path_8832" data-name="Path 8832" d="M122.66,215.387H51.69V166.22h70.97Zm-70.305-.672h69.633V166.885H52.355Z" transform="translate(-51.69 -67.198)" fill="#e0e0e0"/>
      <rect id="Rectangle_3736" data-name="Rectangle 3736" width="55.071" height="36.452" transform="translate(7.946 105.376)" fill="#fff"/>
      <path id="Path_8833" data-name="Path 8833" d="M118.476,175.621H114.4l-11.351.04-39.629.081.161-.161v36.452h0l-.175-.175,55.078.04-.134.134c0-11.089.054-20.151.074-26.518,0-3.17,0-5.642.034-7.335v-.027c0,1.686,0,4.151.034,7.3,0,6.354.04,15.449.074,26.605v.141h-.141l-55.078.034H63.17v-.128h0V175.5h.161l39.75.074,11.311.047h4.084Z" transform="translate(-55.459 -70.245)" fill="#e0e0e0"/>
      <path id="Path_8834" data-name="Path 8834" d="M52.18,166.51a5.522,5.522,0,0,1,1.209.786c.719.517,1.7,1.256,2.761,2.1s2.015,1.652,2.64,2.25a5.508,5.508,0,0,1,1.008,1.028c-.067.074-1.753-1.343-3.869-3a39.163,39.163,0,0,1-3.748-3.157Z" transform="translate(-51.851 -67.294)" fill="#e0e0e0"/>
      <path id="Path_8835" data-name="Path 8835" d="M153.127,166.71a34.474,34.474,0,0,1-3.7,3.15,32.76,32.76,0,0,1-3.916,2.875,34.823,34.823,0,0,1,3.688-3.143,34.257,34.257,0,0,1,3.929-2.882Z" transform="translate(-82.493 -67.359)" fill="#e0e0e0"/>
      <path id="Path_8836" data-name="Path 8836" d="M152.939,235.827,145.1,229.48" transform="translate(-82.358 -87.968)" fill="#fff"/>
      <path id="Path_8837" data-name="Path 8837" d="M145.1,229.48a36,36,0,0,1,4.03,3.036,37.782,37.782,0,0,1,3.808,3.311,36.266,36.266,0,0,1-4.03-3.036,37.773,37.773,0,0,1-3.808-3.311Z" transform="translate(-82.358 -87.968)" fill="#e0e0e0"/>
      <path id="Path_8838" data-name="Path 8838" d="M52.18,236.008a34.93,34.93,0,0,1,3.661-3.117,34.075,34.075,0,0,1,3.876-2.841,33.275,33.275,0,0,1-3.627,3.117,31.85,31.85,0,0,1-3.909,2.841Z" transform="translate(-51.851 -88.155)" fill="#e0e0e0"/>
      <rect id="Rectangle_3737" data-name="Rectangle 3737" width="12.204" height="34.652" transform="translate(19.13 128.938) rotate(-90)" fill="#e0e0e0"/>
    </g>
    <g id="freepik--Floor--inject-168" transform="translate(42.61 316.18)">
      <path id="Path_8839" data-name="Path 8839" d="M489.132,461.715c0,.1-99.967.175-223.248.175s-223.274-.04-223.274-.175,99.94-.175,223.274-.175S489.132,461.621,489.132,461.715Z" transform="translate(-42.61 -461.54)" fill="#263238"/>
    </g>
    <g id="freepik--Calendar--inject-168" transform="translate(87.781 53.31)">
      <rect id="Rectangle_3738" data-name="Rectangle 3738" width="48.227" height="60.324" transform="translate(0.167 48.307) rotate(-82.33)" fill="#ebebeb"/>
      <path id="Path_8840" data-name="Path 8840" d="M176.249,78.941l-.3-.034-.846-.1-3.251-.423-12.245-1.605-43.176-5.736.175-.134c-1.908,14.226-4.1,30.541-6.421,47.8h0l-.148-.2,59.78,8.06-.161.128L174.4,92.032c.578-4.171,1.034-7.442,1.343-9.679q.228-1.672.363-2.559c.081-.578.134-.88.134-.88a5.572,5.572,0,0,1-.1.86l-.316,2.573c-.3,2.237-.719,5.5-1.263,9.666-1.108,8.362-2.687,20.332-4.608,34.766v.141h-.141l-59.78-8.02h-.175v-.175h0l6.455-47.79V70.78h.154l43.256,5.9,12.218,1.632,3.211.45.819.121Z" transform="translate(-109.86 -70.377)" fill="#263238"/>
      <rect id="Rectangle_3739" data-name="Rectangle 3739" width="42.155" height="56.086" transform="translate(2.637 45.58) rotate(-82.33)" fill="#f55a66"/>
      <path id="Path_8841" data-name="Path 8841" d="M113.78,126.614l22.911-23.354,9.84,17.874,9.323-7.59,13.508,20.56Z" transform="translate(-111.147 -81.041)" fill="#f55a66"/>
      <path id="Path_8842" data-name="Path 8842" d="M169.705,99.554a4.406,4.406,0,1,1-.863-3.269A4.413,4.413,0,0,1,169.705,99.554Z" transform="translate(-126.623 -78.181)" fill="#f55a66"/>
      <g id="Group_7226" data-name="Group 7226" transform="translate(2.633 22.219)" opacity="0.2">
        <path id="Path_8843" data-name="Path 8843" d="M113.78,126.614l22.911-23.354,9.84,17.874,9.323-7.59,13.508,20.56Z" transform="translate(-113.78 -103.26)"/>
      </g>
      <g id="Group_7227" data-name="Group 7227" transform="translate(34.295 16.37)" opacity="0.2">
        <path id="Path_8844" data-name="Path 8844" d="M169.705,99.554a4.406,4.406,0,1,1-.863-3.269A4.413,4.413,0,0,1,169.705,99.554Z" transform="translate(-160.918 -94.551)"/>
      </g>
      <rect id="Rectangle_3740" data-name="Rectangle 3740" width="246.783" height="161.58" transform="translate(58.114 0.202)" fill="#fafafa"/>
      <path id="Path_8845" data-name="Path 8845" d="M444.3,87.315c0,.094-55.253.175-123.4.175s-123.4-.081-123.4-.175,55.239-.175,123.4-.175S444.3,87.221,444.3,87.315Z" transform="translate(-138.637 -75.748)" fill="#263238"/>
      <path id="Path_8846" data-name="Path 8846" d="M208.015,78.857a1.411,1.411,0,1,1-.413-1,1.417,1.417,0,0,1,.413,1Z" transform="translate(-141.155 -72.564)" fill="#263238"/>
      <path id="Path_8847" data-name="Path 8847" d="M215.615,78.857a1.411,1.411,0,1,1-.413-1,1.417,1.417,0,0,1,.413,1Z" transform="translate(-143.65 -72.564)" fill="#263238"/>
      <path id="Path_8848" data-name="Path 8848" d="M223.234,78.857a1.411,1.411,0,1,1-.411-1A1.417,1.417,0,0,1,223.234,78.857Z" transform="translate(-146.152 -72.564)" fill="#263238"/>
      <rect id="Rectangle_3741" data-name="Rectangle 3741" width="84.222" height="4.648" transform="translate(140.503 20.13)" fill="#ebebeb"/>
      <path id="Path_8849" data-name="Path 8849" d="M436.124,236.424c0-1.055-.047-45.083-.128-117.236l.128.128-221.266.047h0l.181-.175V236.424l-.168-.168,221.286.168-221.286.161h-.161V119h.195l221.266.04h.134v.134C436.178,191.34,436.131,235.369,436.124,236.424Z" transform="translate(-144.284 -86.208)" fill="#263238"/>
      <path id="Path_8850" data-name="Path 8850" d="M255.423,236.159c-.1,0-.1-26.243,0-58.611s.249-58.618.343-58.618.1,26.243,0,58.618S255.517,236.159,255.423,236.159Z" transform="translate(-157.626 -86.185)" fill="#263238"/>
      <path id="Path_8851" data-name="Path 8851" d="M304.3,236.3c-.094,0-.094-26.243,0-58.611s.249-58.618.343-58.618.1,26.243,0,58.618S304.4,236.3,304.3,236.3Z" transform="translate(-173.673 -86.231)" fill="#263238"/>
      <path id="Path_8852" data-name="Path 8852" d="M353.173,236.446c-.1,0-.1-26.249,0-58.618s.249-58.618.343-58.618.1,26.243,0,58.618S353.267,236.446,353.173,236.446Z" transform="translate(-189.719 -86.277)" fill="#263238"/>
      <path id="Path_8853" data-name="Path 8853" d="M402.046,236.586c-.094,0-.094-26.249,0-58.618s.249-58.618.343-58.618.1,26.243,0,58.625S402.146,236.586,402.046,236.586Z" transform="translate(-205.766 -86.323)" fill="#263238"/>
      <path id="Path_8854" data-name="Path 8854" d="M450.963,236.7c-.1,0-.1-26.243,0-58.611s.249-58.618.343-58.618.1,26.236,0,58.618S451.03,236.7,450.963,236.7Z" transform="translate(-221.825 -86.363)" fill="#263238"/>
      <path id="Path_8855" data-name="Path 8855" d="M499.8,236.869c-.094,0-.094-26.243,0-58.611s.249-58.618.343-58.618.1,26.236,0,58.618S499.91,236.869,499.8,236.869Z" transform="translate(-237.859 -86.419)" fill="#263238"/>
      <path id="Path_8856" data-name="Path 8856" d="M436.314,161.395c0,.094-49.476.175-110.505.175s-110.519-.081-110.519-.175,49.476-.175,110.519-.175S436.314,161.294,436.314,161.395Z" transform="translate(-144.474 -100.07)" fill="#263238"/>
      <path id="Path_8857" data-name="Path 8857" d="M436.314,206.115c0,.094-49.476.175-110.505.175s-110.519-.081-110.519-.175,49.476-.175,110.519-.175S436.314,206.014,436.314,206.115Z" transform="translate(-144.474 -114.752)" fill="#263238"/>
      <path id="Path_8858" data-name="Path 8858" d="M436.314,250.825c0,.1-49.476.175-110.505.175s-110.519-.074-110.519-.175,49.476-.175,110.519-.175S436.314,250.731,436.314,250.825Z" transform="translate(-144.474 -129.431)" fill="#263238"/>
      <path id="Path_8859" data-name="Path 8859" d="M217.656,254.89s-2.62,17.007.107,27.606l26.2-.954s-5.373-16.92-1.968-25.376Z" transform="translate(-144.879 -130.823)" fill="#ebebeb"/>
      <path id="Path_8860" data-name="Path 8860" d="M218.37,254s.175,20.9,1.236,27.27l26.2-1.243s-2.3-20.54-1.417-26.028Z" transform="translate(-145.486 -130.531)" fill="#f55a66"/>
      <path id="Path_8861" data-name="Path 8861" d="M242.645,266.99c0,.1-3.929.416-8.786.705s-8.792.45-8.8.356,3.923-.41,8.779-.705S242.638,266.916,242.645,266.99Z" transform="translate(-147.682 -134.789)" fill="#fff"/>
      <path id="Path_8862" data-name="Path 8862" d="M242.655,273.607c0,.1-3.929.416-8.786.705s-8.792.45-8.8.356,3.923-.41,8.779-.705S242.648,273.513,242.655,273.607Z" transform="translate(-147.685 -136.959)" fill="#fff"/>
      <path id="Path_8863" data-name="Path 8863" d="M239.722,280.061a6.315,6.315,0,0,1-1.464.215c-.9.087-2.156.181-3.54.262s-2.633.141-3.54.161a6.046,6.046,0,0,1-1.478-.034,6.291,6.291,0,0,1,1.458-.215c.907-.081,2.156-.175,3.54-.262s2.64-.141,3.546-.161a6.611,6.611,0,0,1,1.478.034Z" transform="translate(-149.205 -139.068)" fill="#fff"/>
      <path id="Path_8864" data-name="Path 8864" d="M307.087,123.66s-2.149,17.7.578,28.3l25.746-1.343s-5.373-17.256-2.015-25.712Z" transform="translate(-174.349 -87.738)" fill="#ebebeb"/>
      <path id="Path_8865" data-name="Path 8865" d="M307.64,122.73s.175,20.9,1.236,27.27l26.2-1.243s-2.3-20.54-1.417-26.028Z" transform="translate(-174.794 -87.433)" fill="#f55a66"/>
      <path id="Path_8866" data-name="Path 8866" d="M331.915,135.786c0,.094-3.929.41-8.779.672s-8.8.45-8.806.349,3.923-.41,8.779-.672S331.908,135.686,331.915,135.786Z" transform="translate(-176.991 -91.711)" fill="#fff"/>
      <path id="Path_8867" data-name="Path 8867" d="M331.925,142.373c0,.094-3.923.41-8.779.672s-8.8.457-8.806.356,3.923-.41,8.786-.705S331.918,142.273,331.925,142.373Z" transform="translate(-176.994 -93.871)" fill="#fff"/>
      <path id="Path_8868" data-name="Path 8868" d="M328.992,148.826a6.568,6.568,0,0,1-1.458.208c-.907.087-2.156.181-3.54.262s-2.64.141-3.547.168a5.9,5.9,0,0,1-1.478-.04,6.589,6.589,0,0,1,1.464-.208c.9-.087,2.156-.181,3.54-.262s2.633-.141,3.54-.168a5.864,5.864,0,0,1,1.478.04Z" transform="translate(-178.514 -95.978)" fill="#fff"/>
      <path id="Path_8869" data-name="Path 8869" d="M358.457,253.15s-2.116,19.351.6,29.95l25.86-1.135s-5.541-19.089-2.136-27.539Z" transform="translate(-191.221 -130.252)" fill="#ebebeb"/>
      <path id="Path_8870" data-name="Path 8870" d="M359,252.22s.175,20.9,1.236,27.27l26.2-1.243s-2.3-20.54-1.417-26.028Z" transform="translate(-191.657 -129.947)" fill="#f55a66"/>
      <path id="Path_8871" data-name="Path 8871" d="M383.275,265.273c0,.094-3.929.41-8.779.672s-8.8.457-8.806.356,3.923-.41,8.779-.705S383.268,265.173,383.275,265.273Z" transform="translate(-193.853 -134.221)" fill="#fff"/>
      <path id="Path_8872" data-name="Path 8872" d="M383.285,271.863c0,.094-3.929.41-8.779.672s-8.8.45-8.806.356,3.923-.41,8.779-.705S383.278,271.763,383.285,271.863Z" transform="translate(-193.856 -136.385)" fill="#fff"/>
      <path id="Path_8873" data-name="Path 8873" d="M380.352,278.316a6.589,6.589,0,0,1-1.464.208c-.9.087-2.149.181-3.533.262s-2.64.141-3.546.168a6.289,6.289,0,0,1-1.478-.04,6.568,6.568,0,0,1,1.458-.208c.907-.087,2.156-.181,3.54-.269s2.64-.134,3.547-.161a5.864,5.864,0,0,1,1.478.04Z" transform="translate(-195.377 -138.492)" fill="#fff"/>
      <path id="Path_8874" data-name="Path 8874" d="M505.3,165.48s-2.687,16.617.034,27.21l26.256-.564s-5.374-16.92-1.968-25.376Z" transform="translate(-239.301 -101.469)" fill="#ebebeb"/>
      <path id="Path_8875" data-name="Path 8875" d="M506,164.56s.175,20.889,1.236,27.264l26.2-1.236s-2.3-20.54-1.417-26.028Z" transform="translate(-239.919 -101.166)" fill="#f55a66"/>
      <path id="Path_8876" data-name="Path 8876" d="M530.3,177.608c0,.1-3.923.41-8.779.672s-8.8.45-8.806.356,3.923-.416,8.786-.672S530.3,177.514,530.3,177.608Z" transform="translate(-242.125 -105.443)" fill="#fff"/>
      <path id="Path_8877" data-name="Path 8877" d="M530.315,184.2c0,.094-3.923.41-8.779.672s-8.8.45-8.806.356,3.929-.416,8.786-.672S530.308,184.1,530.315,184.2Z" transform="translate(-242.129 -107.606)" fill="#fff"/>
      <path id="Path_8878" data-name="Path 8878" d="M527.382,190.658a6.2,6.2,0,0,1-1.458.215c-.907.081-2.156.175-3.54.262s-2.64.141-3.547.161a6.61,6.61,0,0,1-1.478,0,6.314,6.314,0,0,1,1.464-.215c.9-.087,2.156-.181,3.54-.262s2.633-.141,3.547-.161A6.045,6.045,0,0,1,527.382,190.658Z" transform="translate(-243.649 -109.72)" fill="#fff"/>
      <path id="Path_8879" data-name="Path 8879" d="M406.261,210.81s-2.687,16.617.034,27.217l26.256-.564s-5.373-16.92-1.968-25.383Z" transform="translate(-206.785 -116.351)" fill="#ebebeb"/>
      <path id="Path_8880" data-name="Path 8880" d="M407,209.89s.175,20.9,1.236,27.27l26.2-1.243s-2.3-20.54-1.417-26.028Z" transform="translate(-207.416 -116.049)" fill="#f55a66"/>
      <path id="Path_8881" data-name="Path 8881" d="M431.265,222.98c0,.1-3.923.416-8.779.705s-8.8.45-8.806.356,3.923-.41,8.786-.705S431.258,222.853,431.265,222.98Z" transform="translate(-209.609 -120.333)" fill="#fff"/>
      <path id="Path_8882" data-name="Path 8882" d="M431.275,229.527c0,.1-3.923.416-8.779.705s-8.8.45-8.806.356,3.929-.41,8.786-.705S431.268,229.433,431.275,229.527Z" transform="translate(-209.612 -122.487)" fill="#fff"/>
      <path id="Path_8883" data-name="Path 8883" d="M428.342,235.97a6.294,6.294,0,0,1-1.458.215c-.907.087-2.156.181-3.54.262s-2.64.141-3.547.161a6.146,6.146,0,0,1-1.478-.034,6.314,6.314,0,0,1,1.464-.215c.9-.081,2.156-.181,3.54-.262s2.633-.141,3.54-.161a6.535,6.535,0,0,1,1.478.034Z" transform="translate(-211.132 -124.592)" fill="#fff"/>
      <path id="Path_8884" data-name="Path 8884" d="M486.911,172.137,473,179.3l-6.73-.954,3.6-6.381,14.676-5.172Z" transform="translate(-226.875 -101.899)" fill="#ebebeb"/>
      <path id="Path_8885" data-name="Path 8885" d="M465.41,176.672l3.412-5.488,15.073-5.474,3.029,5.958L472.308,177.5Z" transform="translate(-226.593 -101.544)" fill="#455a64"/>
      <path id="Path_8886" data-name="Path 8886" d="M485.437,170.994a8.476,8.476,0,0,1-1.464.672c-.913.376-2.183.873-3.593,1.411l-3.62,1.343c-.92.336-1.531.537-1.491.517-.114-.141,2.176-1.122,4.984-2.2A33.243,33.243,0,0,1,485.437,170.994Z" transform="translate(-229.828 -103.275)" fill="#fff"/>
      <path id="Path_8887" data-name="Path 8887" d="M483.617,175a20.917,20.917,0,0,1-6.717,2.5,30.165,30.165,0,0,1,3.358-1.29A30.543,30.543,0,0,1,483.617,175Z" transform="translate(-230.365 -104.594)" fill="#fff"/>
      <path id="Path_8888" data-name="Path 8888" d="M217.914,164.06s-2.418,23.4.8,28.3l24.3-1.478-1.29-25.994Z" transform="translate(-145.05 -101.002)" fill="#e0e0e0"/>
      <path id="Path_8889" data-name="Path 8889" d="M218.34,164.06s.168,20.359,1.209,26.565l25.524-1.209s-2.243-20.009-1.377-25.356Z" transform="translate(-145.476 -101.002)" fill="#455a64"/>
      <path id="Path_8890" data-name="Path 8890" d="M234.274,168.347h.369a5.875,5.875,0,0,1,1.061.054,5.8,5.8,0,0,1,1.625.477,5.447,5.447,0,0,1,1.767,1.4,6.22,6.22,0,0,1,1.222,2.458,5.978,5.978,0,0,1-.269,3.157,9.465,9.465,0,0,1-.719,1.578,16.121,16.121,0,0,0-.819,1.592,13.822,13.822,0,0,0-1.028,3.62v.087H237.4l-2.519.04-2.646.04h-.094v-.094a7.516,7.516,0,0,0-1.222-3.486c-.309-.524-.672-1.014-.954-1.511a13.826,13.826,0,0,1-.9-1.464,4.89,4.89,0,0,1-.4-3.11,6.643,6.643,0,0,1,.981-2.539,4.869,4.869,0,0,1,1.666-1.5,6.147,6.147,0,0,1,1.565-.6,7.026,7.026,0,0,1,1.041-.175h.007a6.534,6.534,0,0,0-1.028.2,6.214,6.214,0,0,0-1.538.625,4.857,4.857,0,0,0-1.605,1.478,6.522,6.522,0,0,0-.94,2.5,4.769,4.769,0,0,0,.4,3.009,14.027,14.027,0,0,0,.893,1.444c.309.49.672.981.961,1.511a7.637,7.637,0,0,1,1.263,3.58l-.094-.094,2.64-.047,2.519-.034-.087.081a13.521,13.521,0,0,1,1.048-3.674,17.153,17.153,0,0,1,.833-1.605,9.363,9.363,0,0,0,.712-1.545,5.817,5.817,0,0,0,.282-3.07,6.139,6.139,0,0,0-1.175-2.411,5.373,5.373,0,0,0-1.713-1.384,5.869,5.869,0,0,0-1.592-.5,6.4,6.4,0,0,0-1.048-.087h-.369Z" transform="translate(-148.836 -102.408)" fill="#fff"/>
      <path id="Path_8891" data-name="Path 8891" d="M236.869,184.881v-.316l-.141-.913c-.114-.793-.282-1.941-.4-3.358,0-.363-.054-.732-.067-1.122a10.6,10.6,0,0,1,0-1.222,3.318,3.318,0,0,1,.282-1.276,1.941,1.941,0,0,1,.974-.974,1.3,1.3,0,0,1,1.39.262.981.981,0,0,1,.3.672,1.263,1.263,0,0,1-.262.732,1.719,1.719,0,0,1-.618.5,2.955,2.955,0,0,1-.759.249,8.457,8.457,0,0,1-1.605.188,9.325,9.325,0,0,1-1.625-.074,3.049,3.049,0,0,1-.766-.228,2.015,2.015,0,0,1-.672-.457,1.4,1.4,0,0,1-.369-.672,1.175,1.175,0,0,1,.087-.759,1.061,1.061,0,0,1,.537-.517.88.88,0,0,1,.725,0,1.39,1.39,0,0,1,.544.457,1.9,1.9,0,0,1,.269.672,7.389,7.389,0,0,1,.128,1.3c.047.84.087,1.625.128,2.337.067,1.431.128,2.586.168,3.358a5.754,5.754,0,0,0,.04.92v.322a.759.759,0,0,1,0-.081v-.242c0-.215-.034-.524-.06-.92-.047-.8-.114-1.955-.195-3.358-.04-.719-.081-1.5-.128-2.337a8.49,8.49,0,0,0-.134-1.29,1.833,1.833,0,0,0-.262-.611,1.236,1.236,0,0,0-.51-.437.84.84,0,0,0-.672-.034.954.954,0,0,0-.49.484,1.068,1.068,0,0,0-.087.705,1.343,1.343,0,0,0,.356.672,2.257,2.257,0,0,0,1.343.672,9.1,9.1,0,0,0,1.605.074,8.962,8.962,0,0,0,1.6-.181,3.413,3.413,0,0,0,.739-.249,1.626,1.626,0,0,0,.591-.47,1.182,1.182,0,0,0,.242-.672.873.873,0,0,0-.275-.672,1.216,1.216,0,0,0-1.31-.249,1.861,1.861,0,0,0-.934.934,3.358,3.358,0,0,0-.289,1.249c0,.423,0,.826,0,1.216a6.776,6.776,0,0,0,.06,1.122c.107,1.424.269,2.573.369,3.358.054.4.1.672.128.913l.034.242A.731.731,0,0,1,236.869,184.881Z" transform="translate(-150.128 -104.763)" fill="#fff"/>
      <path id="Path_8892" data-name="Path 8892" d="M234,189.584s.034.316.067.846.074,1.343.114,2.21v-.054l1.72,2.015-.087-.034,2.015-.114-.087.04.987-1.209.5-.6v.074c0-1.162-.047-2.264-.074-3.271l.107.1-3.708.04h-1.075a2.931,2.931,0,0,1-.4,0,1.872,1.872,0,0,1,.356,0l1.048-.054,3.775-.148h.107v.107c0,1.008.06,2.109.094,3.271v.047h-.034c-.161.195-.329.4-.49.6-.343.41-.672.813-.994,1.2l-.034.04h-.054l-2.015.094h-.054v-.04l-1.686-2.015h0v-2.3A6.47,6.47,0,0,1,234,189.584Z" transform="translate(-150.617 -109.332)" fill="#fff"/>
      <path id="Path_8893" data-name="Path 8893" d="M239.217,193.627a1.028,1.028,0,0,1-.188-.081c-.121-.054-.3-.128-.517-.2a5.131,5.131,0,0,0-1.793-.275,5.044,5.044,0,0,0-1.773.383,4.78,4.78,0,0,0-.5.235l-.181.087a.818.818,0,0,1,.168-.114,3.746,3.746,0,0,1,.49-.262,4.782,4.782,0,0,1,1.8-.41,4.857,4.857,0,0,1,1.814.3,4.034,4.034,0,0,1,.51.228A.792.792,0,0,1,239.217,193.627Z" transform="translate(-150.703 -110.5)" fill="#fff"/>
      <path id="Path_8894" data-name="Path 8894" d="M239.217,192.447l-.188-.081c-.121-.054-.3-.128-.517-.208a5.146,5.146,0,0,0-1.793-.269,5.044,5.044,0,0,0-1.773.383,3.712,3.712,0,0,0-.5.235.934.934,0,0,1-.181.087,1.207,1.207,0,0,1,.168-.114,3.081,3.081,0,0,1,.49-.262,4.762,4.762,0,0,1,3.614-.107,3.553,3.553,0,0,1,.51.228A.792.792,0,0,1,239.217,192.447Z" transform="translate(-150.703 -110.112)" fill="#fff"/>
      <path id="Path_8895" data-name="Path 8895" d="M239.147,191.317a1.028,1.028,0,0,1-.188-.081c-.121-.054-.3-.128-.517-.2a5.132,5.132,0,0,0-1.793-.275,5.044,5.044,0,0,0-1.773.383,4.779,4.779,0,0,0-.5.235l-.181.094a.905.905,0,0,1,.168-.121,4.632,4.632,0,0,1,4.1-.369,4.508,4.508,0,0,1,.51.228A.794.794,0,0,1,239.147,191.317Z" transform="translate(-150.68 -109.741)" fill="#fff"/>
      <path id="Path_8896" data-name="Path 8896" d="M311.845,247.239c.034,0,0,.316-.329.672a4.151,4.151,0,0,1-1.471,1.014,4.353,4.353,0,0,1-2.445.45c0-.107,1.081-.242,2.3-.772a5.1,5.1,0,0,0,1.431-.867C311.657,247.454,311.791,247.219,311.845,247.239Z" transform="translate(-174.781 -128.311)" fill="#f55a66"/>
      <path id="Path_8897" data-name="Path 8897" d="M444.241,231.935c0-1.135-.054-62.991-.141-161.58l.141.141H197.478l.175-.175V231.9l-.161-.161,246.783.161-246.783.161h-.161V70.18H444.422v.141C444.288,168.951,444.241,230.806,444.241,231.935Z" transform="translate(-138.578 -70.18)" fill="#263238"/>
      <path id="Path_8898" data-name="Path 8898" d="M496.505,270.875l-4.85-8.275-4.6,8.275H421.76V305.01H523.433V270.875Z" transform="translate(-212.262 -133.355)" fill="#f55a66"/>
      <path id="Path_8899" data-name="Path 8899" d="M443.914,296.19a5,5,0,0,0,3.023-4.608,4.7,4.7,0,0,0-9.4-.121,5,5,0,0,0,2.949,4.7c-7.234,1.028-6.972,8.913-6.972,8.913l17.088.222S451.054,297.338,443.914,296.19Z" transform="translate(-216.119 -141.306)" fill="#fafafa"/>
      <path id="Path_8900" data-name="Path 8900" d="M527.526,289.915c0,.1-12.977.175-28.983.175s-28.983-.074-28.983-.175,12.977-.175,28.983-.175S527.526,289.807,527.526,289.915Z" transform="translate(-227.955 -142.265)" fill="#fafafa"/>
      <path id="Path_8901" data-name="Path 8901" d="M527.526,297.645c0,.094-12.977.175-28.983.175s-28.983-.081-28.983-.175,12.977-.175,28.983-.175S527.526,297.551,527.526,297.645Z" transform="translate(-227.955 -144.803)" fill="#fafafa"/>
      <path id="Path_8902" data-name="Path 8902" d="M527.526,305.395c0,.094-12.977.175-28.983.175s-28.983-.081-28.983-.175,12.977-.175,28.983-.175S527.526,305.3,527.526,305.395Z" transform="translate(-227.955 -147.347)" fill="#fafafa"/>
      <path id="Path_8903" data-name="Path 8903" d="M498.543,313.065c0,.094-6.488.175-14.488.175s-14.495-.081-14.495-.175,6.488-.175,14.495-.175S498.543,312.964,498.543,313.065Z" transform="translate(-227.955 -149.866)" fill="#fafafa"/>
    </g>
    <g id="freepik--character-2--inject-168" transform="translate(318.477 115.538)">
      <path id="Path_8904" data-name="Path 8904" d="M558.8,174.153a3.141,3.141,0,0,1-.712-2.868c-.725-.383-.786-1.021-.786-1.834a4.936,4.936,0,0,1,.705-2.317,6.75,6.75,0,0,1,2.613-2.868,3.493,3.493,0,0,1,3.721.161,4.514,4.514,0,0,1,6.462-.45,5.174,5.174,0,0,0,.987.893,5.48,5.48,0,0,0,2.169.289,3.808,3.808,0,0,1,3.15,5.293,4.1,4.1,0,0,1,1.753,3.157,12.14,12.14,0,0,1-.423,3.7,8.55,8.55,0,0,1-1.773,4.185,4.373,4.373,0,0,1-2.788,1.343,4.433,4.433,0,0,1-3.9-1.834" transform="translate(-487.458 -162.824)" fill="#263238"/>
      <path id="Path_8905" data-name="Path 8905" d="M575.289,202.465l-12.037-.551c-.067-1.276.584-9.182.584-9.182s-4.554-.672-4.608-5.259.732-15,.732-15h0a15.811,15.811,0,0,1,15.892,2.015l.672.517Z" transform="translate(-488.091 -165.573)" fill="#b78876"/>
      <path id="Path_8906" data-name="Path 8906" d="M566.073,202.336A10.566,10.566,0,0,0,572,200.65s-1.4,3.278-5.944,2.868Z" transform="translate(-490.334 -175.243)" fill="#aa6550"/>
      <path id="Path_8907" data-name="Path 8907" d="M584.055,183.8c.081-.034,3.13-.927,3.029,2.183a2.336,2.336,0,0,1-3.2,2.277C583.88,188.166,584.055,183.8,584.055,183.8Z" transform="translate(-496.185 -169.664)" fill="#b78876"/>
      <path id="Path_8908" data-name="Path 8908" d="M585.349,187.6s.054.034.141.081a.517.517,0,0,0,.41,0,1.343,1.343,0,0,0,.672-1.182,1.835,1.835,0,0,0-.114-.786.625.625,0,0,0-.4-.43.275.275,0,0,0-.322.141c-.047.081,0,.148-.047.148s-.061-.054-.034-.181a.329.329,0,0,1,.128-.188.416.416,0,0,1,.3-.074.766.766,0,0,1,.551.5,1.847,1.847,0,0,1,.161.873,1.4,1.4,0,0,1-.833,1.343.564.564,0,0,1-.49-.094C585.356,187.674,585.343,187.6,585.349,187.6Z" transform="translate(-496.667 -170.146)" fill="#aa6550"/>
      <path id="Path_8909" data-name="Path 8909" d="M561.81,183.43a.672.672,0,0,0,.625.672.631.631,0,0,0,.672-.591.672.672,0,0,0-.625-.672.625.625,0,0,0-.672.591Z" transform="translate(-488.939 -169.395)" fill="#263238"/>
      <path id="Path_8910" data-name="Path 8910" d="M561.595,182.3c.081.087.571-.275,1.27-.275s1.216.349,1.29.262-.047-.188-.269-.349a1.793,1.793,0,0,0-1.028-.322,1.76,1.76,0,0,0-1.014.329C561.628,182.107,561.555,182.255,561.595,182.3Z" transform="translate(-488.865 -168.992)" fill="#263238"/>
      <path id="Path_8911" data-name="Path 8911" d="M572,183.713a.672.672,0,0,0,.625.672.625.625,0,0,0,.672-.584.672.672,0,0,0-.631-.672.611.611,0,0,0-.665.584Z" transform="translate(-492.285 -169.49)" fill="#263238"/>
      <path id="Path_8912" data-name="Path 8912" d="M571.825,182.5c.081.081.578-.282,1.276-.282s1.209.356,1.283.269-.04-.195-.269-.356a1.78,1.78,0,0,0-1.028-.316,1.686,1.686,0,0,0-1.014.329C571.858,182.3,571.785,182.455,571.825,182.5Z" transform="translate(-492.224 -169.058)" fill="#263238"/>
      <path id="Path_8913" data-name="Path 8913" d="M567.187,187.707a4.642,4.642,0,0,0-1.135-.208c-.175,0-.343-.054-.376-.175a.928.928,0,0,1,.121-.531c.168-.43.343-.887.531-1.343a22.665,22.665,0,0,0,1.182-3.56,23.925,23.925,0,0,0-1.471,3.452l-.5,1.343a1.048,1.048,0,0,0-.094.672.437.437,0,0,0,.3.262,1.04,1.04,0,0,0,.3.04A4.528,4.528,0,0,0,567.187,187.707Z" transform="translate(-490.125 -169.084)" fill="#263238"/>
      <path id="Path_8914" data-name="Path 8914" d="M570.03,191.27c-.114,0-.114.752-.766,1.29s-1.458.457-1.464.557.181.148.524.161a1.934,1.934,0,0,0,1.223-.43,1.632,1.632,0,0,0,.591-1.081C570.164,191.451,570.084,191.263,570.03,191.27Z" transform="translate(-490.906 -172.164)" fill="#263238"/>
      <path id="Path_8915" data-name="Path 8915" d="M571.559,178.495c.074.188.772.094,1.592.195s1.484.322,1.592.154-.067-.262-.336-.443a2.566,2.566,0,0,0-1.209-.41,2.686,2.686,0,0,0-1.243.148C571.686,178.253,571.532,178.4,571.559,178.495Z" transform="translate(-492.139 -167.798)" fill="#263238"/>
      <path id="Path_8916" data-name="Path 8916" d="M561.988,179.271c.128.154.6,0,1.189,0s1.068.107,1.182-.06,0-.242-.242-.39a1.659,1.659,0,0,0-.967-.262,1.6,1.6,0,0,0-.94.322C561.988,179.029,561.921,179.191,561.988,179.271Z" transform="translate(-488.989 -167.99)" fill="#263238"/>
      <path id="Path_8917" data-name="Path 8917" d="M576.385,173.948a32.2,32.2,0,0,1,0,4.1c-.04.195-.551.725-.591.92-.269,1.149-.746,1.646-1.431.457a10.124,10.124,0,0,1-.537-2.243l-.826-4.2a7.288,7.288,0,0,1-3.459.819,3.533,3.533,0,0,1-2.955-1.746,3.681,3.681,0,0,1-5.7.752,1.538,1.538,0,0,1-2.015.43,1.82,1.82,0,0,1-.739-2.015,3.441,3.441,0,0,1,2.613-2.015,16.728,16.728,0,0,1,13,2.015,6.313,6.313,0,0,1,1.572,1.182c.443.484,1.061,1.055,1.081,1.713" transform="translate(-487.71 -164.736)" fill="#263238"/>
      <path id="Path_8918" data-name="Path 8918" d="M560.814,231.156l4.641-12.648c-.967-3.251-4.44-6.771-9.269-7.691a30.2,30.2,0,0,0-4.829-.927h0a9.5,9.5,0,0,1-11.593.141l-.168-.121c-.464.054-1.081.114-1.854.208h-.154a11.379,11.379,0,0,0-5.327,2.123h0L508.033,226.7l-14.226-10.814-7.207,5.649s18.639,18.639,20.446,19.083c1.256.309,13.689-6.482,21.225-10.686-.309,4.514-2.015,29.6-1.914,33.027h34.619V242.836Z" transform="translate(-464.246 -178.277)" fill="#455a64"/>
      <path id="Path_8919" data-name="Path 8919" d="M577,249.906s16.859,7.436,18.471,7.785c5.374,1.175,10.27-3.311,9.484-7.536-.4-2.2-9.894-28.285-9.894-28.285l-6.824,10.163,3.4,13.272L581.373,244Z" transform="translate(-493.926 -182.21)" fill="#455a64"/>
      <path id="Path_8920" data-name="Path 8920" d="M591.816,267.176a1.182,1.182,0,0,0-.269-.148l-.806-.4-3.029-1.411-10.317-4.7.067.208,1.975-3.533c.423-.752.84-1.5,1.229-2.2l-.148.081,12.339,1.209,3.667.329.994.074a1.344,1.344,0,0,0,.343,0,1.418,1.418,0,0,0-.336-.06l-.987-.128-3.661-.423-12.332-1.343h-.094l-.054.087c-.39.705-.806,1.444-1.229,2.2-.672,1.209-1.343,2.391-1.968,3.533l-.081.148.148.067,10.364,4.614,3.063,1.343.826.343a1.222,1.222,0,0,0,.3.107Z" transform="translate(-493.966 -192.999)" fill="#263238"/>
      <path id="Path_8921" data-name="Path 8921" d="M574.56,250.644,576,243.611s-17.779-.228-17.585.087,1.881,16.12,1.881,16.12,12.507-.47,12.043-.43Z" transform="translate(-487.825 -189.322)" fill="#263238"/>
      <path id="Path_8922" data-name="Path 8922" d="M576.387,249.35h0a1.646,1.646,0,0,0-1.545,1.055,3.628,3.628,0,0,1-1.055,1.686,3.742,3.742,0,0,1-2.814.416c-.705-.343-3.513-2.875-4.03-2.593s-.913.914-.423,1.471,3.09,2.25,2.6,2.814-5.978-1.914-6.818-1.693-1.343.732-.846,1.075,4.218,1.74,4.433,2.237c0,0-5.629-1.478-5.837-1.128s-.564.913,0,1.128,5.414,1.471,5.837,1.686a10.306,10.306,0,0,0,2.163.631,23.543,23.543,0,0,1,2.27.719,4.931,4.931,0,0,0,3.493-.094l.571-.235a2.217,2.217,0,0,0,1.384-2.2l-.114-1.921.618-1.578Z" transform="translate(-488.262 -191.232)" fill="#b78876"/>
      <path id="Path_8923" data-name="Path 8923" d="M597.125,247.811c-.1,0-.175-4.03-.175-9.021s.074-9.021.175-9.021.175,4.03.175,9.021S597.219,247.811,597.125,247.811Z" transform="translate(-500.476 -184.804)" fill="#263238"/>
      <path id="Path_8924" data-name="Path 8924" d="M548.766,223.78a4.457,4.457,0,0,1,0,.833c0,.6-.04,1.343-.06,2.257-.074,1.9-.195,4.534-.349,7.436s-.322,5.535-.45,7.436c-.074.893-.134,1.646-.181,2.25a3.424,3.424,0,0,1-.114.826,4.53,4.53,0,0,1,0-.833c0-.6.04-1.343.067-2.257.067-1.9.188-4.534.349-7.442s.316-5.535.45-7.436c.067-.893.128-1.646.175-2.25A3.316,3.316,0,0,1,548.766,223.78Z" transform="translate(-484.271 -182.837)" fill="#263238"/>
      <path id="Path_8925" data-name="Path 8925" d="M581.315,229.685c0,.1-7.046.175-15.744.175s-15.751-.074-15.751-.175,7.053-.175,15.751-.175S581.315,229.591,581.315,229.685Z" transform="translate(-485.003 -184.718)" fill="#fff"/>
      <path id="Path_8926" data-name="Path 8926" d="M581.169,232.3c0,.094-7.16.175-15.986.175s-15.993-.081-15.993-.175,7.16-.175,15.993-.175S581.169,232.2,581.169,232.3Z" transform="translate(-484.796 -185.579)" fill="#fff"/>
      <path id="Path_8927" data-name="Path 8927" d="M581.8,235.655c0,.1-7.053.175-15.751.175s-15.751-.074-15.751-.175,7.053-.175,15.751-.175S581.8,235.561,581.8,235.655Z" transform="translate(-485.16 -186.678)" fill="#fff"/>
      <path id="Path_8928" data-name="Path 8928" d="M591.833,256.65a35.708,35.708,0,0,1-1.948,3.815,37.035,37.035,0,0,1-2.076,3.741,20.458,20.458,0,0,1,1.767-3.909,20.888,20.888,0,0,1,2.257-3.647Z" transform="translate(-497.475 -193.629)" fill="#263238"/>
      <path id="Path_8929" data-name="Path 8929" d="M594.592,257.37a32.387,32.387,0,0,1-4.312,7.483,38.705,38.705,0,0,1,2.1-3.768,37.653,37.653,0,0,1,2.21-3.714Z" transform="translate(-498.286 -193.865)" fill="#263238"/>
      <path id="Path_8930" data-name="Path 8930" d="M499.474,223.41a28.469,28.469,0,0,1-3.479,3.311,33.9,33.9,0,0,1-3.735,3.023,32.853,32.853,0,0,1,3.5-3.291c1-.873,1.914-1.646,2.586-2.2A6.824,6.824,0,0,1,499.474,223.41Z" transform="translate(-466.105 -182.716)" fill="#263238"/>
      <path id="Path_8931" data-name="Path 8931" d="M501.9,225.24a33.055,33.055,0,0,1-3.526,3.358c-1,.887-1.921,1.679-2.6,2.237a5.448,5.448,0,0,1-1.149.846,5.933,5.933,0,0,1,.981-1.034c.672-.6,1.531-1.424,2.539-2.311s1.928-1.672,2.606-2.23A6.267,6.267,0,0,1,501.9,225.24Z" transform="translate(-466.883 -183.317)" fill="#263238"/>
      <path id="Path_8932" data-name="Path 8932" d="M553.281,454.606v-6.045l11.378-.141.148,8.886-.672.054c-3.137.215-15.966.86-18.075.249C543.649,456.9,553.281,454.606,553.281,454.606Z" transform="translate(-483.641 -256.59)" fill="#f55a66"/>
      <g id="Group_7228" data-name="Group 7228" transform="translate(77.029 197.344)" opacity="0.4">
        <path id="Path_8933" data-name="Path 8933" d="M568,459.934a3.969,3.969,0,0,1,1.424-2.438,3.808,3.808,0,0,1,2.653-.86l.04,3.177Z" transform="translate(-568 -456.629)"/>
      </g>
      <g id="Group_7229" data-name="Group 7229" transform="translate(61.961 199.306)" opacity="0.4">
        <path id="Path_8934" data-name="Path 8934" d="M548.545,459.55s-3.358,1.021-2.942,1.572,13.434.39,19.143-.188v-.255L549.592,461S549.216,459.57,548.545,459.55Z" transform="translate(-545.567 -459.55)"/>
      </g>
      <path id="Path_8935" data-name="Path 8935" d="M564.914,461.22h-.195l-.564.04-2.062.114c-1.746.087-4.158.168-6.824.208s-5.085,0-6.831,0l-2.069-.06h8.893c2.667,0,5.078-.107,6.824-.168l2.069-.067h.564a.868.868,0,0,1,.195-.067Z" transform="translate(-483.62 -260.793)" fill="#263238"/>
      <path id="Path_8936" data-name="Path 8936" d="M550.995,461.137a4.942,4.942,0,0,0-.4-.987,4.816,4.816,0,0,0-.712-.779A1.847,1.847,0,0,1,551,461.137Z" transform="translate(-485.022 -260.185)" fill="#263238"/>
      <path id="Path_8937" data-name="Path 8937" d="M556.2,458.92a2.351,2.351,0,0,1-.363-.437c-.168-.262-.282-.484-.249-.5s.195.175.363.43S556.232,458.9,556.2,458.92Z" transform="translate(-486.894 -259.728)" fill="#263238"/>
      <path id="Path_8938" data-name="Path 8938" d="M557.517,458.329a1.893,1.893,0,0,1-.41-.269c-.2-.175-.336-.336-.309-.363s.2.087.4.262S557.537,458.3,557.517,458.329Z" transform="translate(-487.292 -259.635)" fill="#263238"/>
      <path id="Path_8939" data-name="Path 8939" d="M558.129,456.965a1.41,1.41,0,0,1-.591.081,1.458,1.458,0,0,1-.6-.054,1.384,1.384,0,0,1,.591-.087A1.283,1.283,0,0,1,558.129,456.965Z" transform="translate(-487.34 -259.372)" fill="#263238"/>
      <path id="Path_8940" data-name="Path 8940" d="M558.343,455.89a1.169,1.169,0,0,1-.672.2,1.142,1.142,0,0,1-.672-.081,3.654,3.654,0,0,1,.672-.054A4.119,4.119,0,0,1,558.343,455.89Z" transform="translate(-487.36 -259.043)" fill="#263238"/>
      <path id="Path_8941" data-name="Path 8941" d="M554.859,457.422a2.118,2.118,0,0,1-.732,0,4.034,4.034,0,0,1-.779-.161,2.014,2.014,0,0,1-.45-.175.376.376,0,0,1-.181-.228.282.282,0,0,1,.107-.289,1.343,1.343,0,0,1,1.908.853.477.477,0,0,1,0,.195,2.216,2.216,0,0,0-.342-.618,1.343,1.343,0,0,0-.631-.4,1.115,1.115,0,0,0-.866.074c-.114.087-.067.222.06.3a2.077,2.077,0,0,0,.417.168,4.391,4.391,0,0,0,.752.188C554.577,457.4,554.859,457.395,554.859,457.422Z" transform="translate(-485.951 -259.218)" fill="#263238"/>
      <path id="Path_8942" data-name="Path 8942" d="M555.578,457.3a.726.726,0,0,1-.094-.51,1.249,1.249,0,0,1,.195-.537.726.726,0,0,1,.6-.376.282.282,0,0,1,.228.329.8.8,0,0,1-.121.329,2.372,2.372,0,0,1-.336.45,1.067,1.067,0,0,1-.416.3s.141-.134.343-.369a2.411,2.411,0,0,0,.3-.443c.094-.154.161-.437,0-.463s-.369.168-.477.316a1.194,1.194,0,0,0-.2.477,2.226,2.226,0,0,0-.027.5Z" transform="translate(-486.858 -259.039)" fill="#263238"/>
      <path id="Path_8943" data-name="Path 8943" d="M572.042,456.555s-.329,0-.84.04a3.667,3.667,0,0,0-1.827.779,3.709,3.709,0,0,0-1.128,1.632c-.161.49-.175.819-.2.819a.787.787,0,0,1,0-.228,3.359,3.359,0,0,1,.121-.618,3.479,3.479,0,0,1,1.128-1.713,3.54,3.54,0,0,1,1.9-.766,2.683,2.683,0,0,1,.625,0A.844.844,0,0,1,572.042,456.555Z" transform="translate(-490.984 -259.237)" fill="#263238"/>
      <path id="Path_8944" data-name="Path 8944" d="M572.083,449.56a19.717,19.717,0,0,1,.128,2.337,21.345,21.345,0,0,1,0,2.337,19.386,19.386,0,0,1-.128-2.331A19.685,19.685,0,0,1,572.083,449.56Z" transform="translate(-492.3 -256.964)" fill="#263238"/>
      <path id="Path_8945" data-name="Path 8945" d="M564.195,459.926a6.515,6.515,0,0,1-1.659.188A6.656,6.656,0,0,1,560.87,460c0-.04.746,0,1.666,0S564.188,459.885,564.195,459.926Z" transform="translate(-488.63 -260.365)" fill="#263238"/>
      <path id="Path_8946" data-name="Path 8946" d="M568.985,459.878s-.06.161-.134.329-.114.322-.148.322-.06-.175,0-.376S568.958,459.851,568.985,459.878Z" transform="translate(-491.19 -260.351)" fill="#263238"/>
      <path id="Path_8947" data-name="Path 8947" d="M570.164,458.307a.675.675,0,0,1-.161.269c-.121.121-.228.195-.255.168s.04-.148.161-.269S570.137,458.28,570.164,458.307Z" transform="translate(-491.543 -259.834)" fill="#263238"/>
      <path id="Path_8948" data-name="Path 8948" d="M571.836,457.547c0,.034-.154.034-.322.1s-.289.148-.316.121.06-.181.269-.255S571.849,457.507,571.836,457.547Z" transform="translate(-492.02 -259.565)" fill="#263238"/>
      <path id="Path_8949" data-name="Path 8949" d="M573.255,457.206c0,.04-.047.094-.141.134s-.181.04-.195,0,.047-.094.141-.134S573.242,457.173,573.255,457.206Z" transform="translate(-492.586 -259.466)" fill="#263238"/>
      <path id="Path_8950" data-name="Path 8950" d="M608.47,451.88l1.088,4.554s7.449,9.679,9.746,9.2c1.5-.309-.349-2.835-3.177-10.183l-.6-3.036Z" transform="translate(-504.258 -257.726)" fill="#f55a66"/>
      <path id="Path_8951" data-name="Path 8951" d="M620.066,465.9a1.021,1.021,0,0,1-.4.376,1.384,1.384,0,0,1-1.431-.195,42.154,42.154,0,0,1-3.708-3.513c-1.343-1.451-2.532-2.841-3.358-3.869l-.947-1.222-.262-.336-.094-.114s0,.047.074.128l.235.349c.215.3.524.732.92,1.256a49.917,49.917,0,0,0,3.358,3.9,36.6,36.6,0,0,0,3.755,3.5,1.813,1.813,0,0,0,.84.309,1.2,1.2,0,0,0,.672-.148.839.839,0,0,0,.316-.289.4.4,0,0,0,.027-.134Z" transform="translate(-504.718 -259.417)" fill="#263238"/>
      <path id="Path_8952" data-name="Path 8952" d="M621.917,465.568a1.189,1.189,0,0,0-.611-.074,3.2,3.2,0,0,0-1.4.49,2.525,2.525,0,0,0-1.021,1.081,1.3,1.3,0,0,0-.161.591,3.456,3.456,0,0,1,.242-.551,2.754,2.754,0,0,1,1.008-1.008,3.6,3.6,0,0,1,1.343-.5A5.568,5.568,0,0,1,621.917,465.568Z" transform="translate(-507.623 -262.192)" fill="#263238"/>
      <path id="Path_8953" data-name="Path 8953" d="M611.8,459.992a1.055,1.055,0,0,0,.087-.222,3.749,3.749,0,0,0,.148-.625,3.358,3.358,0,0,0-.349-2.069,3.183,3.183,0,0,0-1.5-1.464,2.234,2.234,0,0,0-.611-.188.672.672,0,0,0-.235,0,5.486,5.486,0,0,1,.806.3,3.251,3.251,0,0,1,1.424,1.437,3.479,3.479,0,0,1,.376,2.015A6.049,6.049,0,0,0,611.8,459.992Z" transform="translate(-504.541 -258.887)" fill="#263238"/>
      <path id="Path_8954" data-name="Path 8954" d="M609.18,453s.134.672.275,1.458a5.042,5.042,0,0,0,.383,1.431c.034,0-.114-.672-.255-1.458A4.827,4.827,0,0,0,609.18,453Z" transform="translate(-504.491 -258.094)" fill="#263238"/>
      <path id="Path_8955" data-name="Path 8955" d="M619.174,458.126a1.666,1.666,0,0,0-.954,0,1.639,1.639,0,0,0-.86.4c0,.04.39-.161.893-.275S619.174,458.166,619.174,458.126Z" transform="translate(-507.177 -259.754)" fill="#263238"/>
      <path id="Path_8956" data-name="Path 8956" d="M619.551,459.285a1.176,1.176,0,0,0-.806,0,1.115,1.115,0,0,0-.705.39,3.4,3.4,0,0,1,.739-.262C619.2,459.319,619.545,459.326,619.551,459.285Z" transform="translate(-507.4 -260.134)" fill="#263238"/>
      <path id="Path_8957" data-name="Path 8957" d="M620.425,460.713a1.229,1.229,0,0,0-1.545.349,3.293,3.293,0,0,1,.739-.329A3.689,3.689,0,0,1,620.425,460.713Z" transform="translate(-507.676 -260.581)" fill="#263238"/>
      <path id="Path_8958" data-name="Path 8958" d="M617.967,456.74s-.343-.094-.873-.3a6.783,6.783,0,0,1-.9-.437,4.7,4.7,0,0,1-.5-.316c-.148-.107-.316-.275-.309-.45s.222-.275.4-.228a1.069,1.069,0,0,1,.457.3,6.864,6.864,0,0,1,.672.719c.383.43.591.712.611.672a1.033,1.033,0,0,0-.128-.215,6.7,6.7,0,0,0-.41-.544,9.068,9.068,0,0,0-.672-.746,1.148,1.148,0,0,0-.517-.343.423.423,0,0,0-.558.349.725.725,0,0,0,.369.564,4.211,4.211,0,0,0,.51.316,5.63,5.63,0,0,0,.927.416,5.14,5.14,0,0,0,.672.181A.965.965,0,0,0,617.967,456.74Z" transform="translate(-506.481 -258.697)" fill="#263238"/>
      <path id="Path_8959" data-name="Path 8959" d="M618.715,456.338s.047-.322.134-.833a3.675,3.675,0,0,1,.255-.86,1.772,1.772,0,0,1,.275-.437c.114-.128.289-.242.423-.161a.471.471,0,0,1,.141.457,1.942,1.942,0,0,1-.148.5,2.791,2.791,0,0,1-.484.752c-.343.383-.618.564-.6.584a.674.674,0,0,0,.195-.114,3.364,3.364,0,0,0,.47-.4,2.886,2.886,0,0,0,.531-.766,1.863,1.863,0,0,0,.161-.537.558.558,0,0,0-.2-.584.484.484,0,0,0-.584.188,1.806,1.806,0,0,0-.3.477,3.273,3.273,0,0,0-.235.893c0,.262-.04.477-.047.618S618.7,456.338,618.715,456.338Z" transform="translate(-507.618 -258.389)" fill="#263238"/>
      <g id="Group_7230" data-name="Group 7230" transform="translate(104.776 196.518)" opacity="0.4">
        <path id="Path_8960" data-name="Path 8960" d="M609.834,457.59l-.524-2.19s1.82.343,2.3,1.706a5.811,5.811,0,0,1,.356,2.337l3.963,4.272s1-1.941,2.8-1.478c0,0,1.417,3.123,1.343,3.9s-.954.672-1.276.544a15.968,15.968,0,0,1-3.553-2.808A81.8,81.8,0,0,1,609.834,457.59Z" transform="translate(-609.31 -455.4)"/>
      </g>
      <path id="Path_8961" data-name="Path 8961" d="M545.59,284.44l5.42,114.683,14.891.356-1.175-99.436L587,399.667l11.963-.544L579.8,284.675Z" transform="translate(-483.614 -202.753)" fill="#263238"/>
      <path id="Path_8962" data-name="Path 8962" d="M568.649,286.75a10.223,10.223,0,0,0,.134,1.887c.121,1.155.309,2.754.544,4.52a18.026,18.026,0,0,0,.41,2.492,3.513,3.513,0,0,0,1.095,1.78,2.734,2.734,0,0,0,1.263.625,1.007,1.007,0,0,0,.517,0,3.17,3.17,0,0,1-2.593-2.485,21.3,21.3,0,0,1-.383-2.458c-.235-1.767-.457-3.358-.672-4.514A11.421,11.421,0,0,0,568.649,286.75Z" transform="translate(-491.184 -203.511)" fill="#455a64"/>
      <path id="Path_8963" data-name="Path 8963" d="M573.462,287.618c-.04,0,.1.215,0,.517a.611.611,0,0,1-.316.369.49.49,0,0,1-.524-.128.477.477,0,0,1-.148-.511.591.591,0,0,1,.349-.336.7.7,0,0,1,.51,0c.02,0-.154-.269-.571-.188a.766.766,0,1,0,.51,1.437.779.779,0,0,0,.4-.578C573.738,287.779,573.476,287.584,573.462,287.618Z" transform="translate(-492.336 -203.701)" fill="#455a64"/>
      <path id="Path_8964" data-name="Path 8964" d="M588.052,289.157a3.358,3.358,0,0,0-.222-3.177c-.087,0,.148.712.2,1.578S587.938,289.13,588.052,289.157Z" transform="translate(-497.476 -203.258)" fill="#455a64"/>
      <path id="Path_8965" data-name="Path 8965" d="M584.944,288.771a2.841,2.841,0,0,0,.316-1.666,2.8,2.8,0,0,0-.43-1.646,14.274,14.274,0,0,0,.114,1.652A12.84,12.84,0,0,0,584.944,288.771Z" transform="translate(-496.497 -203.088)" fill="#455a64"/>
      <path id="Path_8966" data-name="Path 8966" d="M557.567,288.4a10.391,10.391,0,0,0-.04-1.713,10.12,10.12,0,0,0,0-1.713,3.189,3.189,0,0,0-.3,1.72A3.137,3.137,0,0,0,557.567,288.4Z" transform="translate(-487.43 -202.927)" fill="#455a64"/>
      <path id="Path_8967" data-name="Path 8967" d="M554.047,288.046c.087-.034-.161-.793-.188-1.746s.161-1.733.074-1.76a2.774,2.774,0,0,0-.383,1.767,2.814,2.814,0,0,0,.5,1.74Z" transform="translate(-486.221 -202.786)" fill="#455a64"/>
      <path id="Path_8968" data-name="Path 8968" d="M583.78,209.63Z" transform="translate(-496.152 -178.191)" fill="#f55a66"/>
      <path id="Path_8969" data-name="Path 8969" d="M487.706,216.348s-2.747-4.648-3.392-5.132-6.421-2.492-6.912-2.331-7.388,1.464-6.6,2.277,5.642-.168,5.642-.168l.672.316a29.934,29.934,0,0,0-5.051,1.263c-.873.524-.51,1.471.255,1.343a39.5,39.5,0,0,1,4.614-.712c.222.141-3.943,1.048-4.386,1.343-.6.363-.672,1.444.121,1.377.45-.04,4.366-1.122,4.366-1.122a34.008,34.008,0,0,0-3.358,1.531c-.463.457-.081,1.128.6.967.463-.107,2.646-1.2,3.264-1.343,0,0,.584.148,1.135,1.343s3.446,3.473,3.446,3.473Z" transform="translate(-459.038 -177.944)" fill="#b78876"/>
      <path id="Path_8970" data-name="Path 8970" d="M470.83,212.086a3.1,3.1,0,0,0,1.269.329,7.551,7.551,0,0,0,1.437.04c.531-.067,1.108-.161,1.72-.255l1.29-.215h-.081a19.258,19.258,0,0,0,3.016.887,18.37,18.37,0,0,0-2.915-1.182h-.074l-1.283.195-1.7.275a9.061,9.061,0,0,1-1.39.034C471.327,212.147,470.843,212.039,470.83,212.086Z" transform="translate(-459.069 -178.868)" fill="#aa6550"/>
      <path id="Path_8971" data-name="Path 8971" d="M460.037,207.36s-5.011,15.2-6.717,18.27l17.061,5.212,3.1-1.981s4.144-12.238,4.668-16.349Z" transform="translate(-453.32 -177.446)" fill="#455a64"/>
      <path id="Path_8972" data-name="Path 8972" d="M479.66,238.53l-.9,2.546,3.1-1.981Z" transform="translate(-461.672 -187.68)" fill="#263238"/>
      <path id="Path_8973" data-name="Path 8973" d="M477.117,220.809a11.975,11.975,0,0,1-1.908-.6l-4.561-1.572-4.567-1.5a12.352,12.352,0,0,1-1.881-.672,11.759,11.759,0,0,1,1.955.437c1.2.322,2.835.813,4.621,1.411s3.392,1.2,4.541,1.666a10.079,10.079,0,0,1,1.8.826Z" transform="translate(-456.892 -180.437)" fill="#fff"/>
      <path id="Path_8974" data-name="Path 8974" d="M475.2,226a10.56,10.56,0,0,1-1.874-.423c-1.142-.309-2.687-.772-4.433-1.343s-3.258-1.122-4.359-1.552a10,10,0,0,1-1.76-.772,10.843,10.843,0,0,1,1.84.537L469,223.9l4.393,1.431A11.056,11.056,0,0,1,475.2,226Z" transform="translate(-456.423 -182.223)" fill="#fff"/>
      <path id="Path_8975" data-name="Path 8975" d="M473.145,230.755A54.169,54.169,0,0,1,467.4,229a51.2,51.2,0,0,1-5.622-2.082,103.982,103.982,0,0,1,11.365,3.835Z" transform="translate(-456.098 -183.868)" fill="#fff"/>
      <path id="Path_8976" data-name="Path 8976" d="M489.407,218.961a1.377,1.377,0,0,1-1.612,0,16.154,16.154,0,0,1-1.343-1.068c-1.424-.967-3.459-.672-4.843-1.74-.188-.141-.383-.383-.282-.6s.363-.228.591-.228l5.723.047" transform="translate(-462.506 -180.06)" fill="#b78876"/>
      <path id="Path_8977" data-name="Path 8977" d="M487.522,215.331a2.143,2.143,0,0,0-.618-.074l-1.686-.06-2.505-.054h-.725a1.129,1.129,0,0,0-.833.188.477.477,0,0,0-.087.537.88.88,0,0,0,.3.363,3.177,3.177,0,0,0,.725.43,21.6,21.6,0,0,0,2.976.8,4.452,4.452,0,0,1,1.189.517c.336.222.618.49.9.712a2.015,2.015,0,0,0,1.619.544c.423-.087.557-.322.544-.322a1.638,1.638,0,0,1-.557.195,1.934,1.934,0,0,1-1.458-.591,11.274,11.274,0,0,0-.92-.786,4.1,4.1,0,0,0-1.249-.578,26.357,26.357,0,0,1-2.929-.813,3.317,3.317,0,0,1-.672-.383c-.188-.148-.282-.349-.181-.43a1.136,1.136,0,0,1,.6-.094h3.231c.712,0,1.29,0,1.686-.04A2.433,2.433,0,0,0,487.522,215.331Z" transform="translate(-462.415 -179.996)" fill="#aa6550"/>
    </g>
    <g id="freepik--character-1--inject-168" transform="translate(187.197 108.309)">
      <path id="Path_8978" data-name="Path 8978" d="M290.685,176.713a5.219,5.219,0,0,0-2.136-5.226,5.629,5.629,0,0,0-5.682-.3,6.119,6.119,0,0,0-3.137,4.8c-.188,2.25.826,4.393,1.693,6.475s1.619,4.413.9,6.549c-.591,1.767-2.076,3.049-3.358,4.406a8.927,8.927,0,0,0-2.512,4.326,4.093,4.093,0,0,0,1.814,4.373,2.351,2.351,0,0,1,.947.618c.416.591,0,1.377-.3,2.015a4.662,4.662,0,0,0-.155,3.15,5.474,5.474,0,0,0,5.521,3.567,7.731,7.731,0,0,0,5.8-3.6,13.339,13.339,0,0,0,1.948-6.717,50.711,50.711,0,0,0-.4-7.059c-.551-5.9,2.2-12,2.5-17.921" transform="translate(-263.945 -158.136)" fill="#263238"/>
      <path id="Path_8979" data-name="Path 8979" d="M303.127,214.884h0a5.911,5.911,0,0,0,6.354-5.662c.121-3.217.228-6.462.228-6.462s4.87-.457,5.226-5.279.188-15.946.188-15.946h0A16.792,16.792,0,0,0,298.15,182.6l.3,16.967v9.128C298.486,211.775,300.064,214.649,303.127,214.884Z" transform="translate(-271.095 -161.144)" fill="#ffbe9d"/>
      <path id="Path_8980" data-name="Path 8980" d="M308.91,189.629a2.465,2.465,0,0,0-3.3-.719,2.8,2.8,0,0,0-.934,3.5,3.721,3.721,0,0,0,2.364,1.793,1.84,1.84,0,0,1,1.451,2.015,6.206,6.206,0,0,1-1.693,3.358,8.907,8.907,0,0,1-5.575,2.646c-2.055.242-4.406-.188-5.6-1.874a7.6,7.6,0,0,1-.961-4.339l-.228-10.68a15.208,15.208,0,0,1,.242-3.829,5.165,5.165,0,0,1,2.015-3.164c1.175-.772,2.687-.833,4-1.269a33.037,33.037,0,0,0,4.648-2.445c1.565-.8,3.479-1.276,5.044-.49,1.128.564,1.881,1.693,2.976,2.311,1.558.887,3.681.672,4.433,2.976a3.922,3.922,0,0,1,0,2.452,5.665,5.665,0,0,1-7.7,3.029,7.627,7.627,0,0,1-.087,3.358c-.181.537-.242,1.343-1.075,1.343" transform="translate(-269.865 -159.177)" fill="#263238"/>
      <path id="Path_8981" data-name="Path 8981" d="M293.887,202.731a14.475,14.475,0,0,1-.779-20.151" transform="translate(-268.222 -162.082)" fill="#263238"/>
      <path id="Path_8982" data-name="Path 8982" d="M297.879,204.614a1.087,1.087,0,0,1-.249.074,2.82,2.82,0,0,1-.732,0,4.07,4.07,0,0,1-2.358-1.229,12.163,12.163,0,0,1-2.129-3.358,21.454,21.454,0,0,1-1.585-4.567,17.319,17.319,0,0,1-.41-4.823,15.185,15.185,0,0,1,.732-3.882,12.915,12.915,0,0,1,1.088-2.432c.161-.275.3-.477.39-.611s.154-.2.161-.195a21.425,21.425,0,0,0-1.4,3.311,16.065,16.065,0,0,0-.672,3.822,17.739,17.739,0,0,0,.43,4.7,21.907,21.907,0,0,0,1.538,4.507,12.326,12.326,0,0,0,2.015,3.3,4.1,4.1,0,0,0,2.2,1.269A5.972,5.972,0,0,0,297.879,204.614Z" transform="translate(-268.547 -162.413)" fill="#455a64"/>
      <path id="Path_8983" data-name="Path 8983" d="M294.1,183.3c.054,0,.43.672,1.155,1.787a23.442,23.442,0,0,0,3.264,3.923,23.7,23.7,0,0,0,4.03,3.1c1.122.672,1.861,1.028,1.834,1.081a2.1,2.1,0,0,1-.551-.181q-.722-.3-1.411-.672a19.989,19.989,0,0,1-4.171-3.07,19.478,19.478,0,0,1-3.231-4.03,14.111,14.111,0,0,1-.746-1.384,2.016,2.016,0,0,1-.175-.557Z" transform="translate(-269.765 -162.318)" fill="#455a64"/>
      <path id="Path_8984" data-name="Path 8984" d="M303.981,190.465a5.877,5.877,0,0,1-1.558-.772,17.928,17.928,0,0,1-5.9-5.924,6.046,6.046,0,0,1-.766-1.558,13.648,13.648,0,0,1,.974,1.424,22.065,22.065,0,0,0,5.824,5.85A15.33,15.33,0,0,1,303.981,190.465Z" transform="translate(-270.31 -161.96)" fill="#455a64"/>
      <path id="Path_8985" data-name="Path 8985" d="M310.655,190.038a2.485,2.485,0,0,1-.672-.054,13.271,13.271,0,0,1-1.787-.363,18.727,18.727,0,0,1-9.84-6.6,12.821,12.821,0,0,1-1.014-1.511,2.371,2.371,0,0,1-.3-.6c.054,0,.544.786,1.511,1.955a20.977,20.977,0,0,0,4.393,3.97,20.742,20.742,0,0,0,5.333,2.546C309.728,189.83,310.668,189.978,310.655,190.038Z" transform="translate(-270.73 -161.533)" fill="#455a64"/>
      <path id="Path_8986" data-name="Path 8986" d="M285.659,207.8a2.577,2.577,0,0,0,.208-.423,2.116,2.116,0,0,0,.06-1.3,3.17,3.17,0,0,0-1.155-1.706c-.638-.531-1.491-.947-2.384-1.538a5.373,5.373,0,0,1-1.249-1.135,3.117,3.117,0,0,1-.638-1.74,5.837,5.837,0,0,1,1.4-3.728,20.981,20.981,0,0,0,2.552-3.5,7.872,7.872,0,0,0,.5-4.5,20.822,20.822,0,0,0-1.29-4.473,33.7,33.7,0,0,1-1.4-4.164,7.044,7.044,0,0,1-.047-4.03,2.915,2.915,0,0,1,1.182-1.424,2.183,2.183,0,0,1,1.7-.222,5.226,5.226,0,0,1,2.311,1.706l1.411,1.619.887,1.034a3.435,3.435,0,0,1,.289.376,3.611,3.611,0,0,1-.343-.329l-.934-.987-1.451-1.585a5.206,5.206,0,0,0-2.23-1.6,1.948,1.948,0,0,0-1.5.215,2.687,2.687,0,0,0-1.055,1.3,6.684,6.684,0,0,0,.094,3.815,33.951,33.951,0,0,0,1.4,4.117,20.819,20.819,0,0,1,1.343,4.541,8.262,8.262,0,0,1-.544,4.7,20.253,20.253,0,0,1-2.606,3.547,5.6,5.6,0,0,0-1.343,3.52,2.855,2.855,0,0,0,.564,1.592,5.173,5.173,0,0,0,1.175,1.095,26.2,26.2,0,0,1,2.364,1.592,3.258,3.258,0,0,1,1.162,1.827,2.123,2.123,0,0,1-.121,1.343A1.223,1.223,0,0,1,285.659,207.8Z" transform="translate(-265.3 -159.208)" fill="#455a64"/>
      <path id="Path_8987" data-name="Path 8987" d="M266.894,450.739l3.271-3.983-7.389-6.186-4.856,5.783.437.41c1.955,1.82,10.075,9.121,11.781,9.847C272.019,457.416,266.894,450.739,266.894,450.739Z" transform="translate(-257.886 -246.784)" fill="#f55a66"/>
      <g id="Group_7231" data-name="Group 7231" transform="translate(0.087 197.366)" opacity="0.5">
        <path id="Path_8988" data-name="Path 8988" d="M260.687,450.286a3.358,3.358,0,0,0,.376-2.371,3.3,3.3,0,0,0-1.29-2.015L258,447.982Z" transform="translate(-258 -445.9)" fill="#fff"/>
      </g>
      <g id="Group_7232" data-name="Group 7232" transform="translate(0 199.415)" opacity="0.4">
        <path id="Path_8989" data-name="Path 8989" d="M269.289,456.862s1.679,2.479,1.1,2.613-9.074-6.932-12.52-10.371l.155-.155,9.807,8.322S268.839,456.52,269.289,456.862Z" transform="translate(-257.87 -448.95)" fill="#fff"/>
      </g>
      <path id="Path_8990" data-name="Path 8990" d="M257.93,448.79a.887.887,0,0,0,.114.121l.349.329,1.3,1.182c1.1.994,2.646,2.337,4.386,3.8s3.358,2.727,4.514,3.641l1.4,1.068.383.282.134.094-.121-.107-.369-.3-1.377-1.1c-1.155-.927-2.747-2.217-4.487-3.667s-3.291-2.787-4.406-3.761l-1.343-1.155-.363-.309Z" transform="translate(-257.89 -249.483)" fill="#263238"/>
      <path id="Path_8991" data-name="Path 8991" d="M272.56,461.2a4.465,4.465,0,0,1,.786-.437,3.82,3.82,0,0,1,.893-.128,1.558,1.558,0,0,0-1.679.564Z" transform="translate(-262.693 -253.353)" fill="#263238"/>
      <path id="Path_8992" data-name="Path 8992" d="M270.68,457a1.121,1.121,0,0,0,.47-.094c.249-.081.443-.168.437-.2a1.109,1.109,0,0,0-.47.094C270.895,456.9,270.666,456.962,270.68,457Z" transform="translate(-262.075 -252.079)" fill="#263238"/>
      <path id="Path_8993" data-name="Path 8993" d="M270.18,455.88c0,.034.181.054.4.04s.41-.04.4-.074a.84.84,0,0,0-.4-.04C270.355,455.813,270.18,455.846,270.18,455.88Z" transform="translate(-261.912 -251.783)" fill="#263238"/>
      <path id="Path_8994" data-name="Path 8994" d="M270.48,454.4a2.156,2.156,0,0,0,.349.376c.215.181.4.309.423.282s-.134-.188-.349-.369a1.344,1.344,0,0,0-.423-.289Z" transform="translate(-262.01 -251.324)" fill="#263238"/>
      <path id="Path_8995" data-name="Path 8995" d="M270.9,453.509a1.451,1.451,0,0,0,.826.8,4.437,4.437,0,0,0-.416-.4C271.088,453.7,270.927,453.489,270.9,453.509Z" transform="translate(-262.148 -251.032)" fill="#263238"/>
      <path id="Path_8996" data-name="Path 8996" d="M271.84,456.418a1.761,1.761,0,0,0,.477.39,3.573,3.573,0,0,0,.6.316,1.78,1.78,0,0,0,.39.121.356.356,0,0,0,.242-.047.269.269,0,0,0,.087-.255,1.155,1.155,0,0,0-1.72-.457.411.411,0,0,0-.121.121,1.794,1.794,0,0,1,.557-.228,1.182,1.182,0,0,1,.631.074.974.974,0,0,1,.531.517c.034.114-.074.181-.195.161a1.912,1.912,0,0,1-.369-.107,4.558,4.558,0,0,1-.6-.282C272.035,456.552,271.847,456.4,271.84,456.418Z" transform="translate(-262.443 -251.939)" fill="#263238"/>
      <path id="Path_8997" data-name="Path 8997" d="M271.931,456.015a.65.65,0,0,0,.329-.282.9.9,0,0,0,.161-.457.6.6,0,0,0-.195-.571.242.242,0,0,0-.329.094.672.672,0,0,0-.094.282,1.968,1.968,0,0,0,0,.477.921.921,0,0,0,.114.416v-.423a1.862,1.862,0,0,1,.04-.45c0-.161.121-.376.262-.3s.148.309.141.463a1.007,1.007,0,0,1-.121.423A2.1,2.1,0,0,1,271.931,456.015Z" transform="translate(-262.44 -251.415)" fill="#263238"/>
      <path id="Path_8998" data-name="Path 8998" d="M260.67,446a6.539,6.539,0,0,1,.537.477,3.023,3.023,0,0,1,.672,3.17c-.155.41-.322.631-.3.672s.054-.047.128-.148a2.86,2.86,0,0,0,.249-.47,2.915,2.915,0,0,0-.672-3.258,2.625,2.625,0,0,0-.416-.329C260.737,446,260.677,446,260.67,446Z" transform="translate(-258.789 -248.567)" fill="#263238"/>
      <path id="Path_8999" data-name="Path 8999" d="M264.383,442.32a18.448,18.448,0,0,0-1.343,1.471,15.864,15.864,0,0,0-1.249,1.545,32.973,32.973,0,0,0,2.579-3.016Z" transform="translate(-259.157 -247.358)" fill="#263238"/>
      <path id="Path_9000" data-name="Path 9000" d="M264.24,452.51a7.779,7.779,0,0,0,2.149,1.827s-.49-.4-1.081-.907S264.267,452.49,264.24,452.51Z" transform="translate(-259.961 -250.704)" fill="#263238"/>
      <path id="Path_9001" data-name="Path 9001" d="M262,450.7c-.034,0-.047.134-.087.289s-.1.275-.074.3.134-.087.181-.262S262.032,450.7,262,450.7Z" transform="translate(-259.17 -250.11)" fill="#263238"/>
      <path id="Path_9002" data-name="Path 9002" d="M262.089,449c-.034,0-.047.114-.04.262s.054.249.081.249.054-.121.04-.262S262.123,449,262.089,449Z" transform="translate(-259.242 -249.552)" fill="#263238"/>
      <path id="Path_9003" data-name="Path 9003" d="M261.33,447.566s.081.107.161.242.107.249.141.249.054-.154-.04-.309S261.343,447.532,261.33,447.566Z" transform="translate(-259.006 -249.078)" fill="#263238"/>
      <path id="Path_9004" data-name="Path 9004" d="M260.68,446.658v.161c0,.074.094.128.128.107s0-.087,0-.161S260.707,446.638,260.68,446.658Z" transform="translate(-258.793 -248.781)" fill="#263238"/>
      <path id="Path_9005" data-name="Path 9005" d="M317.223,455.649l-.114-5.159-9.659.154.087,7.55h.6c2.687.107,13.575.349,15.348-.222C325.485,457.368,317.223,455.649,317.223,455.649Z" transform="translate(-274.148 -250.041)" fill="#f55a66"/>
      <g id="Group_7233" data-name="Group 7233" transform="translate(33.376 205.321)" opacity="0.5">
        <path id="Path_9006" data-name="Path 9006" d="M311.093,460.441a3.358,3.358,0,0,0-1.263-2.015,3.258,3.258,0,0,0-2.27-.672l.04,2.687Z" transform="translate(-307.56 -457.743)" fill="#fff"/>
      </g>
      <g id="Group_7234" data-name="Group 7234" transform="translate(33.389 206.588)" opacity="0.4">
        <path id="Path_9007" data-name="Path 9007" d="M321.3,459.63s2.888.786,2.539,1.263-11.385.672-16.255.3v-.222l12.869-.087S320.752,459.664,321.3,459.63Z" transform="translate(-307.58 -459.63)" fill="#fff"/>
      </g>
      <path id="Path_9008" data-name="Path 9008" d="M307.4,461.5h.645l1.76.054c1.484,0,3.533.04,5.8,0s4.312-.114,5.8-.188l1.753-.1.477-.034a.531.531,0,0,0,.168,0h-.645l-1.753.06c-1.484.054-3.533.114-5.8.148s-4.312,0-5.8,0h-2.4Z" transform="translate(-274.132 -253.567)" fill="#263238"/>
      <path id="Path_9009" data-name="Path 9009" d="M326.788,460.988a3.6,3.6,0,0,1,.316-.846,3.783,3.783,0,0,1,.584-.672,1.558,1.558,0,0,0-.9,1.525Z" transform="translate(-280.496 -252.989)" fill="#263238"/>
      <path id="Path_9010" data-name="Path 9010" d="M322.508,459.242a2.048,2.048,0,0,0,.3-.376c.134-.222.228-.416.2-.437s-.161.148-.3.376S322.481,459.222,322.508,459.242Z" transform="translate(-279.09 -252.647)" fill="#263238"/>
      <path id="Path_9011" data-name="Path 9011" d="M321.338,458.729a1.542,1.542,0,0,0,.336-.235c.168-.155.275-.289.255-.316s-.175.081-.336.235S321.311,458.729,321.338,458.729Z" transform="translate(-278.706 -252.564)" fill="#263238"/>
      <path id="Path_9012" data-name="Path 9012" d="M320.58,457.565a1.089,1.089,0,0,0,.5.06.255.255,0,1,0,0-.121A1.345,1.345,0,0,0,320.58,457.565Z" transform="translate(-278.459 -252.28)" fill="#263238"/>
      <path id="Path_9013" data-name="Path 9013" d="M320.31,456.74a.994.994,0,0,0,.564.154.94.94,0,0,0,.578-.087,3.2,3.2,0,0,0-.571,0A2.843,2.843,0,0,0,320.31,456.74Z" transform="translate(-278.37 -252.093)" fill="#263238"/>
      <path id="Path_9014" data-name="Path 9014" d="M323,457.954a1.928,1.928,0,0,0,.618,0,3.217,3.217,0,0,0,.672-.161,1.384,1.384,0,0,0,.376-.161.357.357,0,0,0,.155-.195.235.235,0,0,0-.1-.242,1.135,1.135,0,0,0-1.4.349,1.263,1.263,0,0,0-.195.423.41.41,0,0,0,0,.168,1.733,1.733,0,0,1,.275-.537,1.075,1.075,0,0,1,.524-.349.941.941,0,0,1,.739.034c.1.074.067.188-.04.255a1.627,1.627,0,0,1-.349.154,4.521,4.521,0,0,1-.638.181A5.592,5.592,0,0,0,323,457.954Z" transform="translate(-279.253 -252.206)" fill="#263238"/>
      <path id="Path_9015" data-name="Path 9015" d="M322.817,457.836a.672.672,0,0,0,.06-.43.975.975,0,0,0-.175-.457.625.625,0,0,0-.517-.309.248.248,0,0,0-.188.3.672.672,0,0,0,.107.275,1.747,1.747,0,0,0,.3.369c.195.188.349.255.356.242s-.128-.107-.3-.3a1.686,1.686,0,0,1-.262-.369c-.087-.128-.148-.363,0-.39s.316.134.41.255a1.014,1.014,0,0,1,.181.4,2.148,2.148,0,0,1,.027.416Z" transform="translate(-278.922 -252.06)" fill="#263238"/>
      <path id="Path_9016" data-name="Path 9016" d="M307.64,457.653a3.975,3.975,0,0,1,.712,0,3.023,3.023,0,0,1,2.559,2.015c.154.41.175.672.195.672a.5.5,0,0,0,0-.195,2.779,2.779,0,0,0-.114-.524,3.03,3.03,0,0,0-1-1.424,3,3,0,0,0-1.632-.6,2.448,2.448,0,0,0-.531,0C307.7,457.627,307.633,457.647,307.64,457.653Z" transform="translate(-274.21 -252.368)" fill="#263238"/>
      <path id="Path_9017" data-name="Path 9017" d="M308.973,451.68a18.315,18.315,0,0,0-.047,2.015,16.236,16.236,0,0,0,.06,1.981,17.168,17.168,0,0,0,.054-1.981A15.452,15.452,0,0,0,308.973,451.68Z" transform="translate(-274.629 -250.431)" fill="#263238"/>
      <path id="Path_9018" data-name="Path 9018" d="M314.61,460.313a6.044,6.044,0,0,0,1.417.121,5.374,5.374,0,0,0,1.411-.141c0-.034-.638,0-1.417,0A12.382,12.382,0,0,0,314.61,460.313Z" transform="translate(-276.499 -253.254)" fill="#263238"/>
      <path id="Path_9019" data-name="Path 9019" d="M311.79,460.368s.054.134.121.275.107.269.141.269.047-.155-.034-.316S311.81,460.341,311.79,460.368Z" transform="translate(-275.573 -253.282)" fill="#263238"/>
      <path id="Path_9020" data-name="Path 9020" d="M310.71,459.055a.579.579,0,0,0,.141.222c.1.094.2.168.228.141s-.04-.121-.141-.222S310.73,459.015,310.71,459.055Z" transform="translate(-275.218 -252.849)" fill="#263238"/>
      <path id="Path_9021" data-name="Path 9021" d="M309.18,458.452a.651.651,0,0,1,.282.081c.148.081.242.121.269.1s-.06-.154-.235-.215S309.173,458.425,309.18,458.452Z" transform="translate(-274.716 -252.636)" fill="#263238"/>
      <path id="Path_9022" data-name="Path 9022" d="M308.09,458.2c0,.034.047.081.128.114a.262.262,0,0,0,.168,0c.013,0-.047-.074-.128-.107S308.1,458.174,308.09,458.2Z" transform="translate(-274.358 -252.566)" fill="#263238"/>
      <path id="Path_9023" data-name="Path 9023" d="M287.378,294.708s-3.217,13.608-2.3,16.3,6.8,4.252,6.8,4.252l-.195,37.272-32.6,40.3,12.037,9.854S306.4,362.32,309.51,355s-2.015-60.888-2.015-60.888Z" transform="translate(-258.267 -198.699)" fill="#263238"/>
      <path id="Path_9024" data-name="Path 9024" d="M311.853,286.287l1.6,113.2-16.584.081L286.121,309.2h0c-1.639-5.373-3.506-10.982-3.17-17.39l2.223-6.509Z" transform="translate(-266.091 -195.806)" fill="#263238"/>
      <path id="Path_9025" data-name="Path 9025" d="M297.37,312.51a3.359,3.359,0,0,1,.39.336c.235.235.591.584,1.021,1.055.873.94,2.1,2.344,3.553,4.158h0v.04c.3,5.071.9,12.466,1.619,20.681.571,6.717,1.162,12.8,1.525,17.565v.047l-.034.04-4.614,6.18-1.276,1.679-.343.437-.128.141s0-.06.094-.168l.309-.457,1.222-1.726,4.52-6.247v.081c-.437-4.756-.994-10.875-1.605-17.544-.719-8.215-1.27-15.617-1.5-20.695v.067c-1.431-1.827-2.626-3.258-3.466-4.218-.416-.484-.752-.846-.974-1.095a2.419,2.419,0,0,1-.309-.356Z" transform="translate(-270.839 -204.74)" fill="#455a64"/>
      <path id="Path_9026" data-name="Path 9026" d="M320.011,377.662a16.355,16.355,0,0,0-4.48-1.169,17.021,17.021,0,0,0-4.6.443,3.735,3.735,0,0,1,1.29-.5,10.176,10.176,0,0,1,6.6.524,3.573,3.573,0,0,1,1.2.705Z" transform="translate(-275.29 -225.621)" fill="#455a64"/>
      <path id="Path_9027" data-name="Path 9027" d="M322.841,386.22c.074.06-4.588,6.321-10.418,13.984s-10.619,13.83-10.693,13.77,4.581-6.321,10.418-13.984S322.733,386.166,322.841,386.22Z" transform="translate(-272.27 -228.94)" fill="#455a64"/>
      <path id="Path_9028" data-name="Path 9028" d="M327.909,298.86a2.855,2.855,0,0,1-.934,1.229,4.621,4.621,0,0,1-6.764-.712,2.741,2.741,0,0,1-.672-1.4,14.531,14.531,0,0,0,.846,1.243,4.608,4.608,0,0,0,6.408.672C327.52,299.337,327.822,298.82,327.909,298.86Z" transform="translate(-278.117 -199.969)" fill="#455a64"/>
      <path id="Path_9029" data-name="Path 9029" d="M278.213,250.567s-2.519,18.418,0,20.748a5.276,5.276,0,0,0,4.93,1.565l4.789-4.03.94-18.31Z" transform="translate(-264.181 -184.394)" fill="#ffbe9d"/>
      <path id="Path_9030" data-name="Path 9030" d="M280.1,228.3s-3.6,4.07-4.346,19.633c0,0,10.257,1.948,10.445,1.384S280.1,228.3,280.1,228.3Z" transform="translate(-263.74 -177.092)" fill="#f55a66"/>
      <path id="Path_9031" data-name="Path 9031" d="M282.144,270.652l32.677.531-.5-4.917s-3.6-18.72-3.573-18.962l.564-1.2a10.875,10.875,0,0,0,.275-9.457h15.865l-.672-12.869-16.651-2.452-6.193-.49s-10.915.571-11.15.6c-4.567.551-9.88.9-11.822,5.79-1.041,2.613-.054,6.535,1.639,10.586l4.03,12.419c1.612,6.831-.96,6.509-2.371,13.38C284.058,264.647,282.124,269.692,282.144,270.652Z" transform="translate(-265.311 -174.643)" fill="#f55a66"/>
      <path id="Path_9032" data-name="Path 9032" d="M326.224,225.991c0,.094-9.316.175-20.822.175s-20.822-.081-20.822-.175,9.31-.181,20.822-.181S326.224,225.891,326.224,225.991Z" transform="translate(-266.639 -176.275)" fill="#fafafa"/>
      <path id="Path_9033" data-name="Path 9033" d="M325.379,235.195c0,.1-10.357.175-23.139.175s-23.14-.074-23.14-.175,10.357-.175,23.14-.175S325.379,235.1,325.379,235.195Z" transform="translate(-264.84 -179.298)" fill="#fafafa"/>
      <path id="Path_9034" data-name="Path 9034" d="M281.045,245.675a10.746,10.746,0,0,1-3.855,0A10.748,10.748,0,0,1,281.045,245.675Z" transform="translate(-264.213 -182.739)" fill="#fafafa"/>
      <path id="Path_9035" data-name="Path 9035" d="M313.2,245.995c0,.094-6.777.175-15.133.175s-15.14-.081-15.14-.175,6.777-.175,15.14-.175S313.2,245.9,313.2,245.995Z" transform="translate(-266.098 -182.844)" fill="#fafafa"/>
      <path id="Path_9036" data-name="Path 9036" d="M313.72,256.795c0,.094-6.085.175-13.588.175s-13.581-.081-13.581-.175,6.079-.175,13.581-.175S313.72,256.694,313.72,256.795Z" transform="translate(-267.286 -186.39)" fill="#fafafa"/>
      <path id="Path_9037" data-name="Path 9037" d="M314.674,266.795c0,.094-5.515.175-12.312.175s-12.312-.081-12.312-.175,5.515-.175,12.312-.175S314.674,266.7,314.674,266.795Z" transform="translate(-268.435 -189.673)" fill="#fafafa"/>
      <path id="Path_9038" data-name="Path 9038" d="M315.443,274.915c0,.094-5.9.175-13.172.175s-13.172-.081-13.172-.175,5.9-.175,13.172-.175S315.443,274.8,315.443,274.915Z" transform="translate(-268.123 -192.339)" fill="#fafafa"/>
      <path id="Path_9039" data-name="Path 9039" d="M316.211,285.215c0,.094-6.717.175-14.985.175s-14.985-.081-14.985-.175,6.717-.175,14.985-.175S316.211,285.114,316.211,285.215Z" transform="translate(-267.184 -195.721)" fill="#fafafa"/>
      <path id="Path_9040" data-name="Path 9040" d="M286.628,255.778a2.688,2.688,0,0,1-.275-.618c-.188-.484-.4-1.055-.672-1.72-.551-1.458-1.343-3.459-2.143-5.689s-1.484-4.279-1.908-5.783c-.215-.746-.369-1.343-.463-1.787a2.982,2.982,0,0,1-.108-.672,24.272,24.272,0,0,1,.806,2.391c.484,1.471,1.189,3.5,2.015,5.729s1.552,4.245,2.049,5.723c.249.739.437,1.343.557,1.76A2.215,2.215,0,0,1,286.628,255.778Z" transform="translate(-265.484 -180.773)" fill="#263238"/>
      <g id="Group_7235" data-name="Group 7235" transform="translate(22.502 72.706)" opacity="0.2">
        <path id="Path_9041" data-name="Path 9041" d="M292.391,274.878a32.3,32.3,0,0,0,8.5-4.8,15.449,15.449,0,0,0,5.32-8.027c.141-.6.161-1.384-.383-1.673a1.055,1.055,0,0,0-1.2.3,4.246,4.246,0,0,0-.672,1.155,8.369,8.369,0,0,1-2.895,3.419,23.866,23.866,0,0,1-4.749,2.1,8.735,8.735,0,0,0-4.2,2.929c-.967,1.437-1.055,3.6.222,4.769" transform="translate(-291.371 -260.307)"/>
      </g>
      <path id="Path_9042" data-name="Path 9042" d="M307.518,254.34v1.021a17.949,17.949,0,0,1-.4,2.747,19.573,19.573,0,0,1-11.291,13.662,17.79,17.79,0,0,1-2.62.913c-.316.087-.564.134-.732.168a.98.98,0,0,1-.262.034,5.82,5.82,0,0,1,.954-.329,22.036,22.036,0,0,0,2.559-1.014,20.15,20.15,0,0,0,11.15-13.494,22.834,22.834,0,0,0,.51-2.687A7.385,7.385,0,0,1,307.518,254.34Z" transform="translate(-269.144 -185.642)" fill="#263238"/>
      <path id="Path_9043" data-name="Path 9043" d="M350.828,169.766s-.074-.416-.141-1.236a13.146,13.146,0,0,1,.282-3.634,15.059,15.059,0,0,1,8.6-10.5,16.55,16.55,0,0,1,4.655-1.283,17.987,17.987,0,0,1,5.32.114,19.479,19.479,0,0,1,10.532,5.588,23.247,23.247,0,0,1,4.03,5.373,21.326,21.326,0,0,1,2.264,6.784,20.15,20.15,0,0,1-.222,7.563,17.013,17.013,0,0,1-1.3,3.735,15.14,15.14,0,0,1-2.284,3.358,15.448,15.448,0,0,1-7.113,4.326,26.256,26.256,0,0,1-8.7.893,34.5,34.5,0,0,1-8.967-1.6,15.522,15.522,0,0,1-7.711-5.373,16,16,0,0,1-2.969-9.242,17.774,17.774,0,0,1,.672-4.984,20.689,20.689,0,0,1,2.089-4.661,22.764,22.764,0,0,1,3.271-4.03,22.279,22.279,0,0,1,4.238-3.11,19.68,19.68,0,0,1,5-1.854,18.082,18.082,0,0,1,5.373-.282,21.312,21.312,0,0,1,17.148,12.607,18.411,18.411,0,0,1,1,11.3,14.69,14.69,0,0,1-2.418,5.306,13.037,13.037,0,0,1-4.487,3.8,16.174,16.174,0,0,1-5.689,1.672,20.344,20.344,0,0,1-5.985-.248,20.755,20.755,0,0,1-10.619-5.541,16.92,16.92,0,0,1-3.533-5,13.072,13.072,0,0,1-1.169-6.045,16.31,16.31,0,0,1,5.541-10.888,19.64,19.64,0,0,1,11.224-5.024,16.794,16.794,0,0,1,11.627,3.231,15.2,15.2,0,0,1,4.03,4.527,13.18,13.18,0,0,1,1.229,2.781c.175.477.269.974.4,1.464a8.062,8.062,0,0,1,.222,1.5,16.241,16.241,0,0,1-3.117,11.3,17.564,17.564,0,0,1-9.652,6.341,18.921,18.921,0,0,1-11.338-.557,21.5,21.5,0,0,1-13.864-16.181,15.61,15.61,0,0,1,1.807-10.411,18.176,18.176,0,0,1,7.449-7.153,22.166,22.166,0,0,1,9.773-2.418,25.524,25.524,0,0,1,9.625,1.673,22.484,22.484,0,0,1,13.152,12.473,19.11,19.11,0,0,1-1.417,16.577,15.563,15.563,0,0,1-5.729,5.508,18.874,18.874,0,0,1-7.221,2.25,24.563,24.563,0,0,1-13.434-2.734,29.829,29.829,0,0,1-9.518-7.342,19.223,19.223,0,0,1-4.4-8.974,14.817,14.817,0,0,1,.9-7.98,13.313,13.313,0,0,1,3.358-4.87,11.083,11.083,0,0,1,3.063-1.968c.772-.275,1.175-.4,1.175-.4l-.3.107c-.195.074-.49.175-.866.322a11.351,11.351,0,0,0-3.029,2.015,13.32,13.32,0,0,0-3.291,4.856,14.777,14.777,0,0,0-.88,7.912,19.089,19.089,0,0,0,4.406,8.96,29.762,29.762,0,0,0,9.477,7.274,24.4,24.4,0,0,0,13.353,2.687,18.753,18.753,0,0,0,7.127-2.23,15.267,15.267,0,0,0,5.629-5.441,18.861,18.861,0,0,0,1.384-16.349,22.251,22.251,0,0,0-13-12.3,25.228,25.228,0,0,0-9.518-1.639,21.809,21.809,0,0,0-9.639,2.384,17.947,17.947,0,0,0-7.335,7.012,15.294,15.294,0,0,0-1.767,10.2,21.177,21.177,0,0,0,13.662,15.919,18.545,18.545,0,0,0,11.143.544,17.189,17.189,0,0,0,9.457-6.22,15.9,15.9,0,0,0,3.1-11.056c-.034-.49-.148-.974-.222-1.464a14.589,14.589,0,0,0-1.578-4.138,15.046,15.046,0,0,0-3.97-4.426,16.255,16.255,0,0,0-11.419-3.157,19.291,19.291,0,0,0-11.022,4.9,15.938,15.938,0,0,0-5.427,10.646,12.762,12.762,0,0,0,1.135,5.891,16.712,16.712,0,0,0,3.459,4.89,20.412,20.412,0,0,0,10.445,5.447,20.084,20.084,0,0,0,5.877.249,15.557,15.557,0,0,0,5.568-1.639,12.58,12.58,0,0,0,4.373-3.694,14.259,14.259,0,0,0,2.364-5.172,18.135,18.135,0,0,0-.981-11.1,21,21,0,0,0-16.873-12.44,18.134,18.134,0,0,0-5.293.275,19.4,19.4,0,0,0-4.9,1.827,21.575,21.575,0,0,0-4.178,3.049,21.91,21.91,0,0,0-3.224,3.963,20.3,20.3,0,0,0-2.062,4.581,17.619,17.619,0,0,0-.672,4.9,15.711,15.711,0,0,0,2.908,9.068,15.18,15.18,0,0,0,7.556,5.253,34.47,34.47,0,0,0,8.886,1.619,25.853,25.853,0,0,0,8.611-.873,14.408,14.408,0,0,0,9.256-7.543,16.793,16.793,0,0,0,1.29-3.681,20.078,20.078,0,0,0,.235-7.476,21.884,21.884,0,0,0-6.193-12.09,19.345,19.345,0,0,0-10.424-5.555,17.686,17.686,0,0,0-5.273-.121,16.362,16.362,0,0,0-4.621,1.256,14.777,14.777,0,0,0-6.18,5.024,14.985,14.985,0,0,0-2.4,5.373,13.628,13.628,0,0,0-.316,3.62,9.105,9.105,0,0,0,.081.927C350.814,169.652,350.828,169.766,350.828,169.766Z" transform="translate(-287.165 -152.062)" fill="#f55a66"/>
      <path id="Path_9044" data-name="Path 9044" d="M382.341,173.238c0,.087-4.373,1.552-9.827,3.264s-9.907,3.029-9.934,2.935,4.373-1.552,9.827-3.264S382.28,173.144,382.341,173.238Z" transform="translate(-292.248 -159.013)" fill="#f55a66"/>
      <path id="Path_9045" data-name="Path 9045" d="M384.8,178c.034.087-4.07,1.585-9.162,3.358s-9.236,3.1-9.269,3,4.07-1.585,9.162-3.358S384.767,177.9,384.8,178Z" transform="translate(-293.492 -160.575)" fill="#f55a66"/>
      <path id="Path_9046" data-name="Path 9046" d="M378.047,187.76c.107.148-2.015.987-4.581,1.9-1.29.457-2.472.846-3.358,1.115a5.885,5.885,0,0,1-1.417.363,6.253,6.253,0,0,1,1.343-.6c.84-.322,2.015-.752,3.3-1.209s2.472-.86,3.325-1.142S378.08,187.746,378.047,187.76Z" transform="translate(-294.254 -163.782)" fill="#f55a66"/>
      <path id="Path_9047" data-name="Path 9047" d="M386.662,192.034s-3.076-1.424-3.224-.672.06,1.055.672,1.243,2.277.752,2.277.752Z" transform="translate(-299.081 -164.893)" fill="#ffbe9d"/>
      <path id="Path_9048" data-name="Path 9048" d="M386.4,194.124s-3.076-1.424-3.224-.672.054,1.048.672,1.243,2.277.752,2.277.752Z" transform="translate(-298.995 -165.579)" fill="#eb996e"/>
      <path id="Path_9049" data-name="Path 9049" d="M368.3,196.883l-11.674,15.288a8.228,8.228,0,0,1-6,3.741l-1.095.094.544,10.418,4.608-.524a9.269,9.269,0,0,0,6.965-4.554l11.869-20.513a35.284,35.284,0,0,0,2.082-4.1,8.736,8.736,0,0,0-.054-4.426l-4.7,2.969v-3.2s-.5-.175-1.484.786C368.512,193.713,368.3,196.883,368.3,196.883Z" transform="translate(-287.963 -165.195)" fill="#ffbe9d"/>
      <path id="Path_9050" data-name="Path 9050" d="M381.15,189.134l.06,11.278a.913.913,0,0,0,.974.907h0a.913.913,0,0,0,.846-.913V188.986l-1.075-1.746Z" transform="translate(-298.345 -163.612)" fill="#455a64"/>
      <path id="Path_9051" data-name="Path 9051" d="M382.186,187.29l-.3.678.692-.034Z" transform="translate(-298.588 -163.628)" fill="#263238"/>
      <path id="Path_9052" data-name="Path 9052" d="M383,189.877a1.5,1.5,0,0,1-.934.3A1.719,1.719,0,0,1,381.1,190c0-.047.437.06.961.034S382.981,189.837,383,189.877Z" transform="translate(-298.328 -164.475)" fill="#263238"/>
      <path id="Path_9053" data-name="Path 9053" d="M382.46,202.287a2.8,2.8,0,0,1-.034-.477v-1.3c0-1.216,0-2.687-.034-4.279s0-3.056,0-4.272v-1.3a2.425,2.425,0,0,1,0-.477,3.352,3.352,0,0,1,0,.477c0,.39,0,.819,0,1.3v9.847a4.623,4.623,0,0,1,.067.477Z" transform="translate(-298.748 -164.58)" fill="#263238"/>
    </g>
    <g id="freepik--Plant--inject-168" transform="translate(66.417 214.898)">
      <path id="Path_9054" data-name="Path 9054" d="M148,376.243c5.253,1.834,12.09.195,16.611-3.09s7.731-7.986,10.6-12.762a18.846,18.846,0,0,0,2.808-6.5A7.017,7.017,0,0,0,176,347.374c-2.828-2.378-7.16-1.169-10.364.672A35.747,35.747,0,0,0,148,376.243" transform="translate(-101.019 -322.342)" fill="#f55a66"/>
      <path id="Path_9055" data-name="Path 9055" d="M156.38,405.622c3.157,4.164,8.577,6.045,13.8,6.26s10.378-1.2,15.254-3.07c1.773-.672,3.708-1.612,4.319-3.405a4.339,4.339,0,0,0-.927-4.03,8.94,8.94,0,0,0-3.52-2.4,24.062,24.062,0,0,0-15.361-.833c-5.051,1.31-9.471,4.238-13.568,7.469" transform="translate(-103.77 -339.16)" fill="#f55a66"/>
      <path id="Path_9056" data-name="Path 9056" d="M146.782,342.112c4.353.087,7.644-3.721,9.618-7.6a28.211,28.211,0,0,0,2.566-17.544c-.4-2.223-1.243-4.621-3.231-5.7s-4.655-.369-6.347,1.182a13.1,13.1,0,0,0-3.3,5.951c-2.337,7.556-1.834,16.241.672,23.744" transform="translate(-99.895 -310.752)" fill="#f55a66"/>
      <path id="Path_9057" data-name="Path 9057" d="M123.128,370.272c7.389-12.628,8.658-28.083,4.272-42.054-.712-2.27-2.049-4.863-4.42-5.011-2.626-.168-4.272,2.761-5,5.286-2.546,8.88-2.015,18.3-1.444,27.539.349,5.676,2.3,10.525,6.589,14.26" transform="translate(-90.534 -314.839)" fill="#f55a66"/>
      <path id="Path_9058" data-name="Path 9058" d="M102.931,391.338a30.333,30.333,0,0,0-18-19.1c-1.975-.739-4.473-1.162-5.944.343s-.967,3.976-.074,5.8c1.491,2.982,3.916,5.373,6.334,7.677a26.1,26.1,0,0,0,7.261,5.407c2.781,1.216,7.886,1.525,10.425-.128" transform="translate(-78.054 -330.72)" fill="#f55a66"/>
      <path id="Path_9059" data-name="Path 9059" d="M166.886,352.71a.591.591,0,0,1-.128.114l-.4.309-1.558,1.162-1.122.833c-.41.316-.833.672-1.3,1.055-.92.766-2.015,1.592-3.1,2.633l-1.746,1.592c-.611.557-1.189,1.182-1.82,1.807-1.276,1.222-2.512,2.687-3.842,4.138a81.831,81.831,0,0,0-13.588,21.937c-.732,1.854-1.458,3.6-2.015,5.293-.275.84-.578,1.646-.8,2.431s-.437,1.552-.672,2.277c-.437,1.444-.672,2.781-.967,3.943-.128.584-.262,1.128-.363,1.632l-.242,1.377q-.222,1.216-.343,1.914l-.1.5a.827.827,0,0,1-.047.168.671.671,0,0,1,0-.175,4.746,4.746,0,0,1,.06-.5c.067-.463.161-1.108.282-1.921.06-.416.134-.887.208-1.39s.222-1.048.336-1.639c.262-1.169.5-2.519.927-3.97l.618-2.284c.222-.8.517-1.605.786-2.452.517-1.7,1.243-3.459,1.961-5.32a88.714,88.714,0,0,1,5.911-11.573,87.667,87.667,0,0,1,7.7-10.451c1.343-1.484,2.593-2.915,3.882-4.138.672-.618,1.229-1.243,1.84-1.793l1.773-1.578c1.1-1.034,2.2-1.847,3.137-2.606.47-.369.9-.725,1.31-1.028l1.149-.813,1.6-1.108.423-.282C166.832,352.736,166.879,352.7,166.886,352.71Z" transform="translate(-96.006 -324.527)" fill="#263238"/>
      <path id="Path_9060" data-name="Path 9060" d="M176.915,404.147a2.343,2.343,0,0,1-.51-.081c-.336-.06-.813-.188-1.444-.3a39.851,39.851,0,0,0-40.5,16.859c-.369.524-.618.954-.806,1.229a2.685,2.685,0,0,1-.3.423,3.534,3.534,0,0,1,.242-.457c.168-.289.4-.732.752-1.269A36.2,36.2,0,0,1,137.6,416.2a38.541,38.541,0,0,1,32.026-13.326,35.515,35.515,0,0,1,5.373.766c.625.128,1.108.275,1.431.356A4.809,4.809,0,0,1,176.915,404.147Z" transform="translate(-96.209 -340.963)" fill="#263238"/>
      <path id="Path_9061" data-name="Path 9061" d="M149.36,319a1.057,1.057,0,0,1,0,.195c-.034.148-.074.336-.121.571-.114.517-.282,1.249-.484,2.17-.43,1.887-1.081,4.608-1.9,7.973-1.632,6.717-4.03,15.979-6.482,26.236-1.236,5.132-2.344,10.035-3.3,14.5s-1.746,8.51-2.344,11.916c-.316,1.7-.557,3.244-.786,4.6s-.416,2.519-.557,3.479-.255,1.672-.336,2.2l-.1.578a.835.835,0,0,1-.047.188.853.853,0,0,1,0-.195c0-.148.034-.343.06-.578.067-.531.161-1.269.275-2.21s.282-2.136.5-3.493.437-2.9.739-4.608c.564-3.412,1.343-7.462,2.27-11.943s2.049-9.4,3.278-14.515c2.472-10.263,4.89-19.512,6.583-26.2.846-3.358,1.525-6.045,2.015-7.946.235-.913.416-1.639.551-2.156.06-.228.114-.41.154-.557a.732.732,0,0,1,.04-.208Z" transform="translate(-96.058 -313.46)" fill="#263238"/>
      <path id="Path_9062" data-name="Path 9062" d="M129.539,398.6a.454.454,0,0,0-.047-.155,2.9,2.9,0,0,1-.107-.457q-.128-.672-.363-1.753c-.316-1.531-.732-3.748-1.209-6.5-.954-5.494-2.076-13.125-2.774-21.608-.336-4.245-.524-8.3-.6-11.983s0-7.012.087-9.8c0-1.39.128-2.653.188-3.761s.134-2.055.2-2.828.128-1.343.168-1.793l.054-.463a.6.6,0,0,1,0-.155.585.585,0,0,1,0,.161v.463c0,.443-.054,1.041-.094,1.793s-.107,1.726-.148,2.835-.121,2.364-.134,3.755c-.087,2.787-.094,6.106,0,9.786s.3,7.724.631,11.963c.672,8.47,1.78,16.12,2.687,21.595.45,2.754.826,4.977,1.1,6.509.121.746.222,1.343.3,1.773l.074.457a1.467,1.467,0,0,1-.007.161Z" transform="translate(-93.271 -319.484)" fill="#263238"/>
      <path id="Path_9063" data-name="Path 9063" d="M118.227,413.976a4.337,4.337,0,0,1-.195-.437l-.484-1.269-.349-.92c-.148-.329-.309-.672-.477-1.068s-.356-.793-.544-1.222-.443-.873-.672-1.343l-.752-1.471c-.3-.5-.591-1.014-.907-1.552-.591-1.088-1.343-2.17-2.109-3.358a78.588,78.588,0,0,0-5.588-7.147,87.456,87.456,0,0,0-6.415-6.415c-1.061-.9-2.015-1.8-3.029-2.559L95.3,384.1l-1.343-.987c-.846-.638-1.632-1.169-2.331-1.639s-1.3-.873-1.8-1.175l-1.149-.732a2.013,2.013,0,0,1-.39-.275,3.546,3.546,0,0,1,.423.215l1.189.672c.517.289,1.128.672,1.834,1.135s1.511.974,2.364,1.605l1.343.967,1.424,1.108c1,.746,2.015,1.639,3.063,2.539a82.961,82.961,0,0,1,6.462,6.428,75.047,75.047,0,0,1,5.6,7.194c.739,1.189,1.5,2.284,2.1,3.358q.45.819.887,1.572l.739,1.491c.228.477.47.92.672,1.343s.356.853.524,1.243l.45,1.081c.114.336.222.672.322.934l.423,1.3A2.23,2.23,0,0,1,118.227,413.976Z" transform="translate(-81.415 -333.254)" fill="#263238"/>
      <path id="Path_9064" data-name="Path 9064" d="M171.837,374.451a21.754,21.754,0,0,1-2.344.141,43.909,43.909,0,0,0-5.6.672,44.474,44.474,0,0,0-5.461,1.417,22.9,22.9,0,0,1-2.23.739,2.016,2.016,0,0,1,.558-.3c.369-.181.913-.41,1.592-.672a34.143,34.143,0,0,1,5.481-1.538,33.329,33.329,0,0,1,5.656-.578h1.719A2.539,2.539,0,0,1,171.837,374.451Z" transform="translate(-103.711 -331.626)" fill="#263238"/>
      <path id="Path_9065" data-name="Path 9065" d="M184.182,411.313a16.96,16.96,0,0,0-7.422-7.993,4.923,4.923,0,0,1,1.511.672,13.3,13.3,0,0,1,5.373,5.77A4.97,4.97,0,0,1,184.182,411.313Z" transform="translate(-110.461 -341.143)" fill="#263238"/>
      <path id="Path_9066" data-name="Path 9066" d="M156.747,334.24c.067.074-1.3,1.431-2.787,3.264s-2.552,3.439-2.64,3.358a15.449,15.449,0,0,1,2.371-3.607,15.093,15.093,0,0,1,3.056-3.016Z" transform="translate(-102.109 -318.463)" fill="#263238"/>
      <path id="Path_9067" data-name="Path 9067" d="M152.717,322.72a12.285,12.285,0,0,1,.672,2.928,12.761,12.761,0,0,1,.329,2.982,26.512,26.512,0,0,1-1.008-5.911Z" transform="translate(-102.565 -314.681)" fill="#263238"/>
      <path id="Path_9068" data-name="Path 9068" d="M129.785,358.88a36.212,36.212,0,0,1-2.17,4.574,36.587,36.587,0,0,1-2.485,4.406,36.942,36.942,0,0,1,2.17-4.567A37.724,37.724,0,0,1,129.785,358.88Z" transform="translate(-93.51 -326.553)" fill="#263238"/>
      <path id="Path_9069" data-name="Path 9069" d="M119.76,346.61a40.686,40.686,0,0,1,3.365,6.764,21.286,21.286,0,0,1-1.84-3.3,20.714,20.714,0,0,1-1.525-3.459Z" transform="translate(-91.747 -322.525)" fill="#263238"/>
      <path id="Path_9070" data-name="Path 9070" d="M98.4,388.242c0,.1-1.491-.188-3.358-.316s-3.358-.054-3.358-.161a9.746,9.746,0,0,1,3.358-.188A9.66,9.66,0,0,1,98.4,388.242Z" transform="translate(-82.528 -335.953)" fill="#263238"/>
      <path id="Path_9071" data-name="Path 9071" d="M114,425.73l4.131,21.722a3.036,3.036,0,0,0,2.989,2.472h12.225a3.036,3.036,0,0,0,3-2.546l3.594-21.648Z" transform="translate(-89.856 -348.501)" fill="#263238"/>
      <path id="Path_9072" data-name="Path 9072" d="M115.373,432.789h23.334l1.243-7.059H114.03Z" transform="translate(-89.866 -348.501)" fill="#455a64"/>
      <path id="Path_9073" data-name="Path 9073" d="M116.03,436.24l.49,2.573h22.488l.356-2.573Z" transform="translate(-90.522 -351.952)" fill="#fafafa"/>
    </g>
  </g>
</svg>
